<svg width="151" height="51" fill="none" xmlns="http://www.w3.org/2000/svg"><path d="M12.883 23.126c-.485-.431-3.795-.262-3.795-.262v.192s2.328-.11 2.181 1.021c-.004.028-.018.06-.025.088-.203.625-.6 1.211-.922 1.775-.605 1.06-1.234 2.105-1.858 3.151a243.888 243.888 0 01-2.156 3.55c-.46.75-.91 1.506-1.384 2.249-.4.627-.72 1.352-1.237 1.897l-.05.052c-.466.462-1.112.74-1.735.906-.085.021-1.334.16-1.331.152l-.071.31h6.979v-.383s-1.988-.047-2.247-.31c-.26-.263-.071-.742-.071-.742s1.117-1.927 2.445-4.209h8.93c.394.668.685 1.156.782 1.315.693 1.112 1.623 2.637 1.395 3.468-.211.781-1.583.695-1.583.695v.31h7.568l.03-.259s-1.73-.27-2.932-1.482c-1.198-1.213-7.803-12.5-8.913-13.484zm-4.635 8.336c1.757-3.018 3.625-6.215 3.702-6.29.14-.146.235-.05.235-.05.002 0 2.176 3.735 3.705 6.34H8.248zm61.135 6.64v.248h6.259l.023-.206s-1.433-.217-2.425-1.19c-.988-.97-6.338-10.178-7.37-10.81-.297-.183-3.633-.058-3.633-.058v.127s2.369.066 2.298.694c-.003.022-.014.048-.022.07-.166.5-.495.97-.76 1.424-.5.849-1.02 1.686-1.537 2.526a219.04 219.04 0 01-1.783 2.847c-.38.6-.753 1.206-1.144 1.801-.333.506-.598 1.085-1.024 1.522l-.043.043c-.385.368-.919.593-1.434.724-.07.019-1.102.128-1.1.123l-.058.25h5.771v-.308s-1.643-.037-1.859-.249c-.214-.21-.059-.595-.059-.595l2.022-3.375h7.387c.326.536.565.928.648 1.054.57.891 1.34 2.115 1.15 2.782-.174.626-1.307.556-1.307.556zm-7.347-5.274c1.454-2.42 3-4.984 3.062-5.044.116-.113.195-.04.195-.04s1.8 2.995 3.064 5.084h-6.32zm86.039 4.126c-.991-.97-6.342-10.178-7.37-10.81-.298-.183-3.635-.058-3.635-.058v.127s2.368.066 2.3.694c-.005.022-.016.048-.023.07-.166.5-.494.97-.762 1.424-.499.849-1.019 1.686-1.534 2.526-.587.954-1.184 1.903-1.786 2.847-.379.6-.751 1.206-1.143 1.801-.332.506-.595 1.085-1.023 1.522a1.75 1.75 0 00-.043.043c-.385.368-.92.593-1.434.724-.012.003-.056.01-.119.017-.964-.226-1.717-.785-2.605-1.604-2.212-2.047-3.14-4.181-3.14-4.181l.178-.107c.796-.15 1.805-.635 2.329-1.273.863-1.053.699-2.85-.282-3.77-.997-.94-2.604-1.008-3.892-1.022-2.006-.023-4.014.031-6.025.017-1.3-.01-2.608-.033-3.91-.004l.036.24c1.276.16 2.514.666 2.486 2.145-.031 1.642-.001 3.288-.029 4.932-.012.836-.018 1.674-.071 2.507-.026.433-.003.947-.153 1.36-.319.894-2.198.752-2.198.752v.358h7.166v-.286s-.675-.037-1.383-.252c-.711-.213-.923-.502-1.027-.934-.108-.429-.038-4.412-.038-4.412h4.365c1.075 1.76 2.751 3.857 4.569 4.886.894.505 1.415.894 2.59.984l-.005.02h1.114c.442.002.877.007 1.28 0h3.376v-.308s-1.642-.037-1.858-.249c-.215-.21-.059-.595-.059-.595s.924-1.545 2.024-3.375h7.384c.326.536.565.928.647 1.054.572.891 1.342 2.115 1.154 2.782-.178.626-1.309.556-1.309.556v.248h6.256l.027-.206s-1.432-.217-2.425-1.19zm-23.666-5.684c-1.099.072-5.464 0-5.464 0v-4.412c1.647-.024 3.294-.018 4.94-.002.738.007 1.455.433 1.954.958 1.083 1.136.071 3.359-1.43 3.456zm12.461 1.558c1.454-2.42 3-4.984 3.062-5.044.116-.113.196-.04.196-.04s1.799 2.995 3.063 5.084h-6.321zm-97.163 3.161c-.432 1.017-.982 1.06-1.513 1.214-.534.155-7.499-.03-7.499-.03s-.143-9.073-.07-9.723c.12-1.109 2.481-1.097 2.481-1.097l.002-.267h-7.31l-.011.272c.786 0 1.682.059 2.287 1.077.488.822.333 8.745.197 9.258-.134.506-.545.881-1.01 1.075-.114.047-.741.093-1.469.04l.012.441h14.554l.005-3.599-.322-.008s.074.385-.334 1.347zm12.336 1.931s-.496.072-1.348-.118c-.961-.217-1.09-1.52-1.086-2.324.004-.714-.007-1.428 0-2.144.014-1.744-.013-3.49-.003-5.235 0-.058-.01-1.228 0-1.228 0 0 3.974-.216 4.755 0 .78.215 1.325 2.008 1.325 2.008h.377l-.448-3.157h-14.17l-.449 3.157h.378s.545-1.793 1.326-2.008c.78-.216 4.754 0 4.754 0 0 .924-.002 1.85 0 2.774.002 1.15-.014 2.349-.008 3.518.004 1.082.228 2.366-.103 3.413-.152.482-.434 1.104-.977 1.226-.852.19-1.349.118-1.349.118v.312h7.026v-.312zm37.442-14.577c5.005.035 5.926 1.683 6.53 2.51.603.825.673 1.903.673 1.903h.568l-.071-4.163s-1.632-.502-2.98-.862c-1.348-.358-7.026-2.223-13.09 2.407-3.162 2.408-2.805 6.672-1.706 8.467 1.1 1.792 3.55 5.093 10.964 5.237 5.127.097 6.706-1.687 6.706-1.687l.142-3.947h-.356s-.694 2.743-2.411 3.732c-2.556 1.471-5.535 1.148-7.7.323-2.164-.824-5.784-2.583-5.57-6.566.212-3.983 3.299-7.39 8.301-7.354zm23.703 11.875s-.024.145-.141.932c-.119.79-.638 1.054-1.374 1.22-.733.166-7.474 0-7.474 0l-.14-5.24s5.321-.213 5.982 0c.665.217.543 1.293.543 1.293h.332l.143-3.73-.307-.025s.022 1.387-1.148 1.387-5.499.037-5.499.037l-.035-4.414s5.391-.036 6.953 0c1.561.036 1.455 2.224 1.455 2.224l.214-.035.023-2.93-13.437-.011-.027.433s1.188-.04 1.78.177c.673.245.755.697.74 1.352-.007.318.021.634.021.951-.001 1.54.054 3.078.061 4.617.003.659.012 1.319.009 1.976-.001.292.042.648-.028.933-.096.383-.024.647-.567 1.171-.545.528-1.965.409-1.965.409v.358H112.1c1.75-.167 1.512-3.085 1.512-3.085h-.424zm-11.777 9.548c-.444.3-.794.702-1.032 1.109-.1-1.16-1.278-2.057-2.714-1.934a2.705 2.705 0 00-1.403.526l-.002-.003c-.913.898-2.308.862-2.73.3-.35-.466.248-.918.74-.736.525.198.292.505.025.613-.274.111-.595.022-.595.022.394.404 1.054.077.987-.391-.09-.601-1.183-.49-1.473.015-.49.855 1.106 1.54 2.48.81-.325.56-.302 1.206.263 1.667 1.294 1.055 3.407-.25 2.45-1.452-.77-.963-2.566-.045-2.036.73.205.302.729.342 1.05.032-.168-.065-.258.06-.362.07-.576.058-.72-.644-.148-.957.747-.406 1.622.162 1.538.851a.797.797 0 01-.25.47c-.732.705-2.147.252-2.36-.66-.104-.44.086-.857.443-1.173l.018-.015c.606-.522 1.676-.76 2.635-.357 2.37.999 1.114 4.27-1.691 3.903-2.075-.27-3.073-2.286-4.794-3.216-1.933-1.046-3.715-1.049-5.287-.3l-.004-.004c-.865.486-1.681.648-2.335.611-1.235-.069-1.707-.809-1.311-1.193.144-.141.4-.175.602-.109.424.14.274.57-.02.636-.342.077-.27-.124-.505.012.278.235.734.218.901-.073.454-.787-.958-1.042-1.295-.368-.495.99 1.009 1.697 2.915 1.119a9.06 9.06 0 00-1.718 1.693c-.568.719-.946 1.154-1.7 1.673-1.622 1.113-3.716 1.443-5.355.643.635-.39 1.128-.91 1.419-1.495.077.02.156.036.239.047 2.8.374 3.826-3.04 1.565-4.063-1.186-.536-2.515-.464-3.582.015-1.067-.478-2.396-.55-3.58-.014-2.262 1.023-1.235 4.438 1.566 4.063.082-.01.16-.028.237-.047.292.584.786 1.105 1.421 1.494-1.64.8-3.735.471-5.356-.642-.757-.52-1.135-.955-1.702-1.674a9.088 9.088 0 00-1.717-1.693c1.906.578 3.41-.129 2.915-1.118-.338-.675-1.75-.42-1.296.368.167.29.624.307.901.073-.235-.137-.164.065-.505-.012-.293-.066-.444-.496-.02-.637.204-.067.458-.032.603.11.395.383-.075 1.124-1.312 1.193-.653.035-1.468-.124-2.335-.612l-.004.005c-1.571-.749-3.353-.746-5.287.3-1.722.93-2.717 2.945-4.794 3.215-2.804.368-4.061-2.903-1.689-3.903.955-.401 2.02-.166 2.626.352.01.01.02.017.03.026.354.315.542.729.44 1.167-.214.913-1.63 1.366-2.361.661a.799.799 0 01-.25-.47c-.084-.69.791-1.258 1.537-.851.573.313.429 1.015-.147.957-.103-.01-.195-.136-.361-.07.32.31.844.27 1.049-.031.53-.776-1.266-1.695-2.035-.731-.959 1.201 1.154 2.507 2.448 1.451.566-.46.589-1.107.264-1.665 1.374.729 2.97.044 2.48-.812-.29-.504-1.384-.615-1.472-.015-.07.467.592.796.984.392 0 0-.319.09-.592-.022-.27-.109-.5-.416.025-.613.49-.182 1.089.27.739.736-.422.561-1.818.599-2.732-.3l-.001.002a2.706 2.706 0 00-1.402-.526c-1.436-.122-2.615.776-2.715 1.935a3.455 3.455 0 00-1.031-1.11c-1.466-.987-3.474-.437-3.402.91.068 1.286 2.164 1.636 2.398.533.163-.76-.898-1.183-1.33-.821-.126.108-.205.273-.198.507.256-.13.135-.24.372-.369.407-.219.983.074.856.547-.245.917-1.852.774-1.91-.31-.036-.68.671-1.206 1.424-1.287 1.492-.163 2.529 1.14 2.91 2.172l.004-.007c.056.177.134.357.246.537.734 1.183 2.576 1.658 4.016 1.046 1.148-.487 1.816-1.354 2.664-2.117-.71 1.867 1.397 4.35 4.251 3.98 3.27-.425 2.948-3.977.217-4.55-1.864-.39-2.948 1.074-1.975 2.101.965 1.02 2.625.065 1.995-.726-.12-.151-.476-.382-.755-.422.064.261.351.065.513.538.138.412-.328.973-1.107.761-1.235-.333-1.133-1.92.453-2.126 1.87-.242 3.505 1.694 2.39 3.157-1.367 1.792-5.353 1.236-5.858-1.451-.154-.825.22-1.53 1.005-2.084.035-.019.064-.042.099-.06 3.157-1.643 5.718-.554 7.702 2.054.124.162.258.32.4.477l-.004.001c.562.646 1.193 1.434.717 2.197-.481.772-2.027.728-2.475-.133-.536-1.032 1.266-1.676 1.679-.79.2.43-.211.732-.588.713-.43-.023-.352-.154-.574-.104.484.61 1.78.273 1.401-.616-.495-1.165-2.75-.374-2.104.864.581 1.116 2.39 1.15 2.95.25.325-.52.156-1.08-.163-1.597.952.771 2.12 1.343 3.36 1.475a5.165 5.165 0 002.853-.488c.806.4 1.791.601 2.852.487 1.24-.133 2.408-.705 3.36-1.476-.32.518-.489 1.078-.164 1.598.56.9 2.369.866 2.95-.25.646-1.237-1.609-2.029-2.105-.864-.376.888.92 1.227 1.401.616-.22-.05-.141.08-.572.104-.378.02-.789-.283-.588-.714.412-.885 2.214-.241 1.678.792-.447.86-1.993.904-2.475.132-.477-.763.156-1.55.717-2.197h-.003c.142-.156.276-.315.4-.477 1.983-2.61 4.545-3.698 7.701-2.055.035.018.064.04.099.06.784.553 1.159 1.26 1.005 2.084-.505 2.687-4.491 3.243-5.858 1.45-1.115-1.462.519-3.398 2.39-3.156 1.587.205 1.688 1.793.454 2.126-.78.213-1.246-.35-1.107-.76.161-.474.449-.276.512-.54-.28.041-.635.272-.755.423-.631.791 1.03 1.746 1.995.726.973-1.027-.11-2.491-1.975-2.1-2.73.573-3.052 4.125.217 4.55 2.854.37 4.963-2.115 4.252-3.981.847.764 1.516 1.63 2.663 2.117 1.44.612 3.282.137 4.017-1.045.112-.18.189-.36.246-.537l.003.007c.381-1.034 1.418-2.335 2.91-2.173.752.08 1.461.607 1.423 1.286-.057 1.085-1.665 1.228-1.91.311-.125-.472.45-.766.857-.546.239.13.117.237.372.368.008-.234-.071-.4-.199-.507-.43-.362-1.491.06-1.329.82.235 1.104 2.331.755 2.398-.532.073-1.347-1.936-1.897-3.401-.909zm-22.928 2.621c-.76-.45-.897-1.409-.067-1.854.254.57.3 1.213.067 1.854zm1.979-3.42c2.064.934 1.234 4.01-1.332 3.642a1.854 1.854 0 01-.25-.054 2.544 2.544 0 00-.15-2.145c.616-.146 1.059.292.975.618-.094.358-.33.326-.29.448 1.024-.265.397-1.498-.775-1.222a3.506 3.506 0 00-.5-.631 3.789 3.789 0 00-.953-.69c.931-.426 2.106-.496 3.275.033zm-5.918 2.51c.04-.122-.197-.09-.29-.448-.084-.325.359-.762.974-.619a2.543 2.543 0 00-.148 2.146 1.94 1.94 0 01-.25.054c-2.567.367-3.397-2.708-1.332-3.642 1.167-.529 2.341-.46 3.271-.035-.357.184-.68.416-.95.688a3.508 3.508 0 00-.502.634c-1.17-.274-1.797.957-.772 1.221zm.998-.944c.83.444.694 1.404-.065 1.854a2.439 2.439 0 01.065-1.854zm.706 3.023a3.39 3.39 0 01-.64-.87c1.019-.505 1.227-1.767.063-2.31-.015-.007-.029-.01-.043-.017a3.25 3.25 0 011.35-1.32 3.26 3.26 0 011.352 1.319l-.042.016c-1.164.545-.956 1.807.065 2.313a3.38 3.38 0 01-.641.87 4.054 4.054 0 01-.732.576 4.068 4.068 0 01-.732-.577z" fill="#000"/><path d="M102.161 43.73c.006-.132-.079-.253-.22-.317-.45-.192-1.077.168-1.312.723-.175.415-.076.684.054 1.077l.112-.35c.329-1.016 1.345-.6 1.366-1.133zm-1.255.426c.148-.297.621-.738.938-.596a.213.213 0 01.076.058c.279.338-.656.232-1.119.865a1 1 0 01.105-.327zm-1.306.074c.3.069.618.28.841.747-.033-.368-.036-.703-.241-1.04-.137-.22-.434-.474-.725-.517-.595-.087-.95.57.126.81zm-.33-.58a.16.16 0 01.053-.041c.251-.122.666.257.799.62a1.762 1.762 0 00-.56-.3c-.15-.056-.396-.14-.291-.278zm-5.134 3.555l-.287-.203c.236.56.274.983.114 1.596-.09.343.17.615.5.613.721-.006.906-1.133-.327-2.006zm.233 1.664c-.306-.192.117-.525-.1-1.334.106.09.2.183.284.282.664.796.181 1.283-.184 1.052zM80.72 50.816c.379.51 1.578-.076 1.848-1.396l.063-.309c-.46.457-.734.727-1.451.93-.401.114-.633.542-.46.775zm1.427-.784c-.479.88-1.234.791-1.184.412.043-.317.603-.189 1.329-.76a1.92 1.92 0 01-.145.348zm1.923-3.445c.404-.463.754-.584 1.352-.798-.389-.04-.746-.087-1.136-.042-.252.03-.506.08-.734.212-1.055.617-.129 1.368.518.628zm.596-.69c-.734.362-.753.775-1.075.726-.46-.068-.186-.744 1.075-.725zm-32.648-2.483c-.142.063-.227.185-.221.318.022.533 1.038.116 1.366 1.132l.114.35c.127-.393.227-.662.052-1.076-.234-.556-.862-.917-1.31-.724zm.02.205a.215.215 0 01.077-.058c.316-.143.79.3.938.595.052.103.088.214.105.328-.464-.633-1.4-.526-1.12-.865zm2.444-.198c-.29.043-.588.297-.724.518-.205.336-.208.67-.24 1.04.222-.467.54-.68.84-.747 1.076-.24.72-.897.124-.81zm.206.23c.105.14-.141.223-.292.28a1.772 1.772 0 00-.56.3c.133-.364.548-.743.8-.62.02.01.039.024.051.04zm5.134 3.554c-1.231.875-1.049 2-.327 2.006.33.003.59-.268.5-.612-.159-.612-.122-1.035.114-1.596l-.287.202zm-.234 1.665c-.365.23-.847-.257-.183-1.052.084-.1.178-.192.285-.282-.218.809.204 1.142-.102 1.334zm13.191 1.172c-.718-.203-.992-.473-1.45-.929l.062.308c.27 1.32 1.468 1.907 1.85 1.396.171-.233-.06-.66-.462-.775zm-.967-.009a2.118 2.118 0 01-.146-.349c.727.573 1.288.445 1.33.762.048.378-.705.466-1.184-.413zm-1.406-4.073c-.226-.132-.482-.183-.734-.212-.39-.045-.747.002-1.136.043.598.213.949.335 1.352.797.647.74 1.573-.01.518-.627zm-.04.664c-.32.049-.34-.364-1.075-.726 1.262-.018 1.536.657 1.074.726zM27.776 19.12a.825.825 0 00.428.753c.871.454 2.085-.4 2.54-1.714.34-.983.147-1.62-.103-2.55l-.218.83c-.637 2.404-2.605 1.418-2.647 2.682zm2.432-1.007a3.193 3.193 0 01-.786 1.095 2.09 2.09 0 01-.262.203 1.104 1.104 0 01-.398.168.589.589 0 01-.253-.008.445.445 0 01-.265-.185.681.681 0 01-.075-.139.329.329 0 01-.024-.118c0-.073.03-.134.084-.19.081-.085.216-.157.383-.235.112-.052.238-.107.371-.17a5.05 5.05 0 00.42-.219c.36-.212.73-.51 1.01-.978a2.835 2.835 0 01-.205.776zm.902-1.946c.062.872.067 1.666.466 2.464.265.522.84 1.124 1.403 1.224 1.153.206 1.843-1.348-.242-1.92-.582-.16-1.196-.663-1.628-1.768zm2.266 3.142a.323.323 0 01-.102.1c-.486.288-1.289-.608-1.548-1.471.158.162.325.294.504.408.18.114.373.21.58.304.292.133.768.33.566.659zm9.948-8.417l.556.48c-.459-1.328-.53-2.33-.22-3.782.171-.813-.33-1.456-.97-1.45-1.398.012-1.755 2.68.634 4.752zm-.452-3.943c.592.456-.227 1.242.194 3.16a5.362 5.362 0 01-.55-.669c-1.286-1.884-.351-3.039.356-2.491zM68.424 4.17c.776-.268 1.226-1.281.892-1.833-.736-1.209-3.059.179-3.582 3.307l-.122.73c.891-1.082 1.42-1.72 2.812-2.204zm-1.874.024c.928-2.083 2.39-1.874 2.294-.976-.083.75-1.168.446-2.575 1.801a5.11 5.11 0 01.28-.825zm-3.726 8.159c-.783 1.097-1.46 1.385-2.619 1.891.753.093 1.446.206 2.2.1.488-.07.982-.19 1.423-.503 2.044-1.46.249-3.24-1.005-1.488zm-1.155 1.634c1.422-.856 1.458-1.834 2.082-1.719.893.162.36 1.764-2.082 1.719zm61.862 2.452l-.218-.83c-.25.93-.443 1.567-.103 2.55.455 1.315 1.669 2.168 2.54 1.714a.826.826 0 00.428-.752c-.042-1.264-2.01-.277-2.647-2.682zm2.18 2.947a.446.446 0 01-.147.139v-.001a.532.532 0 01-.119.047.587.587 0 01-.252.008 1.1 1.1 0 01-.398-.168 2.155 2.155 0 01-.263-.202 3.194 3.194 0 01-.786-1.095 2.81 2.81 0 01-.204-.776c.898 1.499 2.708 1.247 2.169 2.048zm-4.494-1.45c-2.085.57-1.395 2.125-.242 1.92.563-.1 1.138-.703 1.403-1.225.399-.798.404-1.592.466-2.464-.431 1.105-1.045 1.608-1.627 1.769zm1.011.002a2.987 2.987 0 01-.58 1.05 2.024 2.024 0 01-.291.278c-.066.05-.132.093-.197.125a.709.709 0 01-.193.066.49.49 0 01-.193-.008.377.377 0 01-.095-.04.35.35 0 01-.102-.1c-.076-.123-.056-.228.013-.318a.735.735 0 01.192-.16 1.98 1.98 0 01.183-.099c.062-.03.123-.057.178-.082.417-.187.77-.387 1.085-.712zm-11.598-7.046c2.389-2.071 2.032-4.74.634-4.753-.64-.005-1.141.638-.97 1.451.311 1.451.239 2.454-.22 3.782l.556-.48zm.452-3.943c.177-.137.368-.168.535-.107.334.122.572.608.408 1.337-.041.182-.107.38-.203.59a4.574 4.574 0 01-.383.671 5.338 5.338 0 01-.551.668c.421-1.917-.398-2.703.194-3.16zM85.53 4.17c1.391.484 1.921 1.122 2.812 2.204l-.122-.73c-.523-3.128-2.846-4.516-3.582-3.307-.334.552.116 1.565.892 1.833zm1.874.024a5.1 5.1 0 01.281.825 4.98 4.98 0 00-1.604-1.053c-.56-.238-.924-.326-.97-.748-.097-.898 1.365-1.107 2.293.976zm2.722 9.647c.44.314.935.433 1.423.503.754.106 1.447-.007 2.2-.1-1.158-.506-1.837-.794-2.619-1.89-1.253-1.753-3.048.027-1.004 1.487zm.077-1.573c.624-.115.66.863 2.082 1.719-2.443.045-2.975-1.557-2.082-1.719zM74.305 8.85c-.13.004-.252.032-.37.075a.773.773 0 00-.299.205c-.085.092-.13.223-.14.39a.73.73 0 00.089.424.822.822 0 00.266.283c.107.072.227.122.354.155.13.034.25.054.361.06l.09-1.59a3.528 3.528 0 00-.352-.003zm1.904.255a.33.33 0 00.049-.123c.002-.033.006-.093.015-.183.007-.09.018-.186.027-.29.01-.101.024-.197.031-.289l.016-.18a.818.818 0 00-.264.024c-.084.02-.17.04-.256.066a6.881 6.881 0 01-.253.066.8.8 0 01-.252.025.4.4 0 01.118-.279c.076-.07.16-.133.263-.19a5.54 5.54 0 00.301-.17.734.734 0 00.246-.226c.005-.09.007-.223.01-.393 0-.172.01-.382.024-.633a78.553 78.553 0 01.073-1.216 3.96 3.96 0 01.073-.426c.034-.142.08-.272.137-.388a.946.946 0 01.226-.29.526.526 0 01.34-.127c.03.001.08-.002.157-.006a5.09 5.09 0 00.242-.021c.087-.008.17-.015.244-.024l.166-.019c0-.025.005-.076.015-.15l.019-.138a.645.645 0 00-.07-.367.54.54 0 00-.217-.21.977.977 0 00-.308-.107 3.723 3.723 0 00-.337-.038 1.305 1.305 0 00-.73.152c-.214.115-.4.273-.563.47a2.823 2.823 0 00-.412.691c-.112.265-.155.468-.224.74-.054.269-.07.458-.094.729l-.028.41-.014.26-.044.946a5.35 5.35 0 00-.002.538c.01.184.028.38.056.59.21.12.403.229.594.38.191.147.387.334.562.498a.408.408 0 00.064-.102zm-.484.427a1.098 1.098 0 00-.339-.374 5.69 5.69 0 00-.43-.251l-.083 1.474c.144-.144.287-.29.46-.4.148-.093.313-.155.474-.227.002-.012-.003-.033-.022-.084-.028-.059-.044-.104-.06-.138zm6.028 1.146c-.253.261-.362.424-.42.595-.072.204-.044.392.331.386.408-.007.504-.037.874-.207.505-.28.642-.399.824-.701.12-.2.181-.364.195-.595a1.068 1.068 0 00-.056-.385c-.025-.107-.071-.186-.103-.208-.094.009-.165.064-.478.244-.17.098-.795.489-1.167.871z" fill="#000"/><path d="M29.23 16.668c.862-.71 1.538-1.663 1.998-2.627.196 2.745 2.477 4.872 5.258 4.582a4.717 4.717 0 002.719-1.247l.003.007c1.77-2.129 4.472-2.041 5.29-.713.678 1.105-.481 2.176-1.432 1.745-1.019-.468-.568-1.196-.05-1.451.532-.264 1.152-.053 1.152-.053-.763-.958-2.042-.181-1.91.928.171 1.422 2.29 1.159 2.852-.037.95-2.026-2.142-3.649-4.804-1.919.63-1.326.585-2.856-.51-3.95-2.508-2.499-6.6.596-4.746 3.44 1.493 2.283 4.971.107 3.944-1.73-.396-.713-1.411-.81-2.033-.075.325.155.5-.14.7-.164 1.117-.14 1.396 1.524.287 2.265-1.447.963-3.142-.384-2.979-2.015.042-.42.221-.802.483-1.114 1.419-1.67 4.16-.597 4.574 1.566.2 1.043-.167 2.028-.86 2.776-.012.014-.023.023-.034.037-1.175 1.236-3.248 1.8-5.104.844-4.593-2.366-2.16-10.113 3.275-9.244 4.02.641 5.952 5.414 9.287 7.618 3.745 2.476 7.197 2.483 10.242.71l.008.01c1.676-1.152 3.257-1.534 4.523-1.447 2.393.162 3.308 1.915 2.542 2.825v.001c-.28.334-.775.416-1.168.257-.821-.33-.531-1.35.038-1.505.663-.183.524.293.98-.03-.538-.556-1.423-.515-1.747.173-.879 1.864 1.856 2.47 2.51.871.958-2.345-1.955-4.018-5.648-2.65 1.188-1.067 2.3-2.419 3.33-4.01 1.099-1.702 1.832-2.732 3.293-3.963 1.677-1.407 3.614-2.285 5.539-2.511l-.955.965c-1.126 1.14-2.253 2.278-3.38 3.416a2.723 2.723 0 00-.78 1.918 2.724 2.724 0 00.78 1.917l.592.598c-.284 2.008.411 4.164 2.334 5.23a7.005 7.005 0 003.71.88c.577.582 1.154 1.165 1.73 1.749.513.518 1.186.78 1.86.79h.073a2.655 2.655 0 001.858-.79l1.733-1.75a7.008 7.008 0 003.744-.88c1.933-1.07 2.624-3.243 2.329-5.26l.56-.567a2.75 2.75 0 000-3.835l-4.34-4.387c1.94.22 3.892 1.1 5.581 2.517 1.462 1.231 2.195 2.261 3.294 3.964 1.029 1.59 2.141 2.942 3.33 4.01-3.693-1.368-6.606.304-5.648 2.65.653 1.598 3.388.992 2.51-.872-.325-.688-1.21-.728-1.747-.173.456.324.317-.152.98.03.569.155.859 1.174.037 1.506-.393.158-.888.076-1.167-.257v-.002c-.766-.91.149-2.663 2.541-2.825 1.266-.087 2.847.295 4.523 1.447l.008-.01c3.046 1.773 6.497 1.767 10.242-.71 3.336-2.204 5.267-6.977 9.287-7.618 5.434-.87 7.868 6.879 3.276 9.244-1.857.956-3.93.392-5.104-.844l-.035-.036c-.693-.748-1.06-1.734-.86-2.777.415-2.162 3.156-3.235 4.574-1.566.262.313.442.695.483 1.114.163 1.632-1.531 2.978-2.978 2.015-1.109-.74-.831-2.404.286-2.265.201.025.376.32.701.164-.622-.735-1.637-.638-2.033.076-1.028 1.836 2.45 4.012 3.944 1.73 1.854-2.845-2.239-5.94-4.747-3.44-1.095 1.093-1.139 2.624-.509 3.95-2.663-1.73-5.755-.108-4.804 1.918.562 1.196 2.68 1.46 2.853.037.13-1.11-1.148-1.885-1.912-.928 0 0 .621-.211 1.152.053.519.255.969.983-.05 1.451-.95.432-2.11-.64-1.432-1.745.819-1.328 3.52-1.416 5.291.713l.002-.007a4.72 4.72 0 002.72 1.247c2.78.29 5.062-1.836 5.257-4.582.46.965 1.137 1.917 1.998 2.627 2.838 2.34 6.729 1.037 6.589-2.154-.13-3.048-4.19-3.876-4.646-1.263-.313 1.8 1.742 2.802 2.576 1.944.247-.253.4-.645.385-1.2-.494.31-.258.565-.721.87-.789.523-1.903-.174-1.66-1.293.475-2.171 3.59-1.833 3.701.737.072 1.61-1.3 2.856-2.758 3.047-2.89.384-4.898-2.7-5.637-5.148l-.006.018a6.28 6.28 0 00-.477-1.273c-1.424-2.799-4.992-3.926-7.781-2.476-2.223 1.155-3.519 3.206-5.16 5.016 1.377-4.422-2.708-10.305-8.236-9.429-6.334 1.005-5.71 9.42-.421 10.778 3.613.925 5.711-2.544 3.825-4.976-1.869-2.416-5.087-.154-3.864 1.719.233.358.921.905 1.464 1-.123-.621-.681-.155-.992-1.276-.271-.972.631-2.304 2.143-1.802 2.39.79 2.195 4.552-.878 5.036-3.626.575-6.79-4.013-4.63-7.475 2.647-4.247 10.37-2.93 11.346 3.435.299 1.954-.427 3.626-1.946 4.938-.067.044-.123.098-.191.142-6.115 3.89-11.077 1.311-14.92-4.87a16.73 16.73 0 00-.773-1.127l.003-.003c-1.085-1.53-2.31-3.395-1.386-5.203.932-1.828 3.928-1.725 4.794.313 1.038 2.446-2.453 3.972-3.253 1.874-.387-1.02.408-1.736 1.14-1.69.835.056.68.365 1.11.247-.935-1.447-3.444-.645-2.715 1.458.962 2.76 5.33.885 4.078-2.046-1.126-2.642-4.629-2.724-5.715-.592-.63 1.232-.302 2.558.318 3.785-1.845-1.826-4.107-3.18-6.51-3.497a8.813 8.813 0 00-.725-.063A37145.24 37145.24 0 0178.855.79 2.657 2.657 0 0076.96 0c-.687 0-1.375.264-1.896.791L71.722 4.17a8.827 8.827 0 00-.688.063c-2.403.316-4.665 1.671-6.51 3.497.62-1.227.948-2.553.318-3.785-1.086-2.132-4.589-2.05-5.715.592-1.251 2.93 3.116 4.806 4.078 2.046.73-2.103-1.78-2.905-2.715-1.458.43.118.275-.191 1.11-.247.732-.046 1.527.67 1.14 1.69-.8 2.098-4.291.572-3.253-1.874.866-2.038 3.862-2.141 4.795-.313.924 1.808-.301 3.674-1.387 5.203l.004.003a16.73 16.73 0 00-.773 1.128c-3.844 6.18-8.806 8.76-14.92 4.869-.069-.044-.125-.098-.192-.142-1.52-1.312-2.245-2.984-1.946-4.938.977-6.365 8.699-7.682 11.347-3.435 2.16 3.462-1.005 8.05-4.63 7.475-3.073-.484-3.269-4.246-.88-5.036 1.514-.502 2.415.83 2.145 1.802-.312 1.121-.87.655-.993 1.277.543-.096 1.231-.643 1.464-1.001 1.223-1.873-1.994-4.135-3.864-1.72-1.886 2.433.212 5.902 3.825 4.977 5.29-1.358 5.913-9.773-.42-10.778-5.529-.876-9.613 5.007-8.237 9.43-1.641-1.81-2.937-3.862-5.16-5.017-2.789-1.45-6.357-.323-7.78 2.476a6.26 6.26 0 00-.477 1.273l-.007-.018c-.738 2.448-2.747 5.532-5.637 5.148-1.458-.191-2.83-1.438-2.758-3.047.111-2.57 3.226-2.908 3.7-.737.244 1.12-.87 1.816-1.659 1.294-.463-.306-.227-.561-.72-.871-.016.555.137.947.384 1.2.834.858 2.89-.144 2.576-1.944-.456-2.613-4.516-1.785-4.646 1.263-.14 3.19 3.752 4.493 6.59 2.154zm43.762 2.779c-1.027-.018-2.103-.291-3.177-.886-1.04-.576-1.699-1.496-2.019-2.526a5.311 5.311 0 01-.21-2.052h.001l5.405 5.464zm1.754.855l-7.256-7.338-.084-.112a3.225 3.225 0 01-.144-.245 1.841 1.841 0 01-.116-.268 1.013 1.013 0 01-.054-.274.593.593 0 01.043-.258c-.12.782.62 1.292 1.067 1.745l7.048 7.127.083.08a2.894 2.894 0 01-.587-.457zm1.145-10.18a8.128 8.128 0 01-.272.145 6.332 6.332 0 00-.69.409.625.625 0 00-.182.187l-.007.011a7.56 7.56 0 01-.3.575c-.044.056-.403.709-.434.757a4.65 4.65 0 01-.842 1.02 3.09 3.09 0 01-1.061.632c-.3.105-.638.163-1.018.172-.126.003-.257 0-.393-.007-.41-.024-.8-.11-1.166-.256a2.793 2.793 0 01-.95-.624 2.626 2.626 0 01-.613-.987c-.142-.393-.21-.9-.18-1.423.02-.372.076-.684.196-1.014.118-.328.274-.588.478-.828.203-.242.458-.46.753-.568a1.779 1.779 0 01.678-.17 2.159 2.159 0 01.803.105c.193.061.366.147.523.263.156.114.28.26.373.436.094.178.133.388.12.633-.014.231-.076.44-.191.628a1.833 1.833 0 01-1.48.871 1.477 1.477 0 01-.58-.1c-.239-.094-.414-.433-.314-.683a.31.31 0 01.083-.127.14.14 0 01.1-.033.375.375 0 01.185.083c.106.076.212.186.297.239a.677.677 0 00.337.095c.227.007.471-.076.68-.196a1.55 1.55 0 00.324-.247.448.448 0 00.108-.184 1.21 1.21 0 00.049-.23l.013-.207a.898.898 0 00-.101-.5 1.039 1.039 0 00-.445-.422 1.76 1.76 0 00-.144-.065c-.045-.018-.088-.038-.136-.052-.046-.013-.091-.022-.137-.033a1.499 1.499 0 00-1.09.126c-.246.132-.46.31-.643.539a2.84 2.84 0 00-.44.776c-.106.291-.17.593-.187.9a3 3 0 00.155 1.186c.127.36.31.672.546.937.237.268.515.475.835.628a2.656 2.656 0 00.808.242 3.365 3.365 0 001.467-.134c.392-.129.754-.32 1.084-.576.33-.255.627-.568.887-.94a5.85 5.85 0 00.665-1.26c-.09-.036-.177-.078-.264-.118-.056-.025-.113-.048-.169-.075-.03-.015-.057-.033-.085-.05a1.583 1.583 0 01-.254-.175c-.012-.011-.027-.02-.04-.03-.11-.1-.197-.22-.259-.364a1.157 1.157 0 01-.074-.53 1.08 1.08 0 01.145-.522c.085-.131.193-.244.325-.332.13-.09.274-.16.435-.208a8.44 8.44 0 01.485-.135l.003-.06a8.93 8.93 0 00.014-.602l-.01-.571a110.06 110.06 0 01-.01-.563 7.803 7.803 0 01.016-.607c.013-.236.04-.492.085-.768.048-.275.115-.544.198-.812a5.35 5.35 0 01.316-.766 2.86 2.86 0 01.44-.638c.166-.178.355-.322.568-.426a1.35 1.35 0 01.52-.134 1.504 1.504 0 01.629.093c.144.055.266.132.378.23.106.1.194.223.26.364.065.144.093.306.083.484-.013.225-.046.385-.091.48a.376.376 0 01-.174.185.666.666 0 01-.233.062.625.625 0 00-.27.1c-.084.047-.155.138-.22.273a2.631 2.631 0 00-.178.473 8.409 8.409 0 00-.248 1.162c-.026.187-.05.351-.064.5a5.975 5.975 0 00-.03.319l-.017.29.089.016.203.033a.915.915 0 01.292.09.634.634 0 01.218.182.47.47 0 01.076.309c-.004.07-.016.144-.027.226-.013.08-.064.117-.153.112l-.05-.003-.49-.26-.1-.006a6.655 6.655 0 00-.198.715 4.976 4.976 0 00-.1.748c-.005.074.018.208.025.284.017.077.041.154.076.23.076.17.16.34.254.51.094.17.179.345.256.527.075.18.11.373.098.572a.492.492 0 01-.053.21c-.032.05-.093.07-.19.065-.095-.005-.165-.037-.212-.098a1.273 1.273 0 01-.152-.288c-.022-.048-.065-.138-.118-.276a6.508 6.508 0 01-.158-.428c-.056-.154-.105-.295-.152-.43-.05-.137-.08-.233-.144-.303-.008 0-.026 0-.05.004zm.53 11.01a2.598 2.598 0 01-.35-.288c.238.144.495.248.76.311a2.989 2.989 0 01-.41-.024zm3.864-3.292c-.266.188-.75.49-1.553.536-.283.012-.667-.011-.914-.126a2.162 2.162 0 01-.415-.273 3.549 3.549 0 01-.214-.187c-.237-.203-.43-.566-.564-.838-.138-.27-.206-.624-.25-.984-.041-.361-.071-.726.118-1.463.194-.568.368-1.05.617-1.472.25-.42.598-.856.907-1.262.308-.403.617-.72.972-1.081.35-.366.83-.789 1.23-.999.388-.272.728-.371 1.138-.518.41-.147.823-.21 1.242-.186.091-.007.381.014.584.075.174.052.228.076.296.088.06-.025.299-.16.631-.193.228-.023.32 0 .451.059-.162.02-.15-.01-.383.074-.16.057-.289.14-.437.28.069.1.052.072.103.22.056.169.074.261.062.462-.018.327-.117.5-.294.81-.09.212-.739.889-1.275 1.099-.236.093-.37.165-.545.206-.554.133-.896.066-.994-.076-.135-.197.008-.563.021-.599.165-.438.384-.642.588-.904.552-.62 1.037-.89 1.368-1.076.235-.131.332-.184.407-.214a.21.21 0 00-.124-.062c-.527-.102-1.075.06-1.452.216a5.79 5.79 0 00-1.133.656 9.26 9.26 0 00-1.099.962c-.358.364-.67.742-.948 1.132a7.011 7.011 0 00-.68 1.172 7.512 7.512 0 00-.504 1.67c-.01.06-.02.143-.027.254-.01.174-.01.388.001.643.011.257.047.505.105.743.06.239.201.426.324.6.118.174.565.394.793.46.403.076 1.72-.034 2.198-.585.736-.772.03.466-.351.681zm3.855.721c-1.087.601-2.176.874-3.214.886l2.065-2.087 3.373-3.412v.001c.175 1.774-.506 3.66-2.224 4.612zm2.686-6.853a2.839 2.839 0 00-.02-.303c.02.054.04.108.056.163a1.69 1.69 0 01-.036.14zm-12.08-10.22a2.88 2.88 0 014.093 0l7.256 7.338c.477.482.752 1.094.824 1.726a2.818 2.818 0 00-.646-1.02l-7.047-7.127a2.778 2.778 0 00-1.254-.732 2.89 2.89 0 00-2.882.305 2.94 2.94 0 00-.344.297L67.49 9.613a2.931 2.931 0 00-.721 1.22 2.836 2.836 0 00-.097.455 3.022 3.022 0 01.033-.988 2.9 2.9 0 01.784-1.475l7.257-7.337z" fill="#000"/></svg>