<svg width="151" height="54" fill="none" xmlns="http://www.w3.org/2000/svg"><path d="M74.102 46.927c-.057.056-.057.056 0 0zm-1.976-1.852c.057 0 .057 0 0 0zM66.877 34.41c0 .056 0 .056 0 0-.056.056-.113 0-.113 0 .057.056.113 0 .113 0zm-.564 1.122c-.057.056-.113 0-.17.056h-.056.056c.057-.056.113-.056.17-.056.056 0 .056.056 0 0zm-.057-.056c-.056 0-.056 0 0 0zm16.312-.28c.057 0 .057 0 .113.112l-.056-.056c0-.057-.057 0-.057-.057zm.057 0c0 .056.056.056 0 0zm1.016.056c.056 0 .056 0 0 0 .056.056.112.056.112.112.113.112.17.224.283.337-.113-.113-.282-.281-.395-.45zm-3.33-.225c.338.056 1.015.225 1.241.337.282.112.621.056.678.112.112.112.225-.112.282 0 .056.056.225 0 .282.056.113.113.282.113.395.225V35.7l-.113-.113v-.112l-.17-.168c-.056-.056-.168-.056-.168-.113.056.057.112 0 .169.057-.057-.057-.113-.057-.17-.057 0 0 .113-.056.113 0 0 0 0 .057.057.057.056 0 .056.056.056.056l.057.056h.056l.17.168c.056.113.112-.112.169-.056l.17.169c0 .056.056.056.056.112s.056.112.112.168c-.056-.112-.112-.224-.225-.28-.057-.113-.113-.225-.226-.281l.056.056c.057.056.057.112.17.112l.056.056.113.113c.056.056.056.112.113.112.056.056.113.168.17.224l-.17-.336h.056c-.056-.113-.169-.225-.225-.337.056.056.056.112.112.112l.057.056c0 .056.056.056.056.113.113.112.34.168.34.112V35.7s0-.056-.057-.056v-.057c0-.056-.057-.112-.057-.168 0-.056-.056-.056-.056-.112l.113.112c-.17-.28-.395-.561-.565-.786.057 0 .057.056.057.056l-.057-.056a1.151 1.151 0 01-.226-.337l.057.056v-.056c0-.056-.057-.056-.113-.112l-.17-.168-.169-.113c0-.056-.113-.056-.113-.056s-.056 0-.056-.056-.056-.056-.056-.056c-.057 0-.057-.056-.057-.056a.571.571 0 01-.17-.056v-.056c-.056-.057-.056.056-.112 0 0 0-.056-.057-.056-.113-.057-.056-.113-.112-.226-.112l-.847-.28s-.056-.057-.113 0a8.802 8.802 0 00-1.298-.281c-.056 0-1.016-.113-2.314-.113-1.637.057-2.201.057-6.322.842-2.596.506-.903.225-2.71.618h-.056c-.507 0-.96.112-1.467.28-.113 0-.17.057-.282.057-.113 0-.17.056-.282.056 0 .056 0 .056-.057 0 0-.056-.056 0-.056 0s0 .056-.057 0v.056c-.056 0-.056 0-.113.056-.113 0-.169.056-.282.056-.056 0-.056 0-.113.056v.056s.057-.056.057 0h-.057c-.056 0-.113.057-.226.057s-.225.056-.338.056c0 0-.057 0-.057.056h.17c.112 0 .225 0 .338-.056.17-.056.339-.056.508-.056 0 0-.056 0-.056.056h.113c-.226.056-.452.056-.621.112-.113 0-.226.056-.339.056h.057c.056 0 .169-.056.225-.056h.057c.056.056.056 0 .113 0h.113c.056 0 .056.056.056.112 0 0-.056 0-.056.056 0-.056-.057-.056-.057-.056s-.056 0-.056.056v.057c-.113.056-.226.056-.395.112h-.057.057c0 .056.056 0 .056 0h.226c.17 0 .282-.056.451-.056h.113c-.169.056-.282.056-.451.112h-.057.226-.056c-.057 0-.113.056-.17.056h-.056c-.057.056-.057.056-.113.056.113 0 .17 0 .282-.056h.452c-.057 0-.17.056-.226.056h.113c-.057 0-.113 0-.113.056h-.056.056c.056 0 .113-.056.17-.056h.338c-.113 0-.226.056-.282.056-.113 0-.226.056-.339.056h-.056.451-.113c.226-.056.508-.056.734-.112v.056c-.056 0-.113.056-.17.056.057 0 .114 0 .17-.056 0 0 0 .056.056.056-.112.057-.225.057-.282.057.057 0 .17-.056.282-.056.057 0 .113.28.226.28-.113 0-.17.056-.226.056h.17s.17.225.282.225l-.452.224c-.056.056-.169.056-.225.113h-.113v.056h.113c.17-.056 1.242-.169 1.41-.225.057 0 .17-.056.227-.056.169 0 .338-.056.508-.112.169-.056.338-.056.508-.112.056 0 .169 0 .225-.057h.057l.056-.056c.113-.056.79-.168 1.186-.168.451-.056 1.806-.337 1.806-.337h.225c.226 0 1.355-.337 1.524-.393.057-.056.17 0 .283 0-.226.393-.113 0-.226.45-.057.224-.565 1.515-.734 1.852-.056.112-.395 1.347-.395 1.46 0 .28-.62 3.03-.79 4.714-.113 1.235-.282 1.404-.282 1.628v-.111s0-.056.056-.056v.449c-.056 0-.056.056-.056.056v.168s0-.056.056-.056v.056c0 .113-.113.056-.113.169v.561c0 .112.057.112.057.225 0 .392.056.336 0 .73.056-.394.056-.281.112-.618v.28c.057-.112 0-.28.057-.449v.057c.056 0 .056 0 .056-.057v-.28c0 .168.057.337.057.505v-.056.449c0-.112 0-.169.056-.28v-.45.056c0 .169 0 .393.057.562v-.056s0-.057.056-.057v-.056.169c0-.056.057-.169.057-.225v-.056s0 .056.056.056c0 .225-.056.393-.056.618 0-.113.056-.225.056-.337 0-.113 0-.169.056-.28v.055c0 .169-.056.337-.056.505h.056c.057.281 0 .337 0 .169 0 .112.057.112.057 0 0-.28.056-.28.056-.505.057.056.283.056.339.112v.056c0 .168.17.561.17.393v-.056c.056-.169.112-.28.112-.45.057.17 0 .338.057.506 0-.056.056-.112.056-.168v-.281c0-.056 0-.056.056-.112v.168h.057s-.056 0-.056.056v.056c.056 0 0 .056 0 .056v.113c.056-.056 0-.169.056-.281v-.561.168c0 .28.62.45.564.73 0 0 .057-.562.113-.898.057.168.057.28.057.449 0-.113 0-.225.056-.337 0-.225 0-.45.057-.674 0-.28 0-.505.056-.785.056-.113.056-.225.056-.337-.056-.562.283-1.46.283-2.021 0-.112.846-3.985.96-4.21.112-.337.112-.45.394-1.067.508-1.122.113-.617.678-1.684.282-.505 0-.392.338-.842.057-.056.113-.112.057-.168 0-.112.056-.28.113-.393a.948.948 0 01.677-.056c.282.337 1.242.28 1.976.449z" fill="#A92832"/><path d="M80.988 35.869c0-.056 0-.056 0 0zm8.861 1.179c0-.056 0-.056.057-.112l.056-.057c-.056-.112-.113-.168-.17-.28v-.056h.057v-.056h.057c0 .056.056.056.113.056 0-.056-.057-.056-.057-.113 0-.056-.056-.056-.056-.112s0-.112-.113-.056c-.056 0-.056-.168-.113-.168.113 0 .226.112-.056-.169l-.17-.168s0-.056-.056-.056l-.17-.169c-.056-.056-.112-.056-.169-.112-.226-.112-1.185-.617-2.145-.45-1.072.17-2.2 1.067-2.37 1.236-.17.168-.734.673-.847.73-.17.056-.734.673-.79.785-.677.955-.452.113-.395 0 .17-.392-.057 0 .282-.505.226-.393.056-.112.282-.561.17-.393-.113-.674-.395-.786l-.056-.056h-.17c-.056 0-.112-.056-.169-.056h-.056c-.057 0-.057-.056-.113-.056h-.113c-.057 0-.452 0-.508.056h-.113c.056-.056.056-.169.113-.225v-.056c-.057 0-.113.056-.113.056v.056c0 .056-.056.056-.056.113 0 .056-.057.056-.057.056.056-.056.056-.112.056-.112v-.057c0 .056-.056.056-.056.113v-.056c0-.057.056-.113.056-.169v-.056h-.056v-.112l-.056-.056h-.17c0 .056-.056.056-.056.112-.057.112-.226.393-.395.73a1.33 1.33 0 00-.339.617c-.113.337.056 0-.056.337.169-.393-.057.168 0 0a192.38 192.38 0 00-.903 2.806c-.113.45-.17.786-.226 1.18-.17.673-.282 1.627-.339 1.683 0 .056-.056.169 0 .225 0 .168-.056.337-.113.505-.056.168-.056.337-.056.505 0 .169-.113.337-.057.505.057.45 0 .898-.113 1.348v.505c0 .112 0 .224-.056.337v.336c0-.056.056-.112.056-.168 0-.168.057-.337.057-.45v-.055c0 .112.056.168.113.28v.057c0 .168 0 .336-.057.505v.056c0 .056-.056.168 0 .224v-.056c.057-.056.057-.112.057-.168 0 0 0-.056.056-.056 0 0 .057 0 .057-.056 0-.113.056-.225.056-.337h.056v.112c.057.056 0 .112 0 .112v.113c.057.112 0 .168-.056.28v.056c-.056 0-.056.057-.056.113v.056c-.057.056.056 0 .056.056 0 0 .17-.168.282-.337 0 .056.057.056.057.112l.056-.056c0 .056 0 .113.057.113v-.674.112c.056 0 .056.056.056.056v.506c0-.057.056-.057.056-.113 0 0 .057 0 .057.056 0 .057 0 .113.056 0 0 0 .057 0 .057.057 0 0 .056 0 .056-.057v.113h.113v-.337c0-.056 0-.169.057-.225h.056v.225c0 .056 0 .168.056.224h.057s.056 0 .056.057c0-.057 0-.057.057-.113v.056c-.057.057.056-.056.056-.112 0 0 0-.056.057-.056v-.056c0-.112 0-.112.056-.225v.449l.057-.056c0-.056.056-.168.056-.224v-.169c0-.112.056-.224.113-.336v-.113c.056-.056.056-.168.113-.224.056.056.056.056 0 .056 0 .056 0 .056-.057.112 0 .056.113.393.113.45l.113.111h.113c.113-.056.282-.224.339-.28l.056-.056c.057-.113.17-.169.17-.281 0-.056 0-.168.056-.224 0-.057 0-.057.056-.113 0-.056.057-.056.057-.112v.056c.056-.056.056-.168.056-.28v-.113c.113-.393.057-.842.113-1.235.113-.786.565-2.133.677-2.357.34-.505.34-.674.508-1.123.396-.674 3.274-3.817 3.895-4.042.734-.28 1.185-.112 1.185-.112.057.056.057.112.057.169.113.168.508.392.508.392.056.057.056-.056 0-.168.056.056.113.056.17.112.112.056.168.113.225.169h.056c0-.056-.056-.056-.056-.113h.056l.057.057h.056s0-.056-.056-.056c.056-.057.113-.057.17 0v-.057c.055 0 .055 0 .055.056 0 .057.057.057.113 0 .057 0 .057-.056.057 0h.056v-.056h-.056c.056 0 .056-.056.113-.056.056-.056.113-.112.113-.168v-.169c.056 0 .056-.056.056-.056s.056 0 .056.056c0 .057.057.057.113.169-.056-.056 0-.056 0-.112 0 0 0-.057.057-.057 0 0 0-.056.056-.056.057-.056-.225.393-.225.337m28.334 1.291c-.282.393-.282.842-.508 1.235-.169.337-.452.73-.677 1.067-.395.56-.508 1.066-.96 1.627-.282.393-1.298 1.572-1.58 1.909-.226.28-.565-.056-.621-.056-.17.056-.339-.169-.339-.337.057-.505-.056-.393.057-.898.056-.28.169-.505.282-.786.056-.225.113-.449.226-.674.112-.336.169-.617.395-.898.056-.056.056-.112.113-.224.225-.505.508-1.01.79-1.516.113-.224.282-.393.451-.561 0-.056.057-.056.113-.112.621-.955.508-.898 1.411-1.684.282-.225.282-.281.621-.281.226 0 .339-.112.452.168.056.113.113.393.169.73 0 .056 0 .618-.113.842-.282.28-.113.28-.282.45zm-26.077 1.123c.452-.73.79-1.46 1.355-2.077.17-.169.282-.225.451-.393.057-.056.226-.112.34-.056.338.168.62.673.168 1.515-.395.898-1.298 1.628-2.088 2.19-.62.392-.79-.337-.226-1.18zm36.293-19.534v-.113c0-.112.057-.168.057-.28v-.057s0 .057-.057.113v-.169l-.056.056c-.057-.056-.057-.112-.057-.112s-.056 0-.056.056v-.056c.056-.056 0-.056-.057-.112-.056 0-.056-.056-.056-.056v-.112c.056-.113-.057.056-.057.056v.056c-.056 0-.056-.056-.112-.056 0 0-.17.056-.339-.056-.057-.057-.113-.45-.169-.337-.057.112-.283.112-.283.168-.056 0-.056.056-.056.056l-.057.056-.056-.056v-.056c0-.056.056-.056.056-.112 0 0 0-.056-.056-.056h-.282c-.057-.056-.057-.056-.057 0-.056.112-.113.168-.169.28v-.056l-.056.056c-.057-.056 0-.056 0-.056.056-.056.056-.056 0-.112 0 .056-.057.056-.057.112s-.056.056-.056.113c0 .056-.057.056 0 .112 0 .056-.113.112-.113.168-.057 0-.057.056-.057.112h-.056v.057h-.056c.056.056.056.056 0 .056-.057 0-.057.056-.057.112v.056c-.113.169-.226.393-.339.561-.056.057-2.427 6.456-2.427 6.568-.056.28-.846 2.47-.959 2.75-.113.393-.113.786-.339 1.123-.169.337-.113.28-.169.45-.113.224-.169.392-.226.729 0 .168-.113.449-.113.561-.056.393-.169.505-.169.898 0 .113-.339.842-.339 1.01 0 .17-.169.225-.282.113-.056-.056-.169-.112-.226-.224-.169-.169-1.242-.562-1.467-.562a6.572 6.572 0 00-1.807-.056c-.451.056-1.241.393-1.693.674-.113.056-.282.224-.395.28-.113.056-.734.786-1.016 1.01-.169.113-1.016 1.797-1.129 2.022-.169.28-.282.56-.451.842-.113.224-.903 2.301-1.016 2.582-.113.224-.226.617-.339.954-.113.168-.621.73-.734.842-.508.449-1.185.561-1.862.898-.339.225-.452.169-.565-.224-.056-.113-.056-.281-.056-.393-.113-.674-.057-1.404 0-2.077.056-.562.113-1.123.226-1.684.225-.955.395-1.909.62-2.863.057-.337 0-.505-.338-.674-.113-.056-.282-.112-.395-.168-.395-.169-1.129.449-1.524.561-.621.225-1.016.674-1.468 1.01-.395.337-.79.786-1.129 1.123-.113.113-.225.225-.282.337-.395.561-.734 1.179-1.298 1.684a1.226 1.226 0 00-.169.28c-.226.337-.452.618-.678.955 0 .056-.113.056-.169.056 0-.056-.056-.112 0-.112.169-.562.282-1.067.452-1.628.169-.561.395-1.066.564-1.628.226-.673.903-2.301 1.185-2.975.226-.449.395-.898.565-1.403v-.056c.056-.225.169-.45.225-.618v-.393c-.056 0-.056 0 0 0 .057 0 .057 0 0 0v-.224h-.056v-.113c0-.056.056-.112.056-.168v-.056.056c0 .056-.056.112-.056.112a.42.42 0 01-.113.225v-.112c-.056 0 0 .056-.056.056 0-.113.056-.169.056-.281 0-.056.057-.112.057-.168 0 .056 0 .056-.057.112-.056 0 0 0-.056.056 0 0 0 .056-.057.056-.056 0-.056 0-.113-.056v-.056h.057v-.225.056l-.057.057c0 .056-.056.112-.056.168 0 0 0 .056-.057.056 0-.056.057-.112.057-.224v-.056c-.057 0-.057.056-.057.056v-.113c0-.056-.056-.056 0-.056 0 .056-.056.056-.056.112 0 0 0 .057-.056.057 0 0-.508-.169-.508-.113 0 .056-.057.056-.057.113v-.113h-.056l-.057.056c0 .057-.056 0-.056.057 0-.056 0-.113.056-.169 0-.056.057-.112.057-.112v-.056c-.057.056-.057.112-.113.168v-.056l-.169.337v.056h-.057v.112c0-.056.057-.28.057-.28 0 .056-.057.336-.113.393v.112c-.057 0-.057.056-.113.056.056-.225.169-.561.169-.561-.056 0-.056.056-.056.056 0 .056-.113.337-.226.617v-.337c0 .057-.169.393-.169.45-.17.112-.113.28-.17.449-.056.112-.113.168-.113.28-.169.393-.395.842-.564 1.235-.226.562-.79 2.021-1.016 2.526-.395.786-.508 1.628-.903 2.414 0 .056 0 .056-.057.112-.056.056-.056.112-.113.169-.282.336-1.298 1.234-1.58 1.515-.508.561-1.072.618-1.524 1.179-.226.224-.62.28-.847.505-.564.618-1.072 1.235-1.862 1.628-.508.224-.847.168-1.411.28-.282.057-.621-.112-.621-.392-.056-.505-.113-.955.113-1.404.17-.336.508-.449.846-.505.226-.056 1.863-.449 2.032-.617.79-.562 1.637-.955 2.314-2.077.396-.842 1.073-1.628 1.186-2.638.056-.506 0-1.46-.17-1.965-.451-1.067-3.33-2.133-4.176-1.516-.339.281-1.355 1.01-1.58 1.516 0 .056-.057.056-.057.056-.847.954-1.298 2.19-1.863 3.312-.395.786-.734 1.572-.96 2.414-.225.842-.45 1.684-.338 2.582 0 .168.17 1.066.17 1.122.056.225.169.45.169.618 0 .28.451.954.62 1.122.565.393 1.186.674 1.92.73.846.056 1.467 0 2.257-.224.057 0 .34-.169.395-.169.509-.393 1.017-.505 1.468-.954.452-.449 1.129-.617 1.355-1.235.056-.112.282-.224.338-.28.113-.113.96-1.011 1.073-1.123.056-.056.056-.056.113-.056 0 .056.056.112.056.112 0 .449-.226.898-.226 1.403s-.17 1.123-.113 1.628c0 .168 0 .28.113.337v.168s0-.056.057-.112v.168l.056-.056c.057.056.452 0 .452.056 0 0 .056 0 .056-.056v.056c-.056.057 0 .057.057.113.056 0 .056.056.056.056.056 0 .056.056.113.056.056.056.113.056.17.056.056 0 .169-.056.169-.056h.112c.057 0 .17.056.17.112v.056c0 .056-.057.056-.057.113 0 0 0 .056.057.056h.056l.113-.056c.057 0 .226.112.226.112h.113c.056.056.056.056.056 0 .057-.112.113-.168.113-.28 0 .055.057.111.057.111h.056v.057s0-.056.056-.056c.17-.057.396-.45.396-.45 0-.056.225-.73.225-.73l.17-.448c0-.056.169-.169.225-.225.508-.73.396-.393.904-1.123.677-.898 1.185-1.908 1.975-2.75.056-.056.056-.112.113-.169.113-.336.451-.56.677-.842.057-.056.113-.056.17-.056 0 .056.056.113.056.169 0 .112 0 .168-.056.28-.057.506.056.506.056.955-.056.842.113 1.01.226 1.908.226 1.179 1.185 2.695 2.427 2.975.564.113 1.072.056 1.524-.28.338-.281.677-.562 1.072-.842.113-.113.847-.393 1.016-.45.113 0 .395.337.508.45.057.056.226.224.282.336.17.337.621.45.903.506.17 0 .339.168.508.224.339.112 1.129.225 1.468.112.282-.112.621-.224.847-.505.338-.393.733-.73 1.072-1.122l.677-.842c.057-.113.17-.169.226-.281.395-.561.395-1.123.79-1.684.113-.112.113-.337.226-.45.169-.111.113-.28.169-.504.057-.169 0-.337.226-.393v.617c0 .056-.056.112-.056.169-.057.393 0 .393-.057 1.852l-.056.393v.673c.056-.056.056-.112.056-.224 0 .112.057.168.057.224 0 .393.056.73.056 1.123 0 .112 0 .225.057.393.056.225.056.393.113.618 0 .168.056.336.056.449.056.28.056.505.113.785v-.449c.056 0 0-.056 0-.056 0-.112-.057-.224-.057-.337 0-.112-.056-.224 0-.392 0 .112 0 .168.057.28v-.28c0 .056.056.056 0 .112v.056c.056.056.056.112.056.168 0 .056 0 .113.057.113v.056c0 .112 0 .224.056.337v.393c0 .112 0 .168.113.28v.169c0 .056 0 .168.057.224.056.112.451.337.451.45 0 .168.226.336.226.448 0-.224.056-.393.113-.617h.056v-.618.056c0 .113.057.169.057.281v.281c.056.224.112.393.112.617v.225c0 .112-.056.056-.056.224 0 .169.056.169.056.337v.112c0-.056.057-.112.113-.168 0-.225.057-.056.057-.28 0-.057 0-.057.056-.113v-.786c0-.112 0-.168.057-.28 0-.057 0-.113.056-.169 0 .056 0 .169.057.225V48.05c.056 0 0 .056.056.112v-.112c0-.225 0-.45.056-.618 0 .057 0 .113.057.169l.056-.056v-.955c0-.056 0-.112.057-.168v-.168c0-.169.056-.225-.057-.45-.056-.056.113-.112.113-.168 0-.056.057-.056 0-.112v-.449c.057-.505.17-.954.17-1.46 0-.224 0-.449.112-.617.17-.505.452-2.02.678-2.582.169-.393.395-1.74.451-1.909.057-.168.057-.337.113-.505 0-.112 0-.224.057-.337.169-.673.451-1.29.508-1.964.056-.506.169-.955.282-1.46 0-.056.226-1.066.282-1.515.057-.506.282-1.01.452-1.46.113-.505-.226.73-.057.225.113-.281.621-2.133.96-2.863.056-.112 2.145-6.006 2.201-6.119.056-.168.226-.617.282-.785.057-.169.113-.393.17-.562 0-.056.056-.112.056-.168v-.112c0-.057 0-.113.056-.169 0-.056.057-.112.057-.168-.621-.169-.621-.337-.734-.506zm-79.81 19.59c.451-.73.79-1.46 1.354-2.077.17-.168.282-.224.452-.393.056-.056.226-.112.338-.056.34.168.621.674.17 1.516-.395.898-1.298 1.627-2.089 2.189-.62.337-.79-.337-.225-1.18zm6.49.73c-.338.337-1.298 1.178-1.58 1.515-.508.562-1.072.618-1.524 1.18-.226.224-.62.28-.846.504-.565.618-1.073 1.235-1.863 1.628-.508.225-.847.169-1.411.28-.282.057-.621-.111-.621-.392-.056-.505-.113-.954.113-1.404.17-.336.508-.449.846-.505.226-.056 1.863-.449 2.032-.617.79-.562 1.637-.954 2.315-2.077.395-.842 1.072-1.628 1.185-2.638.056-.506 0-1.46-.17-1.965-.45-1.066-3.33-2.19-4.176-1.516-.339.281-1.355 1.01-1.58 1.516 0 .056-.057.056-.057.056-.847.954-1.298 2.19-1.863 3.312-.395.786-.733 1.572-.96 2.414-.225.842-.45 1.684-.338 2.582 0 .168.17 1.066.17 1.123.056.224.169.449.169.617 0 .28.451.954.62 1.123.565.393 1.186.673 1.92.73.846.056 1.467 0 2.258-.225.056 0 .338-.169.395-.169.508-.393 1.016-.505 1.467-.954.452-.449 1.129-.617 1.355-1.235.056-.112.282-.224.338-.28.113-.113.847-.899 1.016-1.123l.79-3.48zm15.974-.955c0-.056 0-.056 0 0 0-.056 0-.112.056-.168-.056-.056-.056 0 0 0 .057 0 .057 0 0 0l-.056-.056v-.056c0-.056.056-.056.056-.112v-.057l-.056-.056v-.056c0-.056 0-.056.056-.112.057-.056.057-.112.057-.169v-.056.056c0 .056-.057.056-.113.113-.056.056-.056.112-.113.168v-.112c-.056 0-.056.056-.056.056.056-.112.112-.168.112-.28 0-.057.057-.113.057-.113 0 .056-.056.056-.056.112h-.057s0 .056-.056 0c-.057 0-.057 0-.113-.056v-.056h.056v-.112c0-.056.057-.113.057-.169v.056l-.057.057c-.056.056-.056.112-.113.168l-.056.056c.056-.056.056-.112.113-.168v-.056c-.057 0-.057.056-.113.056v-.169c0 .056-.057.056-.057.113h-.056s-.452-.225-.508-.225c0 0-.056.056-.056.112 0-.056.056-.056.056-.112h-.056c-.057 0-.057.056-.057.056 0 .056-.056 0-.056.056 0-.056.056-.112.056-.168 0-.056.056-.056.056-.112v-.056l-.169.168s0-.056.057-.056c-.057.112-.17.224-.226.337v.056h-.057v.056c0-.056.113-.225.113-.28 0 .055-.113.28-.169.336l-.056.056s0 .056-.057.056c-.056 0-.056 0-.113.056.113-.224.282-.505.282-.56-.056 0-.056 0-.056.055 0 .056-.17.337-.339.562 0-.057.057-.169.057-.225v-.112c-.057.056-.226.393-.226.449-.226.056-.17.28-.226.393l-.056.056c-.17.168-.282.674-.339.786a5.928 5.928 0 00-.338.617c-.17.28 0-.056-.113.225l-.452.898c-.113.168-.282.673-.339.842-.846 1.796-1.862 1.74-2.088.898-.056-.112-.056-.28-.056-.393-.113-.674.169-1.403.225-2.245.057-.562 0-1.18-.056-1.74-.113-.842-.621-1.18-.903-1.348-.678-.392-1.637-.392-2.766.786a5.964 5.964 0 00-.508.618c-.395.561-.62 1.122-1.072 1.74-.057.112-.678.954-.734 1.122-.17.337-.96 1.067-1.129 1.404-.113.224-.452.842-.903 1.066-.17.113-.395-.056-.395-.28.056-.505.451-1.74.451-1.797.17-.56.508-1.459.678-1.964.169-.561.395-1.235.564-1.796.226-.674 1.073-2.695 1.411-3.368.226-.45.113-.337.226-.786v-.056c.056-.225.395-.618.452-.842v-.393c-.057 0-.057 0 0 0 .056 0 .056 0 0 0v-.225h-.057v-.112c0-.056.056-.112.056-.169v-.056.056c0 .057-.056.113-.056.113a.424.424 0 01-.113.224v-.112c-.056 0 0 .056-.056.056 0-.112.056-.168.056-.28 0-.057.057-.113.057-.169 0 .056 0 .056-.057.112-.056 0 0 0-.056.056 0 0 0 .057-.057.057-.056 0-.056 0-.113-.057v-.056h.057v-.224.056l-.057.056c0 .056-.056.112-.056.168 0 0 0 .057-.056.057 0-.057.056-.113.056-.225v-.056c-.056 0-.056.056-.056.056v-.112c0-.056-.057-.056 0-.056 0 .056-.057.056-.057.112 0 0 0 .056-.056.056 0 0-.508-.168-.508-.112 0 .056-.057.056-.057.112v-.112h-.056l-.057.056c0 .056-.056 0-.056.056v-.168c0-.056.056-.113.056-.113v-.056c-.056.056-.056.112-.112.169v-.056l-.17.336v.056h-.056v.113c0-.056.056-.281.056-.281 0 .056-.056.337-.113.393v.112c-.056 0-.056.056-.113.056.057-.224.17-.561.17-.561-.057 0-.057.056-.057.056 0 .056-.113.337-.226.618v-.337c0 .056-.169.393-.169.449-.17.112-.395.505-.451.674-.057.112-.113.168-.113.28-.17.393-.113.225-.282.674-.226.561-.847 2.582-1.13 3.143-.395.786-.677 1.347-.959 2.582l-.338 1.572-.17 1.909c0 .056.057.112.057.112 0 .449-.226.898-.226 1.403s-.17 1.123-.113 1.628c0 .168 0 .28.113.337v.168s0-.056.056-.112v.168l.057-.056c.056.056.451 0 .451.056 0 0 .057 0 .057-.056v.056c-.057.056 0 .056.056.113.057 0 .056.056.056.056.057 0 .057.056.113.056.057.056.113.056.17.056.056 0 .17-.056.17-.056h.112c.056 0 .17.056.17.112v.056c0 .056-.057.056-.057.113 0 0 0 .056.056.056h.057l.113-.056c.056 0 .225.112.225.112h.113c.057.056.057.056.057 0 .056-.112.113-.169.113-.28 0 .055.056.111.056.111H57v.057s0-.057.057-.057c.17-.056.452-.392.452-.392 0-.057.451-.506.451-.506l.339-.28c0-.056.564-.337.564-.337.508-.73.621-.562 1.468-1.684.677-.898 2.088-3.2 2.314-3.48.056-.056.113-.056.17-.056 0 .056.056.112.056.168v.28c-.057.506-.283.899-.34 1.404-.056.842-.225.786-.056 1.628.226 1.178.847 2.526 2.089 2.806.226.056.62.056.96 0 .62-.056 1.241-.336 1.75-.73.281-.224.62-.505.79-.56 1.297-.674 2.596-3.65 2.596-3.65l.056-.055c.057-.225 0-.225.282-.73.113-.225.113-.45.283-.674l.112-.786c.057-.168.17-.28.226-.449-.677-.673-.677-.73-.677-.786zM47.178 19.254c0-.056 0-.056 0 0zm-5.08 25.99c.17-.843.34-1.74.508-2.583.34-1.46.847-2.919.734-4.434 0-.225 0-.45.113-.618.057-.056.057-.168.057-.224l.338-2.695c.226-1.515.678-2.975 1.073-4.434.62-2.47 1.58-5.782 1.862-6.736.226-.562.508-1.179.621-1.516.113-.337.282-.617.395-.954.057-.056.057-.169.057-.225l-.057.056v-.168c.17-.337.113-.674-.169-1.01-.113-.169-.17-.337-.282-.562-.057 0-.113.057-.17.113v-.056h-.056l-.113.112h-.056v-.056h-.057v-.056c-.056.056-.113.112-.113.168 0 .056-.056.112-.056.168h-.057c0-.056.057-.112.057-.168 0-.056.056-.112.056-.225v-.056h-.056l-.057.056v-.056h-.056v-.168c0 .056 0 .112-.056.168H46.5c0 .056-.056.113-.056.169 0 0 0-.056-.057-.056 0-.057.057-.057.057-.113v-.056c-.057 0-.057.056-.057.056 0-.056 0-.056-.056-.112 0 0-.057 0-.057.056v-.28h-.056l-.057-.057c0 .056-.056.056-.056.113 0 0-.056.056 0 .112v.056c0 .056 0 .112-.056.168l-.057.057h.057s0 .056-.057.056c0 .056 0 .056-.056.112v.112c0-.056.056-.168.056-.224v-.056c-.056 0-.056-.057 0-.057.057-.056 0-.056 0-.112v-.056c-.056.056-.056.112-.113.168v.057c-.056.112-.17.112-.226.224v.056c-.056.056-.282.225-.338.28v-.055c.056-.113.056-.225.113-.393v-.112c-.057.112-.057.168-.113.28-.057.112-.057.169-.113.28 0 .057-.056.113-.056.17-.057.055-.057.111-.057.168-.113.336-.282.785-.508 1.066-.056.112-.056.28-.113.393a.807.807 0 00-.113.393c-.056.168-.056.28-.113.45-.056.055-.056.111-.056.168 0 0-.395.673-.564 1.234v.056s-.847 2.526-1.073 3.312c-.226.73-.395 1.46-.508 2.19-.056.336-.056.785-.17 1.066-.056.112-.056.169-.112.28-.226.955-.621 1.91-.847 2.92-.056.168 0 .786 0 .786v.056l-.113.28-.169.898s-.113.225-.113.337c-.056.225-.113.393-.113.618 0 .505 0 1.01-.17 1.46-.112.392-.112.56-.168.954-.057.224-.283-.169-.34-.281-.055-.337-.112-.674-.168-1.067-.113-.617-.283-1.235-.452-1.852-.056-.112 0-.28-.056-.393-.226-.505-.283-1.067-.339-1.628 0-.224-.056-.449-.17-.617-.282-.506-.338-1.067-.395-1.572a13.949 13.949 0 00-.282-1.628c-.282-.954-.395-1.852-.677-2.582-.113-.28-.339-.842-.395-1.965-.056-2.75-2.427-3.087-2.935-3.087-.734 0-1.298.337-1.637.954-.113.169-.226.337-.339.561-.169.337-.282.674-.451 1.01-.17.338-.395.675-.565 1.011-.056.056-.056.113-.056.169-.113.28-.17.561-.282.786-.113.28-.282.56-.395.898a76.312 76.312 0 00-.96 2.638v.168c-.056.281-.056.562-.17.842-.282.842-.394 1.684-.677 2.47-.056.225-.225.842-.225 1.067 0 .168-1.411 7.24-1.468 7.746-.113 1.291-.17.898-.282 2.133a5.763 5.763 0 00.226 2.582c.169.674.451 1.404.96 1.853.338.393.733.617.79.73.056.056.112.056.169.112l.056.056c.057 0 .057.056.113.056l.056.056.057.056c.056.056.17.112.226.169.395.168.226.112.226 0 .056.056.169 0 .225.112 0 .112.057.056.113.056.057 0 .057.056.113.056s.056 0 .113.056c0-.056-.056-.056-.113-.056-.056 0-.056 0-.056-.056h.056v-.056h.056c.113.056.226.056.34.112.056 0 .056 0 .056-.056.056-.056.056-.112.113-.112 0 0 .056 0 .056-.056l.113-.113c.056-.056.056-.056 0-.112-.057 0-.057 0-.113-.056 0 0-.056 0-.056-.056v-.112h.225c.057 0 .113-.113.17-.169 0-.056 0-.056.056-.112h.113s0-.056-.056-.056v-.056c.056-.113.056-.113 0-.113h-.057c.056 0 .056-.056.056-.056.057-.056 0-.112-.056-.168v-.056h.113v-.056s-.056-.057-.113-.057v-.056c.056-.056.113 0 .113 0v-.056c-.113-.056-.17-.112-.282-.224l-.17-.169h.17c-.057-.056-.339-.337-.565-.449-.056-.056-.169 0-.169-.056 0 0-.226-.168-.339-.28-.508-.73-.677-1.685-.564-2.583.113-1.628.226-1.572.62-3.143.17-.73.396-1.404.565-2.133.113-.562.79-3.256.96-3.705a9.562 9.562 0 00.508-1.684c.226-.954.451-1.909.846-2.807.283-.617.565-1.29.79-1.908.283-.73.452-1.516.79-2.19.057.337.227.73.34 1.067.169.505.282 1.01.282 1.516 0 .28.451 2.75.508 3.2.056.617.451 2.413.451 2.47 0 .448.17.897.339 1.346.17.45.338 2.19.508 2.526.056.169.451 3.537.677 3.986.113.224.282.842.113.898-.17.056.226.954.17 1.235-.057.337 0 .617.225.842.452.505 1.073.786 1.693.898.226.056.395.056.508 0 .17.056.339.112.452.112.508.113.62-.168.847-.561.113-.169.225-.393.225-.561.339-.337.678-.842.79-1.404z" fill="#A92832"/><path d="M22.174 31.49v-.448c-.17.056-.338.056-.451.112v.505a.643.643 0 01.451-.168zm0-2.02v-.505c-.17.056-.338.056-.508.112v.505c.17 0 .339-.056.508-.112zm0 .561c-.17.056-.338.056-.508.113v.505c.17-.056.339-.056.508-.113v-.505zm0 2.975c-.17 0-.338.056-.508.056v.506c.17-.057.339-.057.508-.113v-.449zm0 1.964c-.17 0-.338.057-.508.057v.505c.17 0 .339-.056.508-.056v-.505zm-.79-4.77c-.17.056-.339.056-.508.112v.449c.17-.056.339-.056.508-.112v-.45zm0 3.873c-.17.056-.339.056-.508.056v.449c.17 0 .339-.056.508-.056v-.45zm-.452-1.403c.17-.057.34-.057.508-.113v-.449c-.169.056-.338.056-.508.112v.45zm0 1.01c.17-.056.34-.056.508-.112v-.45c-.169.057-.338.057-.508.057v.505zm1.976-1.853c-.17.057-.339.057-.508.113v.505c.17-.056.339-.056.508-.112v-.506zm0-.954c-.17.056-.339.056-.508.112v.45c.17-.057.339-.057.508-.113v-.449zm0 4.996c-.17 0-.339.056-.508.056v.505c.17 0 .339-.056.508-.056v-.505zm0 .954c-.17 0-.339.056-.508.056v.506c.17 0 .339-.056.508-.056v-.506zm-1.242 1.684c.17 0 .339-.056.508-.056v-.449c-.17 0-.338.056-.508.056v.45zm1.242-.673c-.17 0-.339.056-.508.056v.505c.17 0 .339-.056.508-.056v-.505zm-2.766-8.364v.449c.17-.056.339-.056.452-.112v-.45c-.113.057-.283.057-.452.113zm0 5.782v.449c.17 0 .339-.056.452-.056v-.45c-.113 0-.283.057-.452.057zm.508.898c-.17 0-.338.056-.451.056v.449c.169 0 .338-.056.451-.056v-.45zm-.508 1.515c.17 0 .339-.056.452-.056v-.449c-.17 0-.339.056-.452.056v.45zm.508-4.435c-.17.057-.338.057-.451.057v.449c.169 0 .338-.056.451-.056v-.45zm0-4.827c-.17.056-.338.056-.451.113v.449c.169-.056.338-.056.451-.113v-.449zm-.734 3.031c-.169.057-.338.057-.451.113v.449c.17-.056.338-.056.451-.112v-.45zm0 5.277v-.449c-.169 0-.338.056-.451.056v.45c.17 0 .282 0 .451-.057zm0-6.231c-.169.056-.338.056-.451.113v.449c.17-.057.338-.057.451-.113v-.449zm0-.954c-.169.056-.338.056-.451.112v.45c.17-.057.338-.057.451-.113v-.449zm0 5.782c-.169 0-.338.056-.451.056v.449c.17 0 .338-.056.451-.056v-.45zm-1.185-3.144c.17-.056.282-.056.452-.056v-.449c-.17.056-.283.056-.452.112v.393zm.452 4.21c-.17 0-.283.056-.452.056v.45c.17 0 .282-.057.452-.057v-.449zm-.734-6.511c-.17.056-.282.056-.452.112v.45c.17-.057.283-.057.452-.113v-.45zm.734.786c-.17.056-.283.056-.452.112v.449c.17-.056.282-.056.452-.112v-.45zm0-1.909c-.17.056-.283.056-.452.112v.45c.17-.057.282-.057.452-.113v-.449zm0 8.588c-.17 0-.283.057-.452.057v.449c.17 0 .282-.056.452-.056v-.45zm-.452-2.358c.17 0 .282-.055.452-.055v-.45c-.17 0-.283.057-.452.057v.449zm-.677.113c.17 0 .282-.056.451-.056v-.449c-.169 0-.282.056-.451.056v.45zm0-3.256v.45c.17 0 .282-.057.451-.057v-.449c-.225 0-.338.056-.451.056zm.395 3.705c-.17 0-.282.056-.452.056v.45c.17 0 .283-.057.452-.057v-.449zm0-1.908c-.113.056-.282.056-.395.056v.449c.17-.056.282-.056.451-.056v-.45h-.056zm5.588 2.301c-.113 0-.226-.056-.339-.056v.505c.113 0 .226.056.339.056v-.505zm0-1.965c-.113-.056-.226-.056-.339-.112v.505c.113 0 .226.057.339.057v-.45zm0 .955c-.113 0-.226-.056-.339-.056v.505c.113 0 .226.056.339.056v-.505zm-.339-3.593c.113.056.226.056.339.113v-.506c-.113-.056-.226-.056-.339-.112v.505zm.339-2.357c-.113-.056-.226-.056-.339-.113v.506c.113.056.226.056.339.112v-.505zm-.339 9.374c.113 0 .226.056.339.056v-.45c-.113 0-.226-.055-.339-.055v.449zm.339-10.385c-.113-.056-.226-.056-.339-.112v.505c.113.056.226.056.339.112v-.505zm0 8.982c-.113 0-.226-.057-.339-.057v.506c.113 0 .226.056.339.056v-.505zm.564-6.343v-.506c-.113-.056-.226-.056-.338-.112v.45c.056.111.169.111.338.168zm-.395 10.777a.72.72 0 01.339.056v-.505c-.113 0-.226 0-.339-.056v.505zm-.508-11.058c.113.056.226.056.339.112v-.505c-.113-.056-.226-.056-.339-.112v.505zm.903 10.104v-.45c-.113 0-.226 0-.338-.055v.505h.338zm0-8.308c-.113-.056-.226-.056-.338-.112v.505c.112 0 .225.056.338.056v-.449zm-.395 6.287a.72.72 0 01.339.056v-.449c-.113 0-.226-.056-.339-.056v.449zm.395.561c-.113 0-.226-.056-.338-.056v.505a.72.72 0 01.338.056v-.505zm-.395-7.466c.113.057.226.057.339.113v-.45c-.113-.055-.226-.055-.339-.111v.449zm.395-3.367c-.113-.056-.226-.056-.338-.113v.45c.112.056.225.056.338.112v-.45zm0 4.939c-.113 0-.226-.056-.338-.112v.505c.112 0 .225.056.338.056v-.449zm0 8.869h-.338v.45h.338v-.45zm-.395.955v.449h.339v-.45h-.339zm0 1.459h.395v-.449h-.395v.45zm.395.561h-.395v.45h.395v-.45zm-.395 1.404h.395v-.45h-.395v.45zm.904-2.92v-.448h-.34v.449h.34zm0-14.088c-.114-.057-.227-.057-.34-.113v.45c.113.055.226.055.34.111v-.448zm-.34 6.23c.113 0 .226.056.34.056v-.449c-.114 0-.227-.056-.34-.056v.45zm.34-2.357c-.114 0-.227-.056-.34-.056v.449c.113 0 .226.056.34.056v-.45zm-.34 3.873v.449c.113 0 .226.056.34.056v-.449c-.114 0-.227-.056-.34-.056zm0-.505c.113 0 .226.056.34.056v-.45c-.114 0-.227-.055-.34-.055v.449zm.34 11.057h-.34v.45h.34v-.45zm.507-17.176c-.113-.056-.226-.056-.338-.112v.449c.112.056.225.056.338.112v-.449zm0 .954c-.113-.056-.226-.056-.338-.112v.45c.112 0 .225.055.338.111v-.449zm0 6.792c-.113 0-.226-.056-.338-.056v.45c.112 0 .225.056.338.056v-.45zm0-8.7c-.113-.056-.226-.056-.338-.112v.449c.112.056.225.056.338.112v-.45zm0 18.243h-.338v.45h.338v-.45zm-.338-14.987c.112 0 .225.056.338.056v-.45c-.113 0-.226-.056-.338-.056v.45zm.338 11.226h-.338v.45h.338v-.45zm0-9.655c-.113 0-.226-.056-.338-.056v.45c.112 0 .225.055.338.055v-.449zm-.338 2.358c.112 0 .225.056.338.056v-.449c-.113 0-.226-.056-.338-.056v.449zm.338-1.403c-.113 0-.226-.057-.338-.057v.45c.112 0 .225.056.338.056v-.45zm0 5.781h-.338v.45a.72.72 0 01.338.056v-.506zm0-1.908c-.113 0-.226-.056-.338-.056v.449a.72.72 0 01.338.056v-.45zm0 .954c-.113 0-.226 0-.338-.056v.449a.72.72 0 01.338.056v-.449zm1.016-9.319c-.113-.055-.17-.055-.338-.111v.449c.112.056.225.056.338.112v-.45zm-.283 6.568v.45c.114 0 .227.056.34.056v-.45c-.17-.056-.226-.056-.34-.056zm.283-3.76c-.113 0-.226-.057-.338-.057v.45c.112 0 .225.056.338.056v-.45zm-.283 6.623v.45h.057c0-.17.057-.281.113-.45h-.17zm.283-3.761c-.113 0-.226-.056-.338-.056v.45c.112 0 .225.055.338.055v-.449zm0-4.715c-.113-.056-.226-.056-.338-.112v.449a.72.72 0 00.338.056v-.393zm0-1.908c-.113-.056-.226-.056-.338-.113v.45c.112.056.225.056.338.112v-.45zm0 9.43c-.113 0-.226-.056-.338-.056v.449c.112 0 .169 0 .282.056 0-.112.056-.224.056-.337v-.112zm0-4.715c-.113 0-.226-.056-.338-.056v.449c.112 0 .225.056.338.056v-.45zm-.283 4.21c.114 0 .227.056.34.056v-.45c-.113 0-.226-.055-.34-.055v.449zm.283-3.256c-.113 0-.226-.056-.338-.056v.449c.112 0 .169.056.338.056v-.449zm.508 1.01c-.113 0-.17-.056-.282-.056v.45c.113 0 .17.056.282.056v-.45zm-.282-1.459c.113 0 .226.056.282.056v-.449c-.113 0-.226-.056-.282-.056v.449zm.282-1.797v-.448c-.113 0-.226-.056-.338-.056v.392c.112.057.225.057.338.113zm-1.016-4.546c-.113-.056-.226-.056-.338-.112v.449c.112.056.225.056.338.112v-.449zm.734 8.701v.449h.113c0-.169.056-.281.113-.45-.113.057-.17 0-.226 0zm-1.016 1.291a.72.72 0 01.339.056v-.45c-.113 0-.226-.055-.34-.055v.449zm1.298-9.656c-.113-.055-.226-.055-.338-.111v.449c.112.056.169.056.338.112v-.45zm-1.298 3.369v.449c.113.056.226.056.339.056v-.45c-.113.057-.226 0-.34-.055zm.282 2.975c-.113 0-.226-.056-.338-.056v.449c.112 0 .225.056.338.056v-.45zm0 6.68h-.338v.449h.225a.865.865 0 00.113-.45zm0-4.772c-.113 0-.226-.056-.338-.056v.45c.112 0 .225.055.338.055v-.449zm-.451 13.192h-.452v.673h.452v-.673zm.169-7.466v.449h.113c0-.112.056-.28.056-.45h-.17zm.282-11.451c-.113 0-.226-.056-.338-.113v.45c.112.056.225.056.338.112v-.45zm0 7.633c-.113 0-.226 0-.338-.055v.449a.72.72 0 01.338.056v-.45zm-.282-5.332c.113 0 .226.056.339.056v-.449c-.113 0-.226-.056-.34-.056v.45zM53.5 18.58c-.282-.056-.508-.112-.79-.168v1.122c.282.056.508.113.79.113V18.58zm0-4.547a6.42 6.42 0 01-.847-.224v1.122l.847.169v-1.067zm0 2.246c-.282-.056-.508-.113-.79-.169v1.123c.282.056.508.112.79.168V16.28zm0 9.149c-.282-.056-.508-.056-.79-.112v1.123c.282.056.508.056.79.112v-1.123zm-.79-17.401c.282.056.508.112.79.225V7.129c-.226-.056-.508-.168-.79-.225v1.123zm.79-5.445c-.282-.112-.508-.168-.847-.28v1.122c.283.056.508.169.847.225V2.582zm0 25.148c-.282-.056-.508-.056-.847-.113v1.123c.283 0 .508.056.847.056V27.73zm0 5.67v-1.123c-.282 0-.508-.057-.79-.057v1.123c.282.056.508.056.79.056zm0-10.217c-.282-.056-.508-.112-.847-.112v1.122c.283.056.565.056.847.113v-1.123zm0-2.302c-.282-.056-.508-.112-.847-.168v1.123c.283.056.565.112.847.112v-1.067zm1.242-14.538V5.22c-.282-.056-.508-.168-.79-.224v1.066c.282.113.508.169.79.281zm-.79 24.811c.282.056.508.056.79.112v-1.122c-.282 0-.508-.057-.79-.057v1.067zm.79-2.189v-1.123c-.282-.056-.508-.056-.79-.112v1.122c.282.056.508.113.79.113zm.056-19.198c-.226-.056-.508-.112-.79-.224v1.122c.282.056.508.113.79.169V9.767zm-.846 11.171v1.122c.282.056.508.056.79.113v-1.067c-.226-.056-.508-.112-.79-.168zm0-12.574c.282.056.508.112.79.224V7.522a4.175 4.175 0 01-.79-.225v1.067zm.79-7.69c-.282-.057-.508-.169-.847-.281v1.066c.282.057.508.169.847.281V.674zm.056 11.338c-.282-.056-.508-.112-.79-.168v1.123c.282.056.508.112.79.168v-1.123zm-.056-9.037c-.226-.056-.508-.168-.79-.28v1.122c.225.056.508.168.79.225V2.975zm.056 29.47c-.282 0-.564-.056-.79-.056v1.066c.282 0 .508.056.79.056v-1.066zm1.185-29.077c-.282-.056-.507-.168-.79-.225v1.123c.226.056.508.169.79.225V3.368zm-.733 14.37c.282.056.508.112.79.112v-1.01c-.282-.056-.508-.112-.79-.168v1.066zm.733 5.838c-.282-.056-.507-.056-.79-.112v1.066c.283.056.508.056.79.112v-1.066zm-.79-10.329c.226.056.508.113.79.169v-1.067a18.247 18.247 0 00-.79-.168v1.066zm0 7.915v1.067c.283.056.508.056.79.112v-1.067c-.225 0-.507-.056-.79-.112zm.79-13.303c-.225-.056-.507-.113-.79-.225v1.067c.283.056.508.112.79.224V7.86zm-.79 12.124c.283.056.508.113.79.169v-1.067c-.282-.056-.507-.112-.79-.168v1.066zM57.169 5.95c-.282-.056-.508-.112-.734-.224v1.066c.226.056.508.112.734.225V5.95zm-1.976 25.316c.283 0 .508.056.79.056v-1.066c-.282 0-.507-.056-.79-.056v1.066zm2.032-7.522c-.226-.056-.508-.056-.79-.112v1.066c.226.057.508.057.79.113v-1.067zm-.79-12.461c.226.056.508.112.79.168v-1.066a18.525 18.525 0 00-.79-.169v1.067zm0 4.49c.226.056.508.113.79.169v-1.067a18.311 18.311 0 00-.79-.168v1.066zm0 4.435c.226.056.508.056.79.112v-1.066c-.282-.056-.508-.113-.79-.113v1.067zm0-2.189c.226.056.508.112.79.168v-1.066a18.311 18.311 0 00-.79-.169v1.067zm0 13.359c.282 0 .508.056.79.056v-1.066c-.282 0-.508-.056-.79-.056v1.066zm.79-5.445c-.282-.056-.508-.056-.733-.112v1.123c.225.056.451.056.733.112v-1.123zm0-24.417c-.226-.057-.451-.169-.733-.281V2.3c.225.057.451.169.733.281V1.516zm0 26.663c-.226-.056-.508-.056-.733-.112v1.122c.282 0 .508.056.733.056V28.18zm2.315-14.988a14.82 14.82 0 00-.734-.168v1.066c.226.056.451.113.733.169V13.19zm-.734 16.223c.226.056.451.056.733.056v-1.067c-.282-.056-.508-.056-.733-.056v1.067zm.734-9.655a2.876 2.876 0 00-.734-.112v1.066c.226.056.451.056.733.112V19.76zm0-10.89c-.226-.056-.452-.112-.734-.225v1.067c.282.056.451.112.733.168V8.87zm0-4.379c-.226-.055-.452-.168-.734-.224v1.067c.226.056.451.112.733.224V4.491zm0 21.78c-.226-.056-.508-.056-.734-.112v1.066c.226.057.451.057.733.113V26.27zm-.734-1.235c.226.056.451.056.733.113V24.08c-.282-.056-.508-.056-.733-.112v1.066zm.734-7.465a15.05 15.05 0 00-.734-.169v1.067c.226.056.451.112.733.168V17.57zM58.354 6.343c-.226-.056-.508-.112-.734-.224v1.066c.226.056.452.168.734.225V6.343zm0 4.378c-.226-.056-.451-.112-.734-.168v1.066c.226.057.452.113.734.169V10.72zm0 11.003c-.282-.057-.451-.057-.734-.113v1.067c.226.056.452.056.734.112v-1.066zm0-6.624c-.226-.056-.508-.112-.734-.169v1.067c.226.056.452.112.734.168V15.1zm0-6.568a5.298 5.298 0 01-.734-.224v1.066c.226.056.452.112.734.225V8.532zm-.734 18.524c.226.056.508.056.734.112v-1.066c-.282-.056-.508-.056-.734-.056v1.01zm0-13.247c.226.056.452.112.734.168v-1.066c-.226-.056-.451-.113-.734-.169v1.067zM39.728 51.137h1.129v-1.066h-1.13v1.066zm9.426-42.773V7.24c-.395.056-.734.169-1.129.225v1.122c.452-.056.847-.112 1.129-.224zm.056 21.723c-.395 0-.79.056-1.129.056v1.123c.396-.056.734-.056 1.13-.056v-1.123zm-1.129-5.613c.396-.056.79-.056 1.13-.112v-1.067c-.396.056-.734.056-1.13.112v1.067zm1.073 8.981v-1.122c-.395 0-.734.056-1.129.056v1.066c.452.056.79 0 1.129 0zm-1.073-6.735c.396-.057.734-.057 1.13-.113v-1.123c-.396.056-.734.056-1.13.113v1.122zm1.129-14.876c-.395.056-.733.112-1.129.168v1.067c.396-.056.79-.112 1.13-.168v-1.067zm-1.806-6.455a8.032 8.032 0 01-1.129.224V6.68a8.032 8.032 0 011.13-.225V5.39zm-1.072 23.744c.395 0 .733-.056 1.129-.112v-1.067c-.395.056-.678.056-1.073.113 0 .112-.056.168-.056.28v.786zM47.46 14.37c-.395.056-.79.112-1.128.169v1.066c.395-.056.733-.112 1.129-.168V14.37zm-1.128-3.2a8.035 8.035 0 001.129-.224V9.823c-.395.056-.734.169-1.13.225v1.123zm4.628-1.964c-.395.056-.79.168-1.129.224v1.123c.395-.056.79-.112 1.13-.225V9.207zm-3.556 17.57v-1.067c-.113 0-.282 0-.395.056-.113.337-.226.73-.339 1.123.283-.056.508-.113.734-.113zM50.96 4.603c-.395.112-.79.168-1.129.224V5.95c.395-.112.79-.168 1.13-.224V4.603zm-1.129 15.1c.395-.056.734-.113 1.13-.169v-1.122c-.396.056-.735.112-1.13.168v1.123zm0-4.603c.395-.056.79-.112 1.13-.169V13.81c-.396.056-.791.112-1.13.168V15.1zm1.129 14.819a8.01 8.01 0 01-1.129.056v1.123c.395-.056.734-.056 1.13-.056v-1.123zm-1.129-7.915c.395-.056.734-.112 1.13-.168v-1.123c-.396.056-.791.112-1.13.112v1.18zm1.129 5.613c-.395.057-.79.057-1.129.113v1.122c.395-.056.734-.056 1.13-.112v-1.122zm-6.321-22.79c.395-.056.733-.168 1.072-.224V3.48c-.395.113-.734.169-1.072.225v1.122zm1.071 28.797v-1.067c-.168 0-.338 0-.507.056-.113.337-.17.73-.282 1.067.282 0 .508-.056.79-.056zm-1.071-15.493c.395-.056.733-.112 1.072-.168v-1.067c-.395.056-.734.112-1.072.168v1.067zM45.71 7.97c-.394.057-.733.17-1.072.225v1.067c.396-.056.734-.168 1.073-.225V7.971zm-.056-2.244c-.395.056-.733.168-1.072.224v1.067c.395-.057.734-.169 1.072-.225V5.726zm-.846 13.864l.113-.336c-.113 0-.226.056-.339.056v.786c0-.056.056-.113.056-.169.057-.168.113-.224.17-.337zm.902-9.374c-.394.056-.733.113-1.072.225v1.066c.396-.056.734-.112 1.073-.168v-1.123zm0 2.245a45.26 45.26 0 00-1.072.169v1.066c.396-.056.734-.112 1.073-.168v-1.067zm0 24.587h-1.072v1.066h1.073v-1.066zm-.225-5.614h.226v-.841c-.056.28-.17.56-.226.841 0-.056 0-.056 0 0zm-.846 7.859v1.067h.112c.17-.393.339-.73.508-1.067h-.62zm-2.315-28.459l-1.016.168v1.067l1.016-.169v-1.066zm-1.016-.954a6.592 6.592 0 001.016-.225V8.588a5.395 5.395 0 00-1.016.225v1.066zm1.016 9.71c-.338.057-.677.113-1.016.113v1.066c.339-.056.678-.056 1.016-.112V19.59zm-1.016-.954l1.016-.168V17.4l-1.016.169v1.066zm0-4.378l1.016-.169v-1.066l-1.016.168v1.067zm1.016 11.956c-.338.056-.677.056-1.016.112v1.067c.226 0 .452-.056.678-.056.056-.113.056-.225.113-.337 0-.224.112-.505.225-.786zm0-19.759c-.395.056-.677.169-1.016.225v1.066c.339-.056.678-.112 1.016-.224V6.455zm-.621 21.948c-.112 0-.282 0-.395.056v1.067h.17c0-.112 0-.224.056-.28.057-.337.113-.562.17-.843zm.621-6.623c-.395.056-.677.112-1.016.112v1.066c.339-.056.678-.056 1.016-.112V21.78zm-1.58-10.61c-.395.057-.734.113-1.016.169v1.066c.395-.056.677-.112 1.016-.168v-1.066zm-1.072 5.502l1.016-.169v-1.066l-1.017.168v1.067zm1.072 7.521c-.339.056-.677.056-1.016.113v1.066c.395-.056.677-.056 1.016-.112v-1.067zm-.056-6.511c-.396.056-.678.112-1.017.168v1.01c.34-.055.678-.112 1.017-.168v-1.01zm-.113 15.156c-.283 0-.565.056-.904.056v1.067c.226 0 .452 0 .678-.057 0-.336 0-.449.056-.505.057-.168.113-.337.17-.561zm.113-30.368l-.96.224v1.067l.96-.28V2.47zm1.636-.393a8.453 8.453 0 01-1.016.224v1.067l1.016-.225V2.077zm3.386-.786l-1.072.225v1.066l1.073-.224V1.29zm2.371 47.264v.73h1.13v-.842c-.396.056-.79.112-1.13.112zm1.75-.281v1.01h1.13v-1.01h-1.13zm0 2.807h1.13v-1.01h-1.13v1.01zm-7.732-3.368h.338v-.898c0 .056-.056.168-.056.224-.057.281-.17.45-.282.674zm-10.047-9.879H31.6v.954h.452v-.954zm.282-2.47v.505h.395v-.898h-.282v.056c-.057.112-.113.225-.113.337zm.395 2.919h-.395v.898h.395v-.898zm-.677 1.627H31.6v.955h.452v-.954zm.677.45h-.395v.898h.395v-.898zm-.677 3.648H31.6v.955h.452v-.955zm.677 1.46h-.395v.898h.395v-.898zm-1.129 3.48h.452v-.954H31.6v.954zm3.105-15.437h-.452v3.2h.62v-2.245c-.056-.281-.112-.505-.112-.674-.056-.056-.056-.168-.056-.28zm-.452 8.757v3.144h.564v-3.144h-.564zm1.072 5.332h.565v-3.087h-.565v3.088zm-3.951-6.903h-.338v1.347h.338v-1.347zm0 2.75h-.338v.561h.338v-.561zm0 1.347h-.338v.562h.338v-.562zm-.338 3.312h.338v-.561h-.338v.561zm-.565-.786h.339v-.449h-.339v.45zm-.169-3.985v-.45h-.056c-.057.17-.113.337-.113.45h.169zm0 1.01h-.282v.45h.282v-.45zm-.282 2.975h.282v-.449h-.282v.45zm6.999-26.27h-.621v.449h.62v-.45zm0-.954h-.621v.449h.62v-.45zm0-.898h-.621v.449h.62v-.45zm0-2.751h-.621v.45h.62v-.45zm0-.898h-.621v.449h.62v-.45zm0-.954h-.621v.505h.62v-.505zm-1.694 28.852h.565v-.45h-.565v.45zm0-.898h.565v-.45h-.565v.45zm.565-1.347h-.565v.449h.565v-.45zm0-19.254h-.621v.112c.17.056.395.169.62.281v-.393zm0-.898h-.565v.449h.565v-.45zm0-1.852h-.565v.449h.565v-.45zm0-.898h-.565v.448h.565V18.3zm0-.955h-.565v.45h.565v-.45zm0-.898h-.565v.45h.565v-.45zm0-.898h-.565v.449h.565v-.45zM34.817 39.63h-.564v.449h.564v-.45zm-.564 8.476h.564v-.449h-.564v.449zm.564-1.403h-.564v.449h.564v-.45zm0-26.607h-.564v.449h.564v-.45zm0-.898h-.564v.449h.564v-.45zm0-1.853h-.564v.45h.564v-.45zm0-.898h-.564v.45h.564v-.45zm0-.898h-.564v.449h.564v-.45zm-1.185-.225h-.62v.45h.62v-.45zm0 3.088h-.62v.449h.62v-.45zm0 3.087h-.62v.449h.225c.113-.056.282-.056.395-.112v-.337zm-.564 11.283h.564v-.45h-.395v.057a2.714 2.714 0 00-.17.393zm.564 1.066h-.62v.45h.62v-.45zm0 1.572h-.62v.449h.62v-.449zm0 3.087h-.62v.45h.62v-.45zm0 1.572h-.62v.45h.62v-.45zm0 1.516h-.62v.449h.62v-.45zm0 1.571h-.62v.45h.62v-.45zm0 1.516h-.62v.449h.62v-.45zm2.766 6.062h.62v-.449h-.62v.45zm1.693-23.8v-.45h-.395c.056.17.056.338.113.45h.282zm0-.898v-.45h-.452c0 .17 0 .337.057.45h.395zm0-2.302h-.564v.506h.564v-.506zm0-.898h-.564v.45h.564v-.45zm0-.898h-.564v.45h.564v-.45zm0-.898h-.564v.449h.564v-.45zm1.129 10.497v-.45h-.339c0 .17.057.281.057.45h.282zm0-.898v-.45h-.508c.056.169.056.281.113.45h.395zm0-1.404h-.62v.45h.62v-.45zm0-4.547h-.62v.45h.62v-.45zm0-.954h-.62v.506h.62v-.506zm0-1.796h-.62v.45h.62v-.45zm0 27.898v-.449h-.62v.45h.62zM32.052 22.79v-7.41c-.113 0-.282.057-.395.113v7.97c.056-.112.169-.28.225-.392.057-.113.113-.169.17-.281zm.677-7.466h-.395v3.817h.395v-3.817zm-1.919 9.767v-9.374l-.339.169v9.767l.17-.337a.776.776 0 00.169-.224zm-.565 1.123c0-.056.057-.112.057-.168V15.998c-.113.056-.17.112-.282.168V26.72s0-.056.056-.056c.057-.112.113-.28.17-.449zm-.846-9.43l-.17.168v11.844c.057-.112.113-.28.17-.393v-11.62zm-.509 12.91V17.233l-.112.112v12.518l.056-.169c.057.056.057 0 .057 0zm-.338 1.404v-13.36c-.056.056-.056.112-.113.112v13.584c0-.056.057-.112.057-.168 0-.056 0-.112.056-.168zM28.1 18.355c-.056.057-.056.113-.112.169v14.482c.056-.112.056-.224.113-.393V18.355zm-8.014 20.377a2.632 2.632 0 01-.508-.169v1.123l.508.112v-1.066zm-.452 4.658l.452.057v-1.01l-.452-.113v1.067zm0 1.797l.452.056v-.954l-.452-.112v1.01zm0 1.853l.452.056v-1.01l-.452-.057v1.01zm0 1.627h.452v-.785l-.452-.057v.842zm1.242-7.802l-.508-.112v.954l.508.112v-.954zm-.508 2.638l.508.112v-1.01l-.508-.056v.954zm0 3.593l.508.056v-.955l-.508-.112v1.01zm0 1.571l.508.056v-.785l-.508-.056v.785zm.79-8.532l.508.112v-1.01l-.508-.168v1.066zm0 1.74l.508.112v-.898l-.508-.168v.954zm0 1.797l.508.056v-.955l-.451-.056h-.057v.955zm.508.898l-.508-.113v.955l.508.056v-.898zm.282-4.21l.508.112v-.954l-.508-.169v1.01zm.452 4.322l-.452-.056v.898l.452.056v-.898zm0 1.684l-.452-.056v.954l.452.056v-.954zm-.452 2.414l.452.056v-.786l-.452-.056v.786zm1.242-8.982a2.64 2.64 0 00-.508-.168v.954l.508.112v-.898zm-.451 2.414l.451.112v-.842l-.451-.112v.842zm0 1.74l.451.056v-.898l-.451-.056v.898zm0 3.368l.451.056v-.898l-.451-.056v.898zm0 1.516l.451.056v-.786l-.451-.056v.786zm-4.516-7.186l.847-.111v-1.01l-.847.111v1.01zm0 3.593c.395-.056.677-.056.79-.056v-1.01l-.79.112v.954zm0 3.424l.847-.056v-.786l-.847.056v.786zm-1.298-8.644l.79-.112V38.9a18.43 18.43 0 01-.79.168v.954zm0 3.537c.282-.057.564-.057.79-.113v-.954l-.79.112v.954zm0 3.592l.847-.056v-.955l-.847.056v.955zm-.452-6.175l-.846.112v.898l.846-.112v-.898zm-.846 4.491c.282 0 .564-.056.79-.056v-.955l-.79.113v.898zm0 3.312l.846-.056v-.73h-.677l-.17.056v.73zm-1.298-6.624l.338-.056.508-.056v-.898l-.846.168v.842zm0 1.74l.846-.112v-.898l-.846.056v.954zm0 1.684c.282 0 .564-.056.79-.056v-.898l-.79.112v.842zm0 1.684l.846-.056v-.898l-.846.056v.898zM13.03 40.64l.79-.112v-.898c-.282.056-.564.112-.79.168v.842zm0 1.684l.847-.112v-.842l-.847.169v.785zm0 2.47v.842c.283 0 .565-.056.79-.056v-.898l-.677.056-.113.056zm0 2.582l.847-.056v-.898l-.847.056v.898zm-.564-5.781l-.677.112v.786l.677-.056v-.842zm-.677 2.582c.225 0 .508-.056.733-.056v-.899l-.733.113v.842zm.677 2.357l-.677.056v.842l.677-.056v-.842zm-.677 2.47l.677-.056v-.73h-.677v.786zm-.452-7.184l-.734.111v.73l.734-.112v-.73zm-.734 7.24l.734-.056v-.73l-.734.057v.73zm-.395-8.7c-.226.056-.508.112-.734.168v.786l.734-.112v-.842zm-.734 2.47l.734-.113v-.73l-.734.113v.73zm.734.73h-.451l-.283.055v.786c.226 0 .508-.056.734-.056v-.786zm0 1.571l-.734.056v.786c.226 0 .508-.056.734-.056v-.786zm-.734 2.414h.734v-.842l-.734.056v.786zm-.451-6.961c-.226.056-.508.112-.734.169v.73l.734-.113v-.786zM8.29 44.57c.225 0 .45-.056.733-.056v-.786l-.734.056v.786zm0 3.087l.733-.056v-.786l-.734.056v.786zm-1.13-5.164v.673l.734-.112v-.674l-.734.113zm0 3.648c.226 0 .452-.056.734-.056v-.73l-.734.057v.73zm0 3.088h.734v-.786l-.734.056v.73zm-.451-8.196c-.226.056-.452.112-.678.112v.674l.678-.112v-.674zm0 2.975H6.37l-.339.056v.73c.226 0 .452-.056.678-.056v-.73zm0 2.975l-.678.056v.73l.678-.056v-.73zm-1.75-2.02c.17 0 .395-.057.677-.057v-.73l-.677.113v.674zm0 1.347c.17 0 .395-.056.677-.056v-.674l-.677.056v.674zm0 3.031h.677v-.73H4.96v.73zm3.217 1.796v-1.46l-1.016.057v1.403h1.016zm6.491-.281v-1.459l-1.016.056v1.46l1.016-.056zm8.523 0v-1.515h-1.016v1.46l1.016.055zm-10.668.113v-1.46H11.45v1.516l.339-.056v-.954h.395v.954h.338zm6.491-.337v-1.516l-1.072.057v1.515l.282-.056v-.954h.452v.954h.338zm3.161-22.622c-.17.056-.338.056-.508.113v.505c.17-.056.339-.056.508-.112v-.506zm0 8.926c-.17 0-.338.056-.508.056v.505c.17 0 .339-.056.508-.056v-.505zm-.79-.393v-.45c-.17 0-.339.057-.452.057v.449c.17 0 .283-.056.452-.056zm1.524-6.68c-.17.056-.339.056-.508.112v.505c.17-.056.339-.056.508-.112v-.505zm0 3.985c-.17 0-.339.056-.508.056v.506c.17-.057.339-.057.508-.057v-.505zm-2.258-2.526c-.17.056-.338.056-.451.113v.449c.169-.057.338-.057.451-.113v-.449zm0 .954c-.17.057-.338.057-.451.113v.449c.169-.056.338-.056.451-.056v-.505zm-1.467.281c-.17.056-.283.056-.452.112v.45c.17 0 .282-.057.452-.057v-.505zm-.452 3.368c.17 0 .282-.056.452-.056v-.449c-.17 0-.283.056-.452.056v.45zm.452-6.231c-.17.056-.283.056-.452.113v.449c.17-.056.282-.056.452-.113v-.449zm-1.129 3.536c.17-.055.282-.055.451-.055v-.45c-.169.057-.338.057-.451.113v.393zm.395-4.321c-.17.056-.282.056-.452.112v.449c.17-.056.283-.056.452-.112v-.45zm5.757 8.027v.505c.113 0 .226.056.339.056v-.45c-.113-.055-.17-.055-.339-.111zm0-2.47c.113 0 .226.056.339.112v-.505c-.113 0-.226-.056-.339-.056v.449zm0 1.964c.113 0 .226.056.339.056v-.449c-.113 0-.226-.056-.339-.056v.45zm.395-7.297c-.113-.056-.226-.056-.338-.112v.505c.112.056.225.056.338.112v-.505zm.509 8.925c-.114 0-.227-.056-.34-.056v.45c.113 0 .226.055.34.055v-.449zm-.34 1.909v.505h.34v-.45c-.114 0-.227 0-.34-.055zm.34-8.701c-.114-.056-.227-.056-.34-.112v.449c.113.056.226.056.34.112v-.449zm0 12.63h-.34v.45h.34v-.45zm-.34-2.47a.72.72 0 01.34.056v-.505h-.34v.45zm.34 7.129h-.34v.45h.34v-.45zm.169-1.403h.338v-.45h-.338v.45zm.338-13.809c-.113 0-.226-.056-.338-.056v.449c.112 0 .225.056.338.056v-.449zm0-4.827c-.113-.056-.226-.056-.338-.113v.45c.112.055.169.055.338.112v-.45zm1.016 4.097c-.113 0-.226-.056-.338-.056v.45c.112 0 .225.055.338.055v-.449zm.508 1.067c-.113 0-.226-.056-.338-.056v.449c.112 0 .169.056.338.056v-.45zm-1.016-3.087c-.113-.057-.226-.057-.338-.113v.45c.112.055.225.055.338.112v-.45zm0 10.945v-.449h-.338v.45h.338zm0-7.128c-.113 0-.226-.057-.338-.057v.45c.112 0 .225.056.338.056v-.45zm0 1.908c-.113 0-.226-.056-.338-.056v.449c.112 0 .225.056.338.056v-.449zM53.5.28c-.282-.112-.508-.168-.847-.28v1.123c.283.056.508.168.847.28V.281zm-.79 5.446c.282.056.508.168.846.224V4.827c-.225-.056-.508-.168-.846-.224v1.123zm1.242 9.486c.225.056.508.112.79.225v-1.123c-.282-.056-.508-.112-.79-.168v1.066zm0 9.15c.282.056.508.056.79.112v-1.067c-.282-.056-.508-.112-.79-.168v1.123zm.79 1.235c-.282-.056-.508-.056-.79-.113v1.123c.282.056.564.056.79.056v-1.066zm-.79-5.838c.282.056.508.112.79.112v-1.066c-.282-.057-.508-.113-.79-.169v1.123zm.282 15.998h.508V34.69c-.282 0-.508 0-.79-.056v.618c.113.112.225.28.282.392v.113zm.226 2.189v.112h.338v-1.066h-.282c-.056.393-.056.73-.056.954zm-.508 2.357h.169c0-.112.056-.168.056-.168.057-.337.17-.617.226-.898h-.338c-.057.056-.057.168-.113.224v.843zm0 10.329h.79v-1.066h-.79v1.066zm2.031-22.565c-.282-.057-.507-.057-.79-.113v1.123c.283 0 .508.056.79.056v-1.066zm1.242-19.872c-.226-.056-.508-.112-.79-.224v1.066c.226.057.508.113.79.225V8.195zm0-3.368V3.761c-.226-.056-.508-.168-.733-.225v1.067c.225.056.451.112.733.224zm-.79 8.701c.226.056.508.112.79.168V12.63c-.226-.056-.508-.112-.79-.169v1.067zM59.54 6.68a5.261 5.261 0 01-.734-.225v1.067c.226.056.451.112.733.224V6.68zm-.734 15.1v1.066c.226.056.451.056.733.112v-1.066c-.225 0-.451-.056-.733-.112zm.734-10.722c-.226-.056-.508-.112-.734-.168v1.066c.282.056.451.113.733.169v-1.067zm0 4.322a14.82 14.82 0 00-.734-.168v1.067c.226.056.451.112.733.168v-1.066zM58.354 1.909c-.226-.057-.451-.169-.734-.281v1.066c.226.057.452.169.734.281V1.909zm-.734 22.958c.283.056.452.056.734.112v-1.066c-.226-.056-.451-.056-.734-.113v1.067zm.734-7.578a14.788 14.788 0 00-.734-.168v1.066c.226.056.452.112.734.168V17.29zm-.113 13.977l.113.056v-.786c-.282 0-.508-.056-.734-.056v1.067c.113 0 .17 0 .283.056l.338-.337zm.113-11.732c-.282-.056-.508-.056-.734-.112v1.067c.226.056.508.112.734.112v-1.067zM49.21 2.694c-.395.113-.79.169-1.129.281v1.067l1.13-.225V2.694zm-.056 2.302c-.395.056-.734.168-1.129.224v1.123c.395-.112.79-.168 1.129-.224V4.995zm-.508 16.334l-.113.225-.17.337c-.056.112-.056.168-.112.28.339-.056.62-.056.903-.112v-1.066c-.17 0-.282.056-.452.056 0 .056 0 .168-.056.28zm-.565 6.568v1.123c.396-.056.734-.056 1.13-.113v-1.122c-.396.056-.79.056-1.13.112zm1.073-11.508c-.395.057-.734.113-1.129.17v1.066c.395-.056.79-.113 1.129-.169v-1.066zm-1.75 16.055c-.395 0-.734.056-1.129.056v1.067c.395 0 .734-.057 1.13-.057v-1.066zm-1.072-19.029c.395-.056.79-.113 1.129-.169v-1.066c-.395.056-.79.112-1.13.168v1.067zm4.628-6.512c-.395.113-.79.169-1.129.225v1.123c.395-.057.734-.169 1.13-.225V6.904zM49.831 26.55c.395-.055.734-.055 1.13-.111v-1.123c-.396.056-.735.056-1.13.112v1.123zm1.129 5.67c-.395 0-.79.056-1.129.056V33.4c.395 0 .734-.056 1.13-.056V32.22zm-1.129-9.037v1.123c.395-.056.79-.056 1.13-.113v-1.122c-.396 0-.735.056-1.13.112zm-5.192 12.686c.395 0 .733 0 1.072-.056v-1.01c-.339 0-.677.056-1.016.056 0 .224-.056.393-.056.617v.393zm-.621-27.561c-.395.056-.734.168-1.073.224V9.6c.395-.056.734-.169 1.073-.225V8.308zm0 12.124v-1.066c-.395.056-.734.112-1.073.168v1.067a44.33 44.33 0 001.073-.169zm0-14.313c-.395.056-.734.168-1.073.224V7.41a9.213 9.213 0 011.073-.225V6.119zm0-2.246a9.211 9.211 0 01-1.073.225v1.066a9.213 9.213 0 011.073-.224V3.873zm0 13.304c-.395.056-.734.112-1.073.168v1.067a44.33 44.33 0 001.073-.169v-1.066zm-.508 25.372h.564v-1.01h-.282c0 .112-.057.168-.057.28-.112.225-.169.505-.225.73zm.508-29.807c-.395.056-.734.112-1.073.169v1.066a44.33 44.33 0 001.073-.168v-1.067zm-1.694-8.476c-.395.056-.677.169-1.016.225v1.066c.339-.056.678-.168 1.016-.224V4.266zm0 19.703c-.338.056-.677.056-1.016.112v1.067c.339-.056.678-.056 1.016-.113V23.97zm-1.016-7.522l1.016-.168v-1.067c-.395.056-.677.112-1.016.168v1.067zm-.62-7.466a5.396 5.396 0 00-1.017.225v1.066l1.017-.168V8.981zm0 4.322l-1.017.169v1.067c.396-.057.678-.113 1.017-.169v-1.066zM49.21.45c-.395.111-.79.167-1.129.28v1.066l1.13-.28V.449zm-4.571 48.835h1.072v-1.01h-1.072v1.01zm-12.305 1.066h.395v-.898h-.395v.898zm1.919-18.018h.282c-.17-1.01-.226-1.516-.282-1.74v1.74zm1.072 4.715v1.179h.339c-.056-.225-.056-.393-.113-.45a5.191 5.191 0 01-.226-.73zm-3.951 2.302v-.843c-.056.28-.169.562-.225.842h.225zm0 6.791h-.338v.562h.338v-.562zm-.564-3.255h-.339v.449h.339v-.45zM37.019 18.3h-.621v.448h.62V18.3zm0-.955h-.621v.45h.62v-.45zm-1.129 2.751h-.565v.449h.565v-.45zm0-5.501h-.565v.505h.565v-.505zm-1.073 24.137h-.564v.449h.564v-.45zM33.632 16.84h-.62v.449h.62v-.45zm0 3.087h-.62v.45h.62v-.45zm0 17.009h-.62v.505h.62v-.505zm0 9.318h-.62v.449h.62v-.45zm-.621 1.964h.621v-.449h-.62v.45zm5.08-23.07v-.45h-.564c.056.169.056.281.056.45h.508zm1.129 3.199h-.62v.45h.62v-.45zm0-.897h-.62v.448h.62v-.449zm0-4.604h-.62v.45h.62v-.45zm0-1.796h-.62v.449h.62v-.45zm-6.491-1.403h-.395v2.862c.113-.112.282-.224.395-.336v-2.526zm-1.411 4.49c.056-.056.056-.168.113-.224v-8.364c-.113.056-.226.112-.339.112v8.981c.057-.168.113-.336.226-.505zm-1.468 3.031V16.391a.78.78 0 01-.225.168v11.115c.113-.225.169-.337.225-.506zm-.733-10.104l-.113.113v12.18c.056-.112.056-.168.113-.28V17.064zm-.396 13.079v-12.63l-.112.113v12.91c0-.056 0-.168.056-.224l.056-.169zm-.395-12.124c-.056.056-.056.112-.113.168V32.22c.057-.112.057-.224.113-.393V18.02zm-8.692 23.519l.452.113v-1.01l-.452-.113v1.01zm.734 3.762l.508.056V44.4l-.508-.056v.954zm.79 3.424l.508.056v-.786l-.508-.056v.785zm1.242-5.782l-.452-.056v.898l.452.112v-.954zm-3.33-4.322s-.282.056-.79.168v1.01l.79-.112V38.62zm-.847 8.42l.847-.057v-.954l-.847.056v.954zm-1.298-5.22l.847-.113v-.954l-.847.112v.954zm0 3.535c.282 0 .564-.056.79-.056v-.954l-.79.112v.898zm-.452-2.694l-.79.112v.955c.282-.056.565-.056.79-.113v-.954zm-2.144-2.189l.79-.112v-.955c-.283.056-.565.113-.79.169v.898zm0 8.364h.846v-.786l-.846.056v.73zm-1.299-4.828l.847-.112v-.842l-.847.112v.842zm-2.427 1.852c.226 0 .508-.055.734-.055v-.842l-.734.056v.842zm0 1.629l.734-.057v-.842l-.734.057v.842zM8.29 46.085c.225 0 .45-.056.733-.056v-.786l-.734.056v.786zm0 3.088l.733-.057v-.73l-.734.057v.73zm-1.13-1.46l.734-.056v-.786l-.734.056v.786zm-1.129-4.434l.678-.057v-.673l-.678.112v.618zm.678 2.189l-.678.056v.673c.226 0 .452-.056.678-.056v-.673zm-.678 3.817h.678v-.73H6.03v.73zm-.395-8.027c-.338.056-.564.112-.677.112v.617l.677-.112v-.617zm4.741-1.179L4.62 41.202v.112l5.757-1.123v-.112zm2.258 1.235l-2.145.337v.112l2.145-.337v-.112z" fill="#828282"/><path d="M23.472 39.798v-.112l-4.177-1.403-6.603 1.347v.112l6.604-1.347 4.176 1.403zm-.056 9.262l-4.12-.28-14.563.785v.113l14.563-.786 4.12.28v-.112zM6.031 51.137V49.79l-1.072.056v1.291h1.072z" fill="#828282"/><path d="M20.763 50.632v-1.46l-1.072-.056v1.46l1.072.056zm41.542-29.414h.226v-2.301h-.226v2.301zm1.242 7.691h-.282v2.301h.282v-2.302zm-.96-1.572h-.225v2.301h.225v-2.301zM61.459 11.17l-.226.057v5.725h.226V11.17zm2.088 9.375h-.282v2.301h.282v-2.301zm3.217-10.553l-.282.056v3.087h.282V9.992zm-2.37 15.38h.225v-2.301h-.225v2.301zm1.241 5.277v-1.46h-.169v1.46h.17zm-1.072-10.16h-.226v1.459h.226v-1.46zm1.072-1.853h-.226v5.838h.226v-5.838zM62.53 12.91h-.225v4.884h.226v-4.883zm-1.071 8.645h-.226v2.302h.226v-2.302zm2.031-4.435h-.225v2.302h.225v-2.301zm1.13-6.623l-.226.056v3.649h.225v-3.705zm1.918 7.017h.226v-1.46h-.226v1.46zm-2.991-6.793l-.17.056v1.797h.17V10.72zm-2.088 17.402v-1.46h-.226v1.46h.226zm0-9.992h-.226v2.301h.226v-2.301zm10.95-7.073l-.226-.056v1.572h.225v-1.516zm1.071.337l-.225-.056v7.41h.226v-7.354zm-9.877 2.245h-.225v1.516h.225V13.64zm7.846 8.701h-.282v3.985h.282v-3.985zm.903-7.691h-.17v2.246h.17v-2.245zm-.903-3.873l-.226-.056V15.1h.226v-4.322zm-.226 20.096h.282v-3.985h-.282v3.985zm-.959-12.349h.225v-4.042h-.225v4.042zm1.185-.561h-.226v2.245h.226v-2.245zm1.863 7.634h.225V23.35h-.225v2.246zm.112-4.884H73.2v1.403h.225v-1.403zm-1.015 10.553v-1.403h-.226v1.403h.225zm.056-13.191h-.226v5.67h.226v-5.67zm-5.757 5.669h-.226v1.516h.226v-1.516zm1.58 4.94h-.226v1.46h.226v-1.46zm-1.75 0h.226v-2.302h-.226v2.302zm-.846-16.054h-.226v4.996h.226V12.63zm2.653 9.43h-.226v4.042h.226V22.06zm.056-12.18l-.226-.113v11.114h.226V9.88zm1.016 8.588h-.17v2.301h.17v-2.301zm0-4.94h-.17v2.301h.17v-2.3zm-.113 15.381h-.226v1.459h.226v-1.46zm1.129-18.412l-.226-.112v2.02h.226v-1.908zm1.693 27.113c-.395-.113-.79-.17-1.185-.282l-.113.281.282.169.282-.057v.225l.17.112v.056l.113.056v.057h.056c.113.056.282.056.395.112v-.73zm-3.556-5.053c-.508-.168-1.072-.28-1.636-.449v.618c.508.168 1.072.28 1.636.449v-.618zm4.629 4.603c.056-.168.169-.393.225-.561-.056 0-.112 0-.112-.056-.17.056-.34.112-.508.112h-.113c-.057 0-.226.056-.452.112v.112c.282.113.621.169.96.281zM58.75 38.844l1.354-.224c.056-.057.17-.169.282-.337-.508.056-1.016.168-1.524.224-.056.169-.113.225-.113.337zm.733-1.516l2.879-.449c.169-.056.338-.056.508-.056l1.975-.28-.113-.113v-.056l-.056-.056c-1.75.28-3.443.561-5.137.842v.169h-.056zm8.692.842c0-.056.057-.056.057-.112v-.056c-.226-.056-.452-.112-.621-.168-.113 0-.17.056-.282.056-.113 0-.226.056-.34.056l1.073.28c.057 0 .113-.056.113-.056zm-1.185-.056v.281c.339.056.62.168.96.224 0-.056.056-.168.112-.224l-1.072-.28zm3.274 6.512v-.618c-.057 0-.113-.056-.226-.056-.113.169-.226.393-.339.562.226.056.395.056.565.112zm1.693-2.976c-.226-.055-.508-.111-.734-.168a4.067 4.067 0 00-.17.45c-.056.055-.056.112-.056.112.283.056.621.112.903.224 0-.224.057-.449.057-.617zm-11.91-2.862l-1.298.225c-.056.112-.056.168-.113.28.395-.056.847-.112 1.242-.168 0-.169.057-.28.17-.337zm10.217 7.185v-.617l-1.016-.169a3.94 3.94 0 01-.452.561c.508.057.96.169 1.468.225zm.282-2.919c-.057.056-.057.168-.113.225.395.112.847.168 1.242.28 0-.056 0-.168.056-.28l-1.185-.225zm1.185.168c0-.056 0-.168.057-.224-.34-.056-.734-.168-1.073-.225 0 .056-.056.113-.113.225l1.13.224zm-.339 4.042v-.28c-.903-.169-1.806-.337-2.765-.506v.618l2.71.505c.055-.225.055-.28.055-.337zm-1.016.898c-1.128-.224-2.257-.393-3.386-.617v.617c1.129.225 2.258.393 3.443.618-.057-.281-.057-.45-.057-.618zm-6.434-.224l-4.459.505v.28c1.863-.224 3.669-.449 5.531-.673v-.112c-.451.056-.846.056-1.072 0zm-2.596 1.347v.617c.62-.056 1.241-.168 1.806-.224v-.618c-.621.056-1.242.113-1.806.225zm-1.694-3.593c-.113.113-.169.225-.282.281.734-.112 1.468-.168 2.201-.28-.056-.057-.056-.17-.056-.225l-1.863.224zm1.694 5.389h2.37c.452-.056.847-.168 1.298-.225v-.617c-1.241.112-2.483.28-3.668.393v.45zm-2.371-10.609l.339-.505v-.112c-.339.056-.621.112-.96.168-.056.168-.113.393-.17.561 0 .056 0 .056-.056.112.283-.056.508-.056.79-.112a.172.172 0 00.057-.112zm-2.935 8.139v.505l1.524-.168v-.617c-.395.056-.79.112-1.129.112l-.395.168zm2.314-7.241c-.17 0-.338.056-.508.056-.056.225-.17.45-.226.674.057 0 .17 0 .226-.056a1.84 1.84 0 00.339-.45c.056 0 .113-.056.17-.224zm10.329 9.206v.505h2.484c-.847-.168-1.637-.337-2.484-.505zm-.113-.73v-.617c-.564-.113-1.072-.169-1.636-.281v.617c.564.057 1.072.169 1.636.281zm4.685.842c.677.112 1.411.28 2.089.393h.056v-.674c-.734-.112-1.411-.28-2.145-.392v.673zm-.621-.168v-.618c-.734-.112-1.41-.28-2.145-.393v.618l1.863.337c.056.056.17.056.282.056zm2.766-1.46c-.508-.112-.96-.168-1.468-.28v.617c.508.112.96.169 1.468.28v-.617zM60.047 45.3c-.112.112-.169.224-.282.336l1.694-.224c-.057-.113-.057-.169-.057-.281-.452 0-.903.112-1.355.168zm-.564 2.806v.28l4.177-.505a2.012 2.012 0 01-.508-.224c-1.242.168-2.427.28-3.669.449zm1.863-1.628v.618c.338-.056.677-.056 1.016-.113a2.016 2.016 0 01-.395-.561c-.226 0-.396.056-.621.056zm-1.863-9.038v.281c.62-.112 1.185-.168 1.806-.28.226-.169.452-.28.621-.393l-2.427.393zm4.515-.392a45.26 45.26 0 011.073-.169v-.224l-.057-.056-1.58.224c.17.056.395.113.565.225zm-2.088-3.873v-.618c-.339.056-.677.112-1.072.169v.617c.395-.056.733-.112 1.072-.168zm-5.362.449c0-.056.056-.113.056-.113-.169.057-.395.057-.564.113v.617c.113 0 .226-.056.282-.056v-.112c.057-.112.113-.169.226-.45zm7.958 1.571v-.168l.226-.168c-1.58.28-3.104.505-4.628.785-.057.057-.057.169-.113.281l4.515-.73zm.508-3.199c-.846.168-1.636.28-2.483.449v.617c.847-.168 1.637-.28 2.483-.449v-.617zm-.564 3.368l.113-.056-4.628.73c-.057.112-.113.224-.113.336 1.58-.28 3.16-.505 4.74-.786l-.112-.224zm-3.104-.674c.62-.112 1.241-.224 1.806-.337v-.617c-.678.112-1.242.225-1.806.28v.674zm62.087 7.13v-.843h-.226c-.056.225-.169.505-.226.842h.452zm0-20.265h-.564v.786h.564v-.786zm-1.016.393h-.564v.786h.564v-.786zm1.016 1.459h-.564v.843h.564v-.843zm-1.016.393h-.564v.842h.564V23.8zm1.016 20.938h-.564v.842h.564v-.842zm-1.072 1.684v.112l-.057.337h.169v-.842h-.056v.28c-.056.057-.056.057-.056.113zm.508 2.807h.564v-.842h-.564v.842zm-4.798-3.929c-.057.112-.169.224-.226.336-.113.169-.282.337-.395.505v1.909h.847v-2.863h-.057c-.056 0-.113 0-.169.112.056-.056 0-.056 0 0zm6.209-8.14v-.393c-.057.112-.057.225-.113.393h.113zm0 4.49h-.508v1.292h.508V41.65zm0 2.527h-.508v.505h.508v-.505zm0 1.235h-.508v.505h.508v-.505zm0 2.526h-.508v.505h.508v-.505zm-.508 1.74h.508v-.505h-.508v.505zm1.241-14.146h-.451v.505h.451v-.505zm0 5.165h-.451v.392h.451v-.392zm0 6.623h-.451v.45h.451v-.45zm0-10.384h-.451v1.627h.451v-1.627zm.621-2.302h-.395v1.403h.395v-1.403zm0 2.358h-.395v1.46h.395v-1.46zm0 2.413h-.395v.45h.395v-.45zm0 4.267h-.395v.449h.395v-.45zm0 1.347h-.395v.449h.395v-.45zm0 2.301h-.395v.45h.395v-.45zm-1.072 3.761h.451v-.393h-.451v.393zm1.072-.393h-.395v.393h.395v-.393zm-.621-1.908h-.451v.393h.451v-.393zm.621 0h-.395v.393h.395v-.393zm.508-14.258h-.282v.449h.282v-.45zm0 1.291h-.282v.393h.282v-.393zm0 1.235h-.282v.393h.282v-.393zm0 1.235h-.282v.449h.282v-.45zm0 1.291h-.282v.393h.282v-.393zm0 1.235h-.282v.393h.282v-.393zm0 1.235h-.282v.449h.282v-.45zm0 1.291h-.282v.393h.282v-.393zm-.282 5.725h.282v-.393h-.282v.393zm1.524-10.777h-.169v.673h.169v-.673zm.226 1.067h-.17v.617h.17v-.618zm.564-.618h-.169v.617h.169v-.617zm.282.505h-.112v.617h.112v-.617zm-1.072 1.235h-.169v.673h.169v-.673zm.226.168h-.17v.674h.17v-.674zm.282 1.123h-.169v.674h.169v-.674zm.282-.898h-.169v.617h.169v-.617zm-.79 1.852h-.169v.618h.169v-.618zm.508.393h-.169v.618h.169v-.618zm.282 1.123h-.169v.617h.169v-.617zm.282-.618h-.112v.674h.112v-.674zm-1.072.505h-.169v.618h.169v-.617zm.226.955h-.17v.617h.17v-.617zm.564 1.459h-.169v.618h.169v-.618zm.282-.729h-.112v.673h.112v-.673zm-1.072.505h-.169v.617h.169v-.617zm.226.954h-.17v.617h.17v-.617zm.282.225h-.169v.617h.169v-.617zm.113 1.852h.169v-.617h-.169v.617zm.339-.674h.112v-.617h-.112v.617zm-1.129 1.235h.169v-.617h-.169v.617zm.225.168h.17v-.617h-.17v.618zm.283 1.067h.169V49.79h-.169v1.347zm.169-6.287h-.169v1.347h.169V44.85zm-11.176-17.794h-.846v.45h.846v-.45zm0-.842h-.846v.45h.846v-.45zm0-2.47h-.846v.393h.846v-.393zm0-1.684h-.846v.393h.846v-.393zm0-2.526h-.846v.45h.846v-.45zm0-.842h-.846v.45h.846v-.45zm1.581 10.89h-.847v.393h.847v-.393zm0 3.761v-.337h-.847v.337h.847zm0-8.813h-.847v.45h.847v-.45zm0-3.312h-.847v.393h.847v-.393zm0-.842h-.847v.393h.847v-.393zm0-1.684h-.847v.45h.847v-.45zm1.467 10.048h-.79v.393h.79v-.393zm0-.842h-.79v.393h.79v-.393zm0-1.684h-.79v.45h.79v-.45zm0-.842h-.79v.45h.79v-.45zm0-.842h-.79v.45h.79v-.45zm0-1.628h-.79v.393h.79v-.393zm0-.842h-.79v.393h.79v-.393zm0-1.684h-.79v.393h.79v-.393zm0-.842h-.79v.45h.79v-.45zm0-.842h-.79v.45h.79v-.45zm1.693-.168h-.846v.393h.846v-.393zm0 2.806h-.846v.394h.846v-.393zm0 2.807h-.846v.45h.846v-.45zm0 1.403h-.846v.45h.846v-.45zm0 1.46h-.846v.393h.846V27zm0 2.807h-.846v.393h.846v-.393zm-4.741 2.245h-.846v.449h.846v-.449zm-.846 18.804h.846v-.392h-.846v.392zm-.678-16.783v-.337h-.846v.393h.733c.057 0 .057 0 .113-.056zm0-2.021h-.846v.449h.846v-.449zm0-8.308h-.846v.393h.846v-.393zm-1.524 9.15h-.846v.449h.846v-.449zm0-6.68h-.846v.45h.846v-.45zm9.765-7.578c-.169-.056-.395-.056-.564-.112v2.414h.564v-2.302zm-1.016-.056c-.169-.056-.395-.056-.564-.056v1.291h.564V18.58zm2.596.954l-.112-.112h.112v-.337c-.169-.056-.282-.112-.451-.168v2.077h.226c.113-.225.169-.45.225-.562v-.898zm-3.048 30.986h.452v-.842h-.282v.786l-.17.056zm-2.201-16.896v-2.526h-.846v2.301h.112c.113.056.396.112.734.225zm4.121 4.434v.337h.395v-.505h-.339c-.056.112-.056.112-.056.168zm.395 1.122h-.508v1.236h.508V39.18zm0 7.523h-.508v.505h.508v-.505zm-1.411-21.668v.842h.112c.113-.28.226-.561.283-.842h-.395zm-.452 1.348h-.564v.841h.564v-.841zm2.596 17.289h-.451v.449h.451v-.45zm.621-3.032h-.395v.45h.395v-.45zm.508 3.93h-.282v1.515h.282V44.57zm-1.129-10.441v-.45h-.112c-.057.17-.057.282-.113.45h.225zm.396-2.358h.225v-.449h-.056c-.057.225-.113.393-.169.45zm.225 1.909h-.395v.449h.395v-.45zm.508-3.593v-.393h-.056a1.032 1.032 0 00-.113.393h.169zm0 .843h-.282v1.515h.282v-1.516zm1.75 7.802h-.169v.617h.169v-.617zm.564 2.694h-.112v.674h.112v-.674zm-.846 1.404h-.17v.673h.17v-.673zm.564-18.412h-.169v.674h.169v-.674zm.282.562h-.112v.617h.112v-.618zm-1.241 1.852h.113v-.618c-.057.112-.057.225-.113.337v.28zm.395-.449h-.17V27h.17v-.617zm.282 1.122h-.169v.618h.169v-.618zm.282-.955h-.169v.674h.169v-.673zm-.79 1.853h-.169v.618h.169v-.618zm.508.393h-.169v.674h.169v-.674zm.282 1.179h-.169v.617h.169v-.617zm.282-.617h-.112v.617h.112v-.617zm-1.072.449h-.169v.673h.169v-.673zm.226.953h-.17v.674h.17v-.673zm.564 1.46h-.169v.674h.169v-.674zm.282-.673h-.112v.617h.112v-.617zm-1.072.449h-.169v.673h.169v-.673zm.226.954h-.17v.674h.17v-.674zm.282.28h-.169v.618h.169v-.617zm.282 1.18h-.169v.673h.169v-.673zm.282-.674h-.112v.674h.112v-.674zm-1.072 1.234h-.169v.675h.169v-.674zm.226.17h-.17v.673h.17v-.674zm.282-4.604h-.169v1.404h.169v-1.404zm.564-3.368h-.112v.618h.112v-.618zm-.846 1.404h-.17v.617h.17v-.617zm-.903 11.17h-.17v.786h.17v-.786zm.225 1.235h-.169v.73h.169v-.73zm-.225 1.347h-.17v.73h.17v-.73zm.225.169h-.169v.73h.169v-.73zm-.225 2.357h-.17v.73h.17v-.73zm0 1.684h-.17v.73h.17v-.73zm.225 1.066h-.169v.73h.169v-.73zm-.395 2.19h.17v-.73h-.17v.73zm.226 1.123h.169v-.73h-.169v.73zm.169-5.838h-.169v.73h.169v-.73zm-.395-16.055h.113v-.729h-.056c0 .056-.057.112-.057.168v.562zm.17.899h-.17v.73h.17v-.73zm.225 1.123h-.169v.73h.169v-.73zm-.225 1.459h-.17v.73h.17v-.73zm.225 1.067h-.169v.73h.169v-.73zm-.225 2.357h-.17v.73h.17v-.73zm.225.225h-.169v.73h.169v-.73zm0-7.69h-.169v.785h.169v-.786zm-10.216 1.964h-.846v.393h.846v-.393zm0-10.048h-.846v.393h.846v-.393zm1.581 7.522h-.847v.393h.847v-.393zm0-2.526h-.847v.45h.847v-.45zm0-2.47h-.847v.393h.847v-.393zm1.467 6.68h-.79v.393h.79v-.393zm1.693-9.655h-.846v.393h.846v-.393zm0 2.807h-.846v.393h.846v-.393zm0 5.669h-.846v.393h.846v-.393zm-.338 2.807h-.508v.393h.395c.056-.112.056-.225.113-.337v-.056zm-4.403 1.684h-.846v.449h.846v-.449zm-1.524-5.838h-.846v.45h.846v-.45zm-1.524 1.572h-.846v1.347h.846v-1.347zm0-3.256h-.846v.45h.846v-.45zm0-1.628h-.846v.393h.846v-.393zm1.524-1.628h-.846v.393h.846v-.393zm0-2.526h-.846v.393h.846v-.393zm0-.842h-.846v.393h.846v-.393zm-1.524 2.526h-.846v.393h.846v-.393zm0-1.684h-.846v.393h.846v-.393zm0 .842h-.846v.393h.846v-.393zm0-1.684h-.846v.393h.846v-.393zm10.612.112c-.17-.055-.339-.112-.508-.168v3.368h.508v-3.2zM97.13 45.524l-.056.056c-.056.056-.056.112-.113.168v.842h.113c0-.224.056-.393.056-.617v-.45zm.113 2.358l-.112-.393h-.17v.954h.057l.508-.056v-.393c-.057 0-.057-.056-.113-.056l-.17-.056zm-1.241-1.292h.564v-.449c-.17.169-.339.281-.508.393 0 .056 0 .056-.056.056zm0 .955v.954l.62-.056v-.898h-.62zm-1.862 1.066l.564-.056v-.898h-.226c-.113.056-.226.112-.339.225v.73zm-.904-.337v.393l.564-.056v-.561l-.338.112c-.057.112-.17.112-.226.112zm5.306-9.318l-.34-.056v.955-.057c.17-.224.227-.561.34-.842zm3.556 8.701l-.791-.056v.898l1.016.056v-.898h-.225zm.846-2.919c.282 0 .621.056.903.056v-1.066h-.226c-.112.224-.282.393-.395.617-.113.112-.169.225-.282.393zm-.056 2.021l.959.056v-1.067l-.959-.056v1.067zm1.637-2.919l-.113-.056v1.01h.338c-.056-.168-.056-.28-.113-.449 0-.168-.056-.337-.112-.505zm-.113 1.965v1.066l.959.056v-.617c-.113-.113-.169-.28-.226-.393l-.733-.112zm1.693 2.077v.898l.847.056v-.898l-.847-.056zm1.355.056v.898l.903.056v-.898l-.903-.056zm2.257-8.196v-.898c-.225-.056-.508-.112-.733-.168-.057.168-.057.393-.113.561v.337l.846.168zm0 1.011l-.846-.113v.842l.846.113v-.842zm0 2.133v-.337l-.395-.056-.451-.056h-.057v.842c.057 0 .113-.057.113-.057.339-.112.621-.224.79-.336zm1.411-3.761l-.846-.169v.898l.846.169v-.898zm-.903 7.858v.169l.847.056v-.786c-.169.056-.395.168-.452.225-.056.112-.225.224-.395.336zm1.411 1.179v.898l.847.056v-.898l-.847-.056zm2.653.168v.843l.79.056v-.842l-.79-.056zm-2.765 2.976h.959v-1.628l-.959-.056v1.684zm-6.83-.281V49.34l-.847-.056v1.684l.847.056zm-10.499-.112v-1.74l-.959.056v1.74l.96-.056zm12.136.224h.621v-1.684l-.903-.056v1.684l.282.056zm-7.789-.393h.62V49.06l-.903-.056v1.684l.283.056zm-1.016-11.451c-.113.28-.283.505-.395.73-.057.056-.057.112-.113.168l.508-.112v-.786zm-2.427 8.364v.898l.564-.056v-.898l-.564.056zm4.063-10.441v-.393c-.62-.112-.96-.168-.96-.168v1.235l.622.112a2.08 2.08 0 01.282-.617c.056-.056.056-.113.056-.169zm4.403.786l.282-.28c-.169-.057-.338-.057-.508-.113-.169.393-.282.73-.395 1.01h.057c.112-.112.169-.224.282-.336a.675.675 0 00.282-.28zm-.677 10.609l.959.056v-.898l-.959-.056v.898zm7.337-.505v.898h.903v-.842l-.903-.056zm2.822.168v.842l.791.057v-.842l-.791-.057zm-1.411-9.149c0-.056.057-.112.057-.112l-2.653-.506v.113l2.596.505zm-7.676-1.515l.113-.113-.677-.112c0 .056-.057.056-.057.112l.621.112zm-4.572-.899c0-.056.057-.056.057-.112l-1.58-.337v.112l1.523.337z" fill="#828282"/><path d="M115.362 49.453l-17.498-.898-4.91.337v.112l4.91-.337 17.498.955v-.169zm-1.524 1.853h1.241V49.79l-1.241-.056v1.572z" fill="#828282"/><path d="M97.413 50.688v-1.74l-1.242.056v1.74l1.242-.056zM80.875 27.056c.226-.056.395-.056.62-.112v-.842c-.225.056-.394.056-.62.112v.842zm0-3.592c.226-.056.395-.056.62-.113v-.898c-.225.056-.45.113-.62.169v.842zm.621.842c-.226.056-.395.112-.621.112v.842c.226-.056.395-.056.62-.112v-.842zm0 7.69v-.561c-.226.056-.395.056-.621.112v.337c.113 0 .226.056.339.056l.282.056zm-.621-10.104c.226-.056.395-.112.62-.168V17.12a9.25 9.25 0 00-.62.168v4.603zm0-7.242c.226-.055.451-.111.62-.168v-.898c-.225.056-.45.169-.62.225v.842zm.621 14.988c-.226.056-.452.056-.621.112v.843c.226 0 .395-.057.62-.057v-.898zm0-1.796c-.226.056-.395.056-.621.112v.842c.226-.056.395-.056.62-.112v-.842zm-.96-11.339v-.842c-.225.056-.395.112-.62.168v.843c.225-.057.395-.113.62-.169zm-.282 19.085c-.113-.056-.226-.056-.339-.056v.45h.113a.903.903 0 01.226-.394c-.056 0-.056 0 0 0zm.282-16.39a9.293 9.293 0 00-.62.168v.842c.225-.056.395-.112.62-.112v-.898zm0-1.741a9.313 9.313 0 00-.62.169v.842c.225-.056.45-.113.62-.169v-.842zm0-5.277c-.225.057-.451.113-.62.17v.841c.225-.056.45-.112.62-.224v-.786zm-.621 9.768c.226-.056.395-.112.621-.112v-.842c-.225.056-.451.112-.62.168v.786zm.621-8.027c-.225.056-.451.168-.62.225v.841a9.25 9.25 0 00.62-.168v-.898zm.339 36.149h.62v-.785h-.62v.786zm-1.298-35.868c-.226.056-.395.112-.621.168v.842c.226-.056.395-.112.62-.168v-.842zm-.621 11.451c.226-.056.395-.056.564-.112v-.843c-.225.057-.395.057-.564.113v.842zm.621 4.266c-.226.056-.395.056-.621.112v.842c.226 0 .395-.056.62-.056v-.898zm0-8.701c-.226.056-.395.113-.621.169v.842c.226-.056.395-.113.62-.169v-.842zm0 7.802v-.841c-.226.056-.395.056-.621.112v.842c.226-.056.395-.056.62-.112zm0-11.282c-.226.056-.395.112-.621.168v.842c.226-.056.395-.112.62-.168v-.842zm0 8.701c-.226.056-.395.056-.621.112v.842c.226-.056.395-.056.62-.112v-.842zm-.621 9.037v.561c.226 0 .395-.056.62-.056v-.505h-.62zm.451 13.191l-.451.056v.73h.564v-.73l-.056-.056h-.057zm-.79-18.58c-.226.056-.395.056-.62.056v.842c.225-.056.394-.056.62-.112v-.786zm-.564 20.601h.564v-.786h-.564v.786zm0-26.551c.225-.056.395-.112.564-.112v-7.802c-.226.056-.395.112-.564.112v7.802zm0 18.973c0-.112 0-.224.056-.337v-.056a.6.6 0 01.057-.28c.056-.337.169-.898.282-1.348.056-.168.056-.336.113-.505 0-.056 0-.112.056-.168h-.564v2.694zm-.057-15.549c.226-.056.395-.056.621-.112v-.842c-.226.056-.395.056-.62.112v.842zm.621-2.694c-.226.056-.395.112-.62.112v.842c.225-.056.394-.056.62-.112v-.842zm0-12.069c-.226.056-.395.169-.564.225v.842c.225-.112.395-.168.564-.225v-.842zM76.19 42.212v.786h.565v-.786h-.565zm.565-20.32c-.226.056-.395.112-.565.168v.786c.226-.056.395-.112.565-.112v-.842zm0 5.052c-.226.056-.395.056-.565.112v.842c.226-.056.395-.056.565-.112v-.842zm-.565-7.466c.226-.056.395-.112.565-.168v-.786c-.226.056-.395.112-.565.168v.786zm.565-4.378c-.226.056-.395.112-.565.168v.786c.226-.056.395-.112.565-.168V15.1zm0 15.268c-.17 0-.34.056-.565.056v.842c.226-.056.395-.056.565-.056v-.842zm0-5.108c-.17.056-.34.056-.565.112v.842c.226-.056.339-.056.565-.112v-.842zm-.565 21.892h.565v-.786h-.565v.786zm1.524-30.649a6.643 6.643 0 00-.564.169v.841a7.19 7.19 0 00.564-.168v-.842zm0 3.424c-.226.056-.395.113-.564.169v.842c.225-.056.395-.113.564-.169v-.842zm-.226 17.963h.226v-.618c-.113.281-.113.337-.17.45 0 .056-.056.112-.056.168zm.226-14.539c-.226.056-.395.113-.564.113v.842c.225-.056.395-.113.564-.113v-.842zM77.093 38.9v.73c.226 0 .395 0 .565-.056v-.842c-.17 0-.339 0-.508.056 0 .056 0 .056-.057.112zm.621-20.657c-.226.056-.395.113-.564.169v.842c.225-.056.395-.113.564-.169v-.842zm0 3.424a7.085 7.085 0 00-.564.169v.842c.225-.056.395-.113.564-.113v-.898zM90.64 51.306h.903v-.786h-.903v.786zm-6.435-33.849v.842c.282.056.508.113.847.169v-.842c-.283-.056-.508-.113-.847-.169zm.903 12.406c-.282-.056-.564-.056-.903-.113v.843c.282.056.564.056.903.112v-.842zm0 2.582v-.842c-.282-.056-.564-.056-.847-.056v.842c.226 0 .508.056.847.056zm1.298 9.711h-.846v.842h.846v-.842zm-2.201-.954h.847v-.842H84.6c-.113.168-.282.28-.395.449v.393zm0 3.48h.847v-.842h-.847v.842zm.847-2.582c-.283 0-.565 0-.847-.056v.842h.847V42.1zm-.847 4.378h.847v-.842h-.847v.842zm1.355-12.237c.282 0 .564.056.846.056v-.842c-.282 0-.564-.056-.846-.056v.842zm0-3.311c.282.055.564.112.846.112V23.07l-.846-.169v8.027zm.846 12.966h-.846v6.006h.846v-6.006zm-2.709-24.811c-.282-.056-.564-.112-.903-.168v.842c.282.056.564.112.903.168v-.842zm1.863 12.574v.842c.282 0 .564.056.846.056v-.842c-.282 0-.508 0-.846-.056zm-1.863-5.501c-.282-.056-.564-.056-.903-.112v.842c.282.056.564.056.903.112v-.842zm-.339 15.773c-.112.337-.225.562-.508 1.067v3.368c.283 0 .565 0 .847.056v-4.94c-.113.169-.226.281-.282.393l-.057.056zm.339-19.309c-.282-.056-.564-.113-.903-.113v.842c.282.056.564.113.903.113v-.842zm-.847-1.011c.283.056.565.113.904.169v-.842c-.283-.056-.565-.113-.904-.169v.842zm.847 2.807a4.405 4.405 0 00-.903-.112v.842c.282.056.564.112.903.112v-.842zm0 3.536c-.282-.056-.564-.056-.903-.112v.842c.282.056.564.056.903.112v-.842zm4.064-13.247c-.282-.056-.508-.112-.847-.168v.841c.282.057.508.113.847.169v-.842zm-.847 11.002c.282.056.508.056.847.112v-.842c-.282-.056-.508-.056-.847-.112v.842zm.847-7.578l-.847-.168v.842c.282.056.508.112.847.168v-.842zm-.847-1.067c.282.057.508.113.847.169v-.842l-.847-.168v.841zm.847 9.656c-.282-.057-.564-.057-.847-.113v.842c.282.056.565.056.847.112v-.842zm0 1.74c-.282-.057-.508-.057-.847-.113v.842c.282.056.508.056.847.113v-.843zm-.847-7.915l.847.168v-.842c-.282-.056-.508-.112-.847-.168v.842zm.847 9.598c-.282-.056-.564-.056-.847-.112v.842c.282.056.565.056.847.112v-.841zm-.847-7.858c.282.056.508.112.847.168v-.842c-.282-.056-.508-.112-.847-.168v.842zm0 18.973h.847v-.786h-.847v.786zm.847-6.905v-.785c-.282 0-.564-.057-.847-.057v.842h.847zm-.847 7.803v.786h.621c.057-.28.113-.562.17-.786h-.79zm2.032-3.368h-.734v.786h.396c.112-.225.225-.393.282-.561 0-.113.056-.169.056-.225zm.564-17.794c.283.056.509.112.79.168v-.786c-.281-.056-.507-.112-.79-.168v.786zm.79-2.358a17.976 17.976 0 00-.79-.168v.842c.283.056.509.112.79.168v-.842zm-.79 9.15c.283.056.509.056.79.112v-.786c-.281-.056-.507-.056-.79-.112v.786zm0-1.684c.283.056.509.056.79.112v-.786c-.225-.056-.507-.056-.79-.112v.786zm0-3.424c.283.056.509.112.79.112v-.786a3.345 3.345 0 00-.79-.112v.786zm.79 9.43c-.281-.056-.507-.056-.79-.056v.786c.227 0 .509.056.79.056v-.786zm0-15.156a18.464 18.464 0 00-.79-.168v.842c.283.056.509.112.79.168v-.842zm-.79 17.626c.283 0 .509.056.79.056v-.786c-.225 0-.507-.056-.79-.056v.786zm0-5.108c.283 0 .509.056.79.056v-.786c-.225-.056-.507-.056-.79-.112v.842zm2.033-8.87c-.226-.055-.508-.111-.79-.168v.786c.225.056.507.113.79.169V20.6zm0 3.313c-.283-.056-.508-.056-.79-.113v.786c.282.056.507.056.79.113v-.786zm0 1.684c-.226-.056-.508-.056-.79-.113v.786c.282.056.507.056.79.113v-.786zm0-11.676l-.79-.224v.842l.79.168v-.786zm-1.243-.337c-.281-.056-.507-.112-.79-.168v.786l.79.168v-.786zm-2.539-.561l-.847-.225v.842l.847.169v-.786zM85.052 47.32h-.847v.786h.847v-.786zm0 1.796h-.847v.786h.847v-.786zm-2.202 2.19h.847v-.842h-.847v.842zm6.548-2.639h.847v-.28a2.67 2.67 0 01-.847-.337v.617zm-7.902-36.879c-.226.112-.452.168-.621.224v.899c.226-.056.451-.113.62-.225v-.898zm0 3.592a9.25 9.25 0 00-.621.169v.842c.226-.056.451-.112.62-.168v-.842zm-.96 16.335v-8.981c-.225.056-.395.112-.62.112v8.757c.169 0 .282 0 .338.056l.282.056zm-1.919-17.176a7.085 7.085 0 00-.564.168v.842a7.19 7.19 0 00.564-.168v-.842zm-2.427 3.255c.226-.056.395-.112.565-.168v-.842c-.226.056-.395.112-.565.168v.842zm.565 23.52v-.786h-.17c-.056.225-.113.505-.225.786h.395zm-.565 8.252c.226 0 .395 0 .565-.057v-.785h-.565v.842zm.565-20.882c-.17.056-.34.056-.565.112v.842c.17-.056.339-.056.565-.056v-.898zm0-8.476c-.17.056-.395.112-.565.168v.786c.226-.056.339-.112.565-.112v-.842zm0 3.368c-.226.056-.395.056-.565.112v.842c.226-.056.395-.056.565-.112v-.842zm.959-10.497c-.226.056-.395.112-.564.224v.842c.225-.056.395-.112.564-.224v-.842zm0 17.963V30.2c-.226.056-.395.056-.564.056v.842c.169 0 .338-.056.564-.056zm0-5.951c-.226.057-.395.057-.564.113v4.378c.225-.056.395-.112.564-.112v-4.378zm6.491-10.328l.847.168v-.842a6.415 6.415 0 01-.847-.224v.898zm0 1.74l.847.169v-.843l-.847-.168v.842zm0 12.349c.282.056.564.056.847.113v-9.711c-.283-.056-.565-.056-.847-.113v9.711zm.113 5.221c0 .056.056.056.056.056.226 0 .452.056.734.056v-.842c-.282 0-.564-.056-.847-.056v.505l.057.112v.169zm2.145 6.343h-.847v.842h.847v-.842zm-.057-19.086l-.846-.168v.842l.846.169v-.842zm-3.556-3.311l.847.168v-.842l-.847-.168v.842zm0 14.257c.283.057.565.057.847.057v-.842c-.282 0-.564-.056-.847-.113v.898zm0-2.638v.842c.283.056.565.056.847.113v-.843c-.282-.056-.564-.112-.847-.112zm4.911 2.246c-.282 0-.564-.057-.847-.113v.842c.282 0 .565.056.847.056v-.785zm0 6.848c-.282 0-.508 0-.847-.056v.785c.282 0 .508 0 .847.057v-.786zm.452 8.251v2.92h.846v-2.078c-.113-.056-.226-.112-.282-.168-.226-.112-.395-.393-.564-.674zm.79-20.095c-.282-.056-.508-.056-.79-.113v.843c.282.056.508.056.79.112v-.842zm0 7.634v-.842c-.282 0-.508-.056-.847-.056v.842h.056c.283 0 .565.056.79.056zm0-19.534c-.282-.057-.508-.113-.847-.169v11.17c.226.057.508.113.847.169v-11.17zm.507.954c.283.056.509.112.79.168v-.786a17.976 17.976 0 00-.79-.168v.786zm0 15.212c.283 0 .509.056.79.112v-.786c-.281-.056-.507-.056-.79-.112v.786zm0-6.736c.283.056.509.056.79.112v-.786c-.281-.056-.507-.112-.79-.112v.786zm2.033-5.501c-.226-.056-.508-.112-.79-.169v.786c.282.056.507.113.79.169v-.786zm-.791 3.985c.226.056.508.056.79.113v-.786c-.282-.056-.507-.113-.79-.113v.786zm-5.7-10.552c-.283-.057-.565-.113-.847-.225v.842l.847.224v-.842zm-1.355 34.465h-.847v.786h.847v-.786zm3.217 3.087h.847v-.786h-.847v.786zm3.838-1.459v1.572h.847v-1.516h-.62c-.057 0-.17-.056-.227-.056zM78.448 35.476a.684.684 0 01-.226.505c-.113.169-.113.225-.113.225 0 .112-.056.224-.056.337v1.347c.17 0 .395 0 .564-.056v-2.302h-.056c-.057-.056-.113-.056-.113-.056zm13.095-.786v-7.465l-.79-.113v8.083l.79-.505c-.057.056 0 .056 0 0zm-3.33-1.964c.282 0 .508.056.79.056v-4.154c-.282-.056-.565-.056-.79-.112v4.21zm-4.516-20.714l-.903-.224v4.434c.282.057.564.113.903.169v-4.378zm2.709.674l-.846-.225v7.803l.846.168v-7.746zm48.711 24.418c-.282.056-.565.112-.79.168v.786c.282-.056.564-.112.79-.168v-.786zm-2.202 10.553c.339-.056.565-.112.791-.168v-.786a18.36 18.36 0 00-.791.168v.786zm1.412-2.975c.282-.056.508-.112.79-.169v-.785c-.282.056-.565.112-.79.168v.786zm.79-6.231c-.282.056-.508.112-.79.169v.785c.282-.056.564-.112.79-.168v-.786zm0 11.451v-.786c-.282.057-.565.113-.79.169v.786c.282-.113.508-.113.79-.169zm0-4.827c-.282.056-.508.112-.79.168v.786c.282-.056.564-.112.79-.168v-.786zm-2.145 3.873c.282-.056.508-.112.734-.168v-.786a7.302 7.302 0 00-.734.168v.786zm4.967-3.088a9.057 9.057 0 00-.79.17v.785c.282-.056.564-.112.79-.168v-.786zm0-1.346c-.282.056-.565.112-.79.168v.786c.282-.056.564-.113.79-.169v-.785zm-1.411-1.067a9.02 9.02 0 00-.79.168v.786c.282-.056.564-.112.79-.168v-.786zm.621-4.659c.338-.056.564-.112.79-.168v-.786c-.282.056-.565.112-.79.168v.786zm-2.822 3.256c.282-.056.564-.113.79-.169v-.842c-.282.056-.565.112-.79.225v.786zm3.612-5.614c-.282.056-.508.113-.79.169v.786c.282-.056.564-.113.79-.169v-.786zm0-4.041c-.339.112-.565.168-.79.224v.786c.282-.056.564-.112.79-.224v-.786zm-1.411 17.794c-.282.056-.508.112-.79.112v.786c.282-.056.564-.112.79-.168v-.73zm0-10.721c-.282.056-.508.112-.79.168v.786c.282-.056.564-.112.79-.169v-.785zm-1.411-6.344c-.339.113-.565.169-.79.225v.786c.282-.056.564-.112.79-.168v-.843zm2.032 1.628c.282-.056.564-.112.79-.224v-.786c-.282.056-.565.168-.79.225v.785zm0 6.68c.282-.056.564-.112.79-.168v-.842c-.339.112-.565.168-.79.224v.786zm-3.443-6.623a18.36 18.36 0 00-.791.168v.786c.283-.056.508-.112.791-.169v-.785zm2.765 7.297a14.73 14.73 0 00-.733.168v.786c.282-.056.508-.112.733-.168V42.1zm0 6.174v-.785a14.76 14.76 0 00-.733.168v.786c.282-.056.508-.112.733-.169zm-.733-6.511c.282-.056.508-.112.733-.168v-.786a14.76 14.76 0 00-.733.168v.786zm.733-6.343a14.76 14.76 0 00-.733.168v.786c.282-.056.564-.112.733-.168v-.786zm-1.354-.168v-.786c-.339.112-.565.168-.734.224v.786c.226-.112.452-.168.734-.224zm1.354 1.515c-.282.056-.508.112-.79.169v.785c.282-.056.565-.112.79-.168v-.786zm0 2.133v-.842c-.338.056-.564.169-.733.225v.786c.282-.056.508-.113.733-.169zm.057 5.894c-.282.056-.565.112-.79.169v.785c.282-.056.508-.112.79-.168v-.786zm.621 4.716c.282-.057.564-.113.79-.113v-.786c-.282.056-.565.113-.79.169v.73zm-4.177-10.61v.786c.282-.056.508-.112.734-.168v-.786c-.283.112-.508.112-.734.168zm4.177 8.476v.786c.282-.056.508-.112.79-.112v-.786a2.95 2.95 0 00-.79.112zm4.289-11.956c.226.056.452.168.734.224v-.785c-.226-.056-.451-.169-.734-.225v.786zm-4.91 13.416a9.02 9.02 0 00-.79.168v.786c.282-.056.564-.112.79-.168v-.786zm-2.822-12.742c-.339.056-.565.168-.791.224v.73c.283-.056.508-.112.791-.169v-.785zm0 13.247a9.135 9.135 0 00-.791.168v.786c.339-.056.565-.112.847-.168 0-.337 0-.562-.056-.786zm-.734-5.669c.282-.057.508-.113.734-.169v-.786c-.283.056-.508.113-.734.169v.785zm9.257 5.669a14.937 14.937 0 00-.734-.168v.785c.226.057.451.113.734.169v-.786zm-8.523-15.886c-.283.056-.565.113-.791.169v.786c.283-.057.508-.169.791-.225v-.73zm-2.71 12.462a14.76 14.76 0 00-.733.168v.786c.282-.056.508-.112.733-.168v-.786zm2.71-1.067v-.786a7.326 7.326 0 00-.734.169v.786c.282-.056.508-.113.734-.169zm7.732-2.806c.226.056.452.112.734.224v-.786c-.226-.056-.451-.112-.734-.168v.73zm-6.208-10.497v-.786c-.283.056-.508.112-.734.168v.786c.339-.056.508-.112.734-.168zm0-2.133c-.283.056-.508.168-.734.224v.786c.339-.112.508-.168.734-.224v-.786zm2.709-.73c-.282.056-.508.112-.734.224v.786c.282-.056.508-.112.734-.168v-.842zm-6.943 6.736c-.282.112-.508.168-.733.224v.786c.282-.056.508-.112.733-.168v-.842zm11.176 9.992c-.226-.056-.451-.113-.734-.169v.786c.226.056.452.112.734.168v-.785zm0-4.491v-.786a5.28 5.28 0 01-.734-.224v.785c.226.057.452.113.734.225zm-13.264 1.01c.282-.056.508-.112.734-.168v-.786c-.282.056-.508.112-.734.169v.785zm.734 6.849c-.282.056-.452.112-.734.112v.786c.282-.056.508-.112.734-.169v-.73zm0-10.946v-.786c-.282.056-.452.112-.678.168v.786c.283-.056.508-.112.678-.168zm12.53-7.915c-.226-.056-.451-.169-.734-.225v.786c.226.056.452.169.734.28v-.841zm0 7.578a5.293 5.293 0 01-.734-.225v.786c.226.056.452.112.734.225v-.786zm-.734-3.424c.226.056.452.112.734.224v-.786c-.226-.056-.451-.168-.734-.224v.786zm-11.796 10.833c-.282.057-.508.113-.734.113v.786c.282-.057.508-.113.734-.169v-.73zm.621 5.838c.225-.056.451-.056.733-.112v-.786c-.282.056-.508.112-.733.112v.786zm-1.355-11.394c.282-.057.508-.113.734-.17v-.785c-.282.056-.508.112-.734.168v.786zm11.232 10.328c.226.056.452.112.734.168v-.786a15.084 15.084 0 00-.734-.168v.786zm-10.498-6.063c-.282.056-.508.113-.734.169v.786c.282-.056.508-.113.734-.169v-.786zm1.298-1.628a16.27 16.27 0 00-.734.169v.73c.282-.056.508-.113.734-.113v-.786zm9.934-12.573c-.226-.113-.452-.169-.734-.28v.785c.226.056.452.168.734.224v-.73zm-2.935.617c-.282.113-.508.169-.734.225v.786c.282-.057.508-.113.734-.169v-.842zm5.588 1.684c-.226-.056-.452-.168-.734-.28v.785c.226.056.452.169.734.225v-.73zm-13.885 4.098c-.282.056-.452.112-.678.168v.786c.283-.056.508-.112.678-.168v-.786zm0-1.291c-.282.056-.508.112-.734.168v.786c.282-.056.508-.168.734-.224v-.73zm12.53-3.312a5.294 5.294 0 01-.734-.225v.786c.226.113.452.169.734.281v-.842zm-11.176 17.345c-.282.056-.508.112-.733.112v.786c.282-.056.508-.112.733-.112v-.786zm-.733-8.981v.786c.282-.056.508-.113.733-.169v-.786c-.338.056-.508.113-.733.169zm-1.355 3.648c.282-.056.508-.112.734-.168v-.786c-.282.056-.508.112-.734.169v.785zm2.032-2.525c-.282.056-.508.112-.734.168v.786c.282-.056.508-.113.734-.169v-.785zm2.032-2.302c.282-.056.508-.112.79-.168v-.786c-.282.056-.508.112-.79.168v.786zm-3.33 9.879v-.785a5.928 5.928 0 00-.678.168v.786c.226-.112.452-.169.678-.169zm13.828-17.906c-.225-.056-.451-.168-.733-.28v.785c.225.056.451.169.733.225v-.73zm-2.596 12.012c-.226-.056-.452-.112-.734-.224v.786c.226.056.452.112.734.168v-.73zm-4.29-13.303c-.282.056-.508.112-.734.168v.786c.283-.056.508-.168.734-.224v-.73zm2.935 21.779v-.785a14.73 14.73 0 00-.733-.169v.842c.225 0 .451.056.733.112zm-.79-16.334c.226.056.452.168.79.224v-.842a4.176 4.176 0 01-.79-.224v.842zm2.145-1.404c-.226-.056-.452-.168-.734-.28v.842c.226.056.452.168.734.224v-.786zm-1.355 6.232a4.176 4.176 0 01-.79-.225v.842c.282.056.508.112.79.168v-.786zm-.733 5.95c.282.056.508.112.733.168v-.842a14.844 14.844 0 01-.733-.169v.842zm1.354-8.982c.226.056.452.169.734.225v-.786c-.226-.056-.452-.169-.734-.225v.786zm-.621-7.353c-.225-.056-.451-.169-.733-.281v.786c.225.056.451.168.733.28v-.785zm0 13.079a5.305 5.305 0 01-.733-.225v.842c.225.056.451.112.733.169v-.786zm1.355 5.669c-.282-.056-.452-.112-.734-.168v.786c.282.056.508.112.734.168v-.786zm-1.355-1.683a14.73 14.73 0 00-.733-.17v.787c.225.056.451.112.733.168v-.786zm0-13.417c-.225-.056-.508-.112-.733-.224v.786c.225.056.451.168.733.224v-.786zm1.355 1.797c-.226-.057-.452-.169-.734-.225v.786c.226.056.452.168.734.224v-.785zm-1.355 2.245c-.225-.056-.451-.112-.733-.225v.842c.282.056.508.113.733.169v-.786zm.621 1.01c.226.056.452.113.734.225v-.842c-.226-.056-.452-.112-.734-.225v.842zm-.621 11.059a14.73 14.73 0 00-.733-.169v.842c.282.056.508.112.733.169v-.843zm.621-9.711c.226.056.452.112.734.224v-.786a5.239 5.239 0 01-.734-.224v.786zm.734 4.715c-.282-.056-.452-.113-.734-.169v.786c.226.056.452.112.734.169v-.786zm0-2.638a13.929 13.929 0 00-.734-.169v.786c.226.056.452.112.734.168v-.786zm-9.257 8.083c.282-.057.508-.113.734-.169v-.73a16.27 16.27 0 00-.734.169v.73zm9.257-9.431a5.252 5.252 0 01-.734-.224v.785c.226.057.452.113.734.169v-.73zm-8.523 3.256c-.282.056-.508.112-.734.168v.786c.282-.056.508-.112.734-.168v-.786zm6.435-4.435c.225.056.451.113.733.225v-.786c-.225-.056-.451-.112-.733-.224v.785zm4.741 3.257a14.933 14.933 0 00-.734-.17v.787c.226.056.452.112.734.168v-.786zm-2.653-11.06c-.226-.055-.452-.168-.734-.28v.786c.226.056.452.169.734.225v-.73zm2.653 8.42a5 5 0 01-.734-.224v.786c.226.056.452.113.734.225v-.786zm0-2.581a14.937 14.937 0 00-.734-.169v.786c.226.056.452.112.734.169v-.786zm-.734 7.634v.786l.677.168v-.786c-.225-.056-.395-.112-.677-.168zm1.298-4.098c.226.056.452.112.734.169v-.786a5.274 5.274 0 01-.734-.225v.842zm-11.74.225c-.282.056-.508.112-.734.168v.786c.282-.056.508-.112.734-.169v-.785zm11.74 2.413c.226.056.452.113.734.225v-.786a14.937 14.937 0 00-.734-.168v.73zm-11.74 1.572c-.282.056-.508.112-.734.169v.785c.282-.056.508-.112.734-.168v-.786zm1.58-14.595c-.282.057-.508.113-.733.169v.786c.282-.056.508-.112.733-.169v-.786zm6.943 17.458v-.786a15.084 15.084 0 00-.734-.168v.785c.226 0 .452.057.734.169zm-8.523-9.43c-.282.056-.508.112-.734.168v.786c.282-.056.508-.112.734-.169v-.785zm10.442 9.879c.226.056.452.112.734.168v-.786a15.084 15.084 0 00-.734-.168v.786zm1.975-15.493c-.225-.056-.451-.168-.733-.224v.786c.225.056.451.168.733.224v-.786zm-12.417 14.819c-.282.056-.508.113-.734.169v.786c.282-.056.508-.113.734-.113v-.842zm12.417.393a14.73 14.73 0 00-.733-.168v.786c.225.056.451.112.733.168v-.786zM132.351 35.14c-.282.055-.452.112-.734.168v.786c.282-.057.508-.113.734-.169v-.786zm0 6.567a4.863 4.863 0 00-.734.168v.786c.282-.056.508-.112.734-.168v-.786zm0 3.929c-.282.056-.508.112-.734.169v.785c.282-.056.508-.112.734-.168v-.786zm12.982.056l.677.169v-.786l-.677-.169v.786zm-5.814-14.594v-.786c-.225-.112-.451-.169-.733-.225v.786c.169 0 .451.112.733.225zm3.274 7.353c.226.056.452.112.734.225v-.786a5.252 5.252 0 01-.734-.225v.786zm3.838 3.705c.226.056.395.112.677.168v-.785l-.677-.169v.786zm-.564 8.139l-.678-.168v.786l.678.168v-.786zm-13.434-18.861c-.282.057-.508.169-.677.169v.786c.282-.056.451-.113.677-.169v-.785zm-1.975 1.292c.282-.057.508-.113.677-.169v-.786a5.87 5.87 0 00-.677.169v.786zm14.675.392c.226.057.451.169.677.225v-.73c-.226-.056-.451-.168-.677-.224v.73zm-2.54.618v.786c.226.056.452.112.677.224v-.785a2.389 2.389 0 00-.677-.225zm.734 9.374a15.084 15.084 0 00-.734-.168v.786c.226.056.452.112.734.168v-.786zm1.298 1.628a15.084 15.084 0 00-.734-.168v.73c.226.056.452.112.734.168v-.73zm-.734-8.532c.226.056.452.168.734.224v-.785c-.226-.057-.452-.169-.734-.225v.786zm.677 7.241a14.73 14.73 0 00-.733-.168v.785c.225.057.451.113.733.169v-.786zm-.677-6.68v.786c.226.056.452.112.734.225v-.786c-.226-.056-.452-.169-.734-.225zm1.242 1.179c.226.056.451.112.734.168v-.73a5.252 5.252 0 01-.734-.224v.786zm.734 3.312l-.678-.169v.786l.678.169v-.786zm-3.274 5.108l.677.168v-.786l-.677-.168v.786zm3.274.056l-.678-.168v.785l.678.169v-.786zm-2.54-5.164v-.786a9.057 9.057 0 01-.734-.225v.786c.226.112.452.169.734.225zm2.54-6.455a3.202 3.202 0 01-.678-.225v.786c.226.056.395.112.678.224v-.785zm0 5.164l-.678-.169v.786c.226.056.452.112.678.225v-.842zm0-1.291c-.226-.056-.395-.113-.734-.225v.786c.226.056.451.112.734.224v-.785zm1.241 4.21c-.225-.056-.395-.113-.677-.169v.786l.677.169v-.786zm-4.515-7.073c.226.056.452.112.734.224v-.785c-.226-.057-.395-.113-.734-.225v.786zm2.54.056v.786c.226.056.451.112.677.224v-.785c-.169-.113-.395-.169-.677-.225zm-.565 13.584v-.786a14.619 14.619 0 00-.733-.168v.786c.282.056.508.112.733.168zm2.54-2.75l-.677-.169v.786l.677.169v-.786zm-1.241-2.863l-.678-.169v.786l.678.169v-.786zm1.241-7.354c-.225-.056-.451-.112-.677-.224v.786l.677.168v-.73zm-.677 1.853c.226.056.395.112.677.168v-.73a4.77 4.77 0 01-.677-.224v.786zm.677-3.144a4.77 4.77 0 01-.677-.224v.786c.226.056.395.112.677.168v-.73zm-15.973-4.715c-.282.056-.452.113-.677.169v.785a5.87 5.87 0 00.677-.168v-.786zm13.433.393c-.225-.056-.451-.168-.733-.224v.785c.225.057.395.169.733.281v-.842zm2.54 9.43l-.677-.168v.73c.226.056.452.112.677.224v-.785zm-.677 9.599l.677.169v-.786l-.677-.169v.786zm-.621-18.58c-.226-.056-.451-.168-.677-.224v.73c.226.056.451.168.677.224v-.73zm-10.893 19.085c-.282.057-.508.113-.79.113v.561h.79v-.674zM95.042 12.798h.452v-2.301h-.452v2.301zm1.468 7.129h-.508v6.063h.508v-6.063zm-1.016-1.347h-.452v1.965h.452V18.58zm1.016-6.455h-.508v2.357h.508v-2.357zm0 17.962h-.508v1.965h.508v-1.965zm1.919-15.156h-.452v1.965h.452v-1.965zm1.975 5.277h-.395v5.22h.395v-5.22zm-.395 11.844h.395v-5.22h-.395v5.22zm.395 2.189v-.786h-.395v1.684l.113-.224c.113-.225.169-.45.282-.674zM98.26 12.069h-.452v1.515h.451V12.07zm2.144-1.853h-.395v5.95h.395v-5.95zm-4.967-5.838h-.451v4.94h.451v-4.94zm-2.088 8.813h-.452v2.302h.452V13.19zm2.145 19.366h-.452v1.179c.17.056.339.112.452.168v-1.347zm-2.145-4.94h-.452v1.965h.452v-1.965zM96.51 8.644h-.395v2.358h.395V8.644zm0 20.601v-1.964h-.395v1.964h.395zm5.588-20.208h.451V7.522h-.451v1.515zm-8.749 8.982h-.395v1.235h.395v-1.235zm-.395 6.062h.395v-1.235h-.395v1.235zm0-2.245h.395V20.6h-.395v1.235zm0 4.771h.395v-1.235h-.395v1.235zm.395 5.333v-1.235h-.395v1.235h.395zm0 1.122h-.395v.618c.113-.056.282-.056.395-.112v-.506zm0-23.407h-.452v2.357h.452V9.655zm3.612 17.906h.508v-4.94l-.508.057v4.883zm0 5.894h.452v-1.964h-.452v1.964zm.395-4.883h-.451v1.964h.451v-1.964zm-.733-23.464h-.452v1.516h.451V5.108zm-.113 13.304v-1.965h-.395v1.965h.395zm-1.13 11.282h-.507v1.965h.508v-1.965zm0-2.918h-.394v1.964h.395v-1.964zm.057-3.93v-1.572l-.395.057v1.571c.17-.056.282-.056.395-.056zm.057.954h-.452v1.235h.452V23.8zm16.086-9.542h-.508v3.424h.508v-3.424zm-.508 7.353h.508v-3.424h-.508v3.424zm0 4.098h.508v-3.424h-.508v3.424zm0 3.929h.508v-3.424h-.508v3.424zm-8.523-9.318h-.508v3.424h.508V20.32zm-.508 7.354h.508V24.25h-.508v3.424zm.057 3.76l.112.057.057-.113.226.056v-3.087h-.508v3.144l.113-.056zm7.168-21.386h.395V5.95h-.395v4.098zm2.258-.505h-.452v2.245h.452V9.543zm.056 22.284l-.395-.056v3.761h.395v-3.705zm-4.911-13.584h-.338v1.179h.338v-1.179zm0 2.246h-.338v1.178h.338V20.49zm0 2.245h-.338v1.179h.338v-1.18zm5.814-4.491h-.339v1.179h.339v-1.179zm0 2.246h-.339v1.178h.339V20.49zm0 2.245h-.339v1.179h.339v-1.18zm0 1.964h-.339v1.18h.339v-1.18zm0-19.702h-.339v1.403h.339V4.996zm0 2.638h-.339v1.403h.339V7.634zm0 2.414h-.339v1.403h.339v-1.403zm0 16.896h-.339v1.179h.339v-1.18zm0 2.246h-.339v1.178h.339v-1.179zm0 2.02h-.339v1.179h.339V31.21zm0 2.245h-.339v1.18h.339v-1.18zm-5.814-8.532h-.338v1.179h.338v-1.179zm0 2.245h-.338v1.18h.338v-1.18zm-8.24-9.767h-.339v1.179h.339v-1.179zm0 2.246h-.339v1.178h.339v-1.178zm0 2.245h-.339v1.179h.339v-1.18zm0 2.245h-.339v1.179h.339v-1.179zm-.395 3.424h.338v-1.178h-.338v1.178zM110.508 3.48h-.339v1.404h.339V3.48zm0 2.695h-.339v1.403h.339V6.175zm0 2.638h-.339v1.403h.339V8.813zm0 2.638h-.339v1.403h.339v-1.403zm0 2.975h-.339v1.179h.339v-1.179zM106.782 3.2h-.338v1.403h.338V3.2zm0 2.638h-.338V7.24h.338V5.838zm0 2.638h-.338V9.88h.338V8.476zm0 2.694h-.338v1.404h.338V11.17zm0 2.976h-.338v1.178h.338v-1.178zM94.365 5.445h-.339v1.403h.339V5.445zm0 2.695h-.339v1.403h.339V8.139zm0 2.637h-.339v1.404h.339v-1.403zm0 3.088h-.339v1.179h.339v-1.18zm0 1.908h-.339v1.18h.339v-1.18zm0 2.246h-.339v1.179h.339v-1.18zm0 2.245h-.339v1.179h.339v-1.179zm0 2.189h-.339v1.179h.339v-1.179zm14.336-6.511h-.338v1.179h.338v-1.18zm0 2.245h-.338v1.179h.338v-1.179zm0 2.245h-.338v1.18h.338v-1.18zm0 2.246h-.338v1.178h.338v-1.178zm0 7.465h-.338v1.18h.338v-1.18zm-.338 3.425h.338v-1.18h-.338v1.18zm.282 2.077l.056.056v-1.067h-.338v.898c.056.056.169.056.225.113h.057zm-7.225-6.175h-.338v1.179h.338v-1.18zm-.282 3.031l.282-.393v-.337h-.338v.955c0-.169.056-.225.056-.225zm.282-11.844h-.338v1.235h.338v-1.235zm0 2.245h-.338v1.18h.338v-1.18zm0 2.246h-.338v1.178h.338v-1.178zm0 2.245h-.338v1.179h.338v-1.18zm0-16.279h-.338v1.404h.338v-1.404zm0 3.032h-.338v1.178h.338v-1.178zm0 2.189h-.338v1.178h.338v-1.178zm0 2.245h-.338v1.179h.338V18.58zm0-14.65h-.338v1.403h.338V3.929zm0 2.638h-.338V7.97h.338V6.568zm0 2.638h-.338v1.403h.338V9.206zm-7.055 15.492h-.339v1.18h.339v-1.18zm0 1.909h-.339v1.179h.339v-1.179zm0 2.245h-.339v1.18h.339v-1.18zm0 2.246h-.339v1.178h.339v-1.178zm0 2.245h-.339v.225a.72.72 0 01.339.056v-.281zm8.071-17.85h-.451v1.347h.451v-1.347zm0-2.358h-.451v1.572h.451v-1.572zm0-2.245h-.451v1.571h.451V10.89zm2.992 8.869h-.452v5.445h.452v-5.445zm-3.387 0h.452v-2.021h-.452v2.02zM99.501 7.41h-.508v4.041h.508V7.41zm0 4.715h-.508v4.041h.508v-4.041zm0 4.659h-.508v3.424h.508v-3.424zm0 3.986h-.508v3.367h.508V20.77zm0 9.037h-.508v3.424h.508v-3.424zm-.508 6.287h.508v-2.358h-.508v2.358zm.057-29.358h.451V4.378h-.451v2.358zm1.354-2.638h-.451V9.15h.451V4.098zm5.193 9.992h-.508v3.48h.508v-3.48zm-.169 18.58h-.452v4.041c.113-.112.282-.224.452-.337V32.67zm-.283-2.19h.508V27h-.508v3.48zm2.54-20.488h-.338v2.357h.338V9.992zm0 4.154h-.338v1.964h.338v-1.964zm0-9.15h-.338v2.357h.338V4.996zm0 20.544h-.338v1.965h.338v-1.964zm0-4.21h-.338v1.965h.338v-1.964zm0-3.76h-.338v1.964h.338V17.57zm1.581 14.931h.395v-3.48h-.395v3.48zm.395-7.41h-.395v3.48h.395v-3.48zm0-3.929h-.395v3.48h.395v-3.48zm-.339 15.886l-.056.393v.898h.395v-3.593h-.395v1.46c.113.224.113.505.056.842zm-1.637-4.603h-.338v1.965h.338v-1.965zm0-4.21h-.338V30.2h.338v-1.965zm1.976-12.125h-.395v3.48h.395v-3.48zm-.057-4.098l-.395-.056v2.077h.395v-2.02zm-5.926 24.811h.339v-.786.057c-.113.168-.226.449-.339.73zm.169-5.052h.113V30.65l-.451-.056v1.122h.056l.282.056zm.17-7.297h-.396v3.48h.396v-3.48zm-.508-1.796h.395v-1.684l-.395-.056v1.74zm0-2.47h.395v-1.684l-.395-.056v1.74zm0-2.47h.395v-1.684l-.395-.056v1.74zm0-2.638h.395v-1.965l-.395-.056v2.02zm.451-4.94l-.395-.056v2.02h.395V10.16zm-.395-.73h.395V5.333h-.395V9.43zm-6.095 4.716h-.509v2.357h.508v-2.357zm-.057-3.481h-.395v2.358h.395v-2.358zm.169-3.536h-.451v1.515h.451V7.13zm-.564 11.283v1.964h.395v-1.964h-.395zm.452-14.146l-.396.056v1.684h.395v-1.74zm.902-2.863l-.451.169v4.041h.451v-4.21zm1.073-.336l-.226.056-.282.112v2.47h.451l.057-2.638zM101.42.28l-.338.113v2.19h.338V.28zm-8.015 2.976l-.451.168v5.052h.451v-5.22zm3.161-1.179l-.395.168v1.572h.395v-1.74zM102.493.45l-.452-.113v4.266h.452V.449zm-8.128 2.469l-.339.112V4.21h.339V2.919zm1.072-.393l-.451.168v1.067h.451V2.526zm8.41-1.74l-.395-.112v2.919h.395V.786zm5.757 1.347l-.395-.112v1.852h.395v-1.74zm1.976.449l-.395-.112v4.098h.395V2.582zm-5.87-1.403l-.452-.112V12.46h.452V1.18zm6.773 1.628l-.339-.113v1.01h.339v-.897zm-3.895-.955l-.338-.056v2.021h.338V1.852zm-1.806-.392l-.338-.113v1.235h.338V1.46zm.903.224l-.338-.056v2.02h.338V1.685zm42.728 51.923c-.452 0-.621-.056-.678-.112h-.508 1.129c.057 0 .057 0 0 0-.113 0-.113 0 .057-.056.113 0 .113 0 0 0-.395 0-.847 0-1.242-.056h-.056.79-1.468c-.338 0-.508-.057-.846 0h-2.315c-.846-.057-1.693-.057-2.539-.057-.339 0-29.915-.336-30.31-.336-1.242 0-11.345-.113-12.587-.113h-5.306c-1.41-.056-1.41 0-2.145-.056H82.343c-.396 0-3.895-.056-4.798-.056l-33.866-.056h-1.637c-1.919 0-1.806 0-8.636.112h-1.862c-1.073 0-2.089.056-3.218.056h.904c-.396 0-.734 0-1.073.056-1.75.057-3.5.057-5.25.113-.564 0-1.184 0-1.749.056-.903 0-1.806.056-2.71.056-.733 0-1.41.056-2.144.056-1.185.056-2.427.056-3.612.112h2.088c.508 0 1.072-.056 1.58-.056.565 0 1.13-.056 1.694-.056-.452 0-.847 0-1.298.056h1.185-2.427c-.508 0-1.016 0-1.58.056-.79 0-1.581.056-2.371.056H7.499c.847 0 1.693 0 2.596-.056.847 0 1.75 0 2.597-.056h-.621c-.395 0-.847 0-1.185.056H8.91c-.395 0-1.637.169-2.032.169-.734 0-1.467.112-2.201.112H4.62h2.766c.96 0 1.863-.056 2.766-.056h-.17c-.451 0-.846 0-1.241.056H7.33c-.96 0-1.863.056-2.823.056H2.532c-.734 0-.79 0-1.524.056H.5h8.184-1.129c2.371-.056 4.742-.056 7.169-.112-.113 0-.339 0-.452.056h.621c1.016 0 1.976-.056 2.935-.056h.056-.677 1.355c.564 0 1.129 0 1.637-.056.225 0 1.862 0 1.919-.056h1.524c.79 0 1.128 0 1.975-.056h1.298c.508 0 1.073 0 1.58-.056h.622c2.257 0 4.459 0 6.83-.057h2.99c2.259 0 9.257 0 11.854.056 1.919.057 8.015 0 8.748 0h3.952c3.047 0 5.926.057 9.2.057h13.546c2.258 0 4.459.056 6.717.056h-.734c1.355 0 9.821.056 13.095.112.621 0 27.713.337 28.391.337.903 0 2.878.056 3.781.056h5.645c.508 0 1.354 0 2.032-.056h1.975-.395 1.355-1.186c.226 0 .395-.056.621-.056h-.113 1.073-.17c.113 0 .17 0 .283-.056.112 0-.339-.056.113-.113.338 0 2.201-.056 1.693-.112z" fill="#828282"/></svg>