<svg width="151" height="28" fill="none" xmlns="http://www.w3.org/2000/svg"><path d="M98.088 4.182V.035h1.56c.587 0 1.073.194 1.461.581.388.387.582.867.582 1.44 0 .596-.211 1.1-.633 1.51-.421.41-.935.616-1.54.616h-1.43zm1.43-3.874h-.98V3.91h1.105c.455 0 .834-.162 1.137-.486.303-.324.454-.73.454-1.22 0-.533-.166-.983-.496-1.348a1.58 1.58 0 00-1.22-.548zm6.548 1.895l-1.716-.017V3.91l1.989-.03v.302h-2.44V.035h2.41v.303L104.35.314v1.611l1.716-.018v.296zm4.494 1.032a.58.58 0 00-.223-.469c-.148-.122-.421-.282-.816-.48-.424-.213-.723-.406-.9-.58a.908.908 0 01-.264-.676c0-.323.112-.576.336-.758.223-.18.535-.272.934-.272.23 0 .438.031.624.095.186.063.315.126.386.19l.107.088V.77a1.214 1.214 0 00-.178-.157 1.46 1.46 0 00-.229-.14 1.613 1.613 0 00-.324-.106 1.83 1.83 0 00-.421-.048c-.281 0-.493.057-.635.17a.559.559 0 00-.214.464c0 .19.071.346.214.468.142.123.402.277.777.462.432.214.74.41.927.59.186.18.278.404.278.672a.982.982 0 01-.341.773c-.228.2-.557.3-.989.3a2.267 2.267 0 01-.813-.152 2.404 2.404 0 01-.249-.124 1.58 1.58 0 01-.16-.104l-.048-.047v-.408a1.143 1.143 0 00.235.177c.089.06.182.112.279.157a2.065 2.065 0 00.822.181c.285 0 .504-.06.656-.18a.586.586 0 00.229-.483zm3.087-3.2h-.451v4.148h.451V.035zm5.989 1.44h-.433c0-.34-.12-.617-.359-.832-.24-.216-.555-.323-.947-.323-.471 0-.852.164-1.143.491-.291.328-.436.745-.436 1.25 0 .545.161.982.484 1.31.322.328.765.491 1.326.491.392 0 .766-.084 1.122-.254V2.399h-1.264l.053-.272h1.585v1.516a1.452 1.452 0 01-.068.062 1.93 1.93 0 01-.202.136 2.528 2.528 0 01-.336.175 2.566 2.566 0 01-.46.14 2.693 2.693 0 01-.584.062c-.645 0-1.159-.192-1.541-.575-.382-.383-.573-.875-.573-1.475 0-.62.2-1.136.6-1.549.4-.413.905-.619 1.514-.619.499 0 .901.135 1.205.406.305.27.457.627.457 1.07zm2.375 2.707V.006h.136l3.159 3.418V.035h.302v4.177h-.136L122.314.8v3.382h-.303zM134.103.035v.303l-1.632-.024v3.869h-.451V.314l-1.633.024V.035h3.716zm2.475 0h-.45v4.148h.45V.035zm2.452 4.147V.035h.451V3.91l1.912-.03v.302h-2.363zm6.553-1.979l-1.715-.017V3.91l1.988-.03v.302h-2.439V.035h2.41v.303l-1.959-.024v1.611l1.715-.018v.296zm4.494 1.032a.581.581 0 00-.222-.469c-.149-.122-.421-.282-.817-.48-.423-.213-.723-.406-.899-.58a.908.908 0 01-.264-.676c0-.323.111-.576.335-.758.224-.18.536-.272.935-.272.23 0 .438.031.624.095.186.063.314.126.386.19l.107.088V.77a1.161 1.161 0 00-.179-.157 1.406 1.406 0 00-.228-.14 1.592 1.592 0 00-.324-.106 1.83 1.83 0 00-.421-.048c-.281 0-.493.057-.635.17a.559.559 0 00-.214.464c0 .19.071.346.214.468.142.123.402.277.777.462.432.214.74.41.927.59.186.18.279.404.279.672a.98.98 0 01-.342.773c-.227.2-.557.3-.988.3a2.252 2.252 0 01-.813-.152 2.533 2.533 0 01-.25-.124 1.58 1.58 0 01-.16-.104l-.047-.047v-.408a.686.686 0 00.062.056c.025.022.083.062.172.121.089.06.182.112.279.157a2.093 2.093 0 00.822.181c.285 0 .503-.06.656-.18a.585.585 0 00.228-.483z" fill="#46C933"/><path d="M150.448 9.341V28h-3.691v-9.327a5.613 5.613 0 00-2.333-4.562 5.457 5.457 0 00-3.209-1.036 5.454 5.454 0 00-3.209 1.036 5.515 5.515 0 00-1.306 1.313v.004a5.47 5.47 0 00-.71 1.378 5.67 5.67 0 000 3.732c.172.495.41.958.71 1.376.358.51.801.958 1.306 1.317a5.455 5.455 0 003.209 1.036c.499 0 .981-.065 1.44-.19l2.835 2.863a9.081 9.081 0 01-4.275 1.06 9.12 9.12 0 01-5.844-2.107 9.31 9.31 0 01-3.206-5.354 9.555 9.555 0 01-.186-1.866c0-.639.066-1.264.186-1.866a9.117 9.117 0 01.864-2.452c.289-.566.638-1.1 1.036-1.59v-.003c.394-.48.83-.922 1.306-1.313a9.12 9.12 0 015.844-2.107c2.079 0 3.998.695 5.542 1.867V9.34h3.691zm-20.317.189v3.864a5.437 5.437 0 00-1.844-.32c-.648 0-1.271.112-1.847.32a5.59 5.59 0 00-3.695 5.275V28h-3.694V9.343h3.694v1.863a9.182 9.182 0 017.386-1.675zm-24.01-.188c-5.099 0-9.233 4.177-9.233 9.327 0 5.154 4.134 9.33 9.233 9.33 5.101 0 9.236-4.176 9.236-9.33-.001-5.15-4.135-9.327-9.236-9.327zm0 14.926c-3.06 0-5.539-2.505-5.539-5.599 0-3.09 2.479-5.595 5.539-5.595 3.062 0 5.541 2.505 5.541 5.595 0 3.094-2.479 5.599-5.541 5.599zM92.405 23.23l2.636 2.663A9.121 9.121 0 0189.196 28a9.114 9.114 0 01-5.841-2.107 8.91 8.91 0 01-1.306-1.32 9.32 9.32 0 01-2.086-5.9 9.33 9.33 0 013.392-7.224 9.11 9.11 0 015.841-2.107 9.12 9.12 0 015.845 2.107l-2.636 2.662a5.452 5.452 0 00-3.21-1.037 5.473 5.473 0 00-3.208 1.033 5.557 5.557 0 00-1.303 1.324 5.587 5.587 0 00-1.026 3.241 5.607 5.607 0 002.329 4.561 5.471 5.471 0 003.209 1.034 5.448 5.448 0 003.209-1.036zM76.25 9.342V28h-3.692v-9.327a5.604 5.604 0 00-1.026-3.245 5.478 5.478 0 00-1.307-1.317 5.453 5.453 0 00-3.209-1.037 5.452 5.452 0 00-3.209 1.037 5.537 5.537 0 00-1.306 1.313v.004a5.497 5.497 0 00-.837 1.79 5.634 5.634 0 00-.189 1.454 5.602 5.602 0 002.332 4.558 5.452 5.452 0 003.21 1.037c.498 0 .98-.066 1.44-.19l2.834 2.863A9.08 9.08 0 0167.017 28a9.121 9.121 0 01-5.845-2.107 9.314 9.314 0 01-3.206-5.355 9.508 9.508 0 010-3.732 9.125 9.125 0 01.864-2.451 9.12 9.12 0 011.036-1.59v-.004a9.5 9.5 0 011.306-1.312 9.12 9.12 0 015.845-2.107c2.078 0 3.997.695 5.541 1.867V9.342h3.691zM54.104.012H50.41v27.987h3.694V.012zM32.965 15.43a5.323 5.323 0 011.306-1.32 5.435 5.435 0 013.206-1.036c1.196 0 2.304.382 3.21 1.037.508.359.95.806 1.306 1.32.3.418.537.882.71 1.375H32.255c.173-.493.41-.957.71-1.375zm-1.329-3.981a9.317 9.317 0 00-3.206 5.358 9.51 9.51 0 000 3.732 9.298 9.298 0 001.9 4.035c.387.484.827.928 1.306 1.32A9.118 9.118 0 0037.477 28a9.12 9.12 0 005.845-2.106l-2.635-2.662a5.456 5.456 0 01-3.21 1.036 5.438 5.438 0 01-3.205-1.037 5.548 5.548 0 01-2.017-2.692h14.273a9.508 9.508 0 000-3.732 9.318 9.318 0 00-3.206-5.358 9.12 9.12 0 00-5.845-2.106 9.115 9.115 0 00-5.841 2.106zM20.138 3.752A13.732 13.732 0 0011.342.02H.542v27.972h3.691V3.752h5.894a10.868 10.868 0 011.147 0c5.342.3 9.584 4.773 9.584 10.246 0 5.66-4.538 10.251-10.141 10.261h-5.22l3.695 3.732h1.512a13.768 13.768 0 009.415-3.732 14.025 14.025 0 004.434-10.262c0-4.044-1.698-7.687-4.415-10.245z" fill="#000"/><path d="M24.514 15.027a14.029 14.029 0 01-.675 3.413c.935-1.155 1.408-2.324 1.098-2.995a.944.944 0 00-.042-.079 1.52 1.52 0 00-.104-.138 1.06 1.06 0 00-.274-.207l-.003.006z" fill="#46C933"/><path d="M23.84 18.44c-1.454 1.784-4.02 3.531-6.54 3.353a4.413 4.413 0 01-.582-.072c-6.291-1.211-8.125.658-11.224 2.534l3.695 3.732c-.036-.717.042-2.425 1.902-3.245 1.464-.644 3.204-.413 4.748-.183.933.14 1.794.28 2.481.226.658-.052 1.316-.296 1.948-.678 2.647-1.588 4.842-5.564 4.856-7.738v-.041c-.002-.348-.062-.648-.187-.883.31.671-.163 1.84-1.098 2.995z" fill="#46C933"/></svg>