<svg width="151" height="48" fill="none" xmlns="http://www.w3.org/2000/svg"><path d="M66.426 26.162l-.655 3.614H54.664v-.337h1.142c.3 0 .505-.188.505-.487v-11.48a.481.481 0 00-.505-.505h-1.142v-.319h5.242v.319h-1.142c-.3 0-.488.206-.488.505V29.44h3.882c1.965 0 3.538-1.274 3.911-3.221l.02-.056h.337zM94.71 17.48v11.491c0 .3.188.487.488.487h1.142v.338h-5.242v-.338h1.142c.3 0 .488-.188.488-.487V17.52L88.14 29.796h-.45l-4.586-12.277V28.97c0 .3.206.487.486.487h1.162v.338h-3.614v-.338h1.143c.299 0 .505-.188.505-.487V17.48a.48.48 0 00-.505-.505H81.14v-.32h3.745l3.913 10.46 3.93-10.46h3.613v.32h-1.142c-.3 0-.487.205-.487.505zm-19.533-.51c1.722 0 3.107.63 3.82 2.649l.148-.02v-2.776h-.336v.407c0 .203-.075.297-.206.297a.436.436 0 01-.188-.056c-.973-.537-2.133-.815-3.444-.815-3.928 0-6.546 2.588-6.55 6.637v.004l-.001.005c.005 4.048 2.623 6.636 6.55 6.636 1.312 0 2.472-.278 3.445-.815a.432.432 0 01.188-.055c.131 0 .206.093.206.297v.407h.337v-2.777l-.15-.019c-.712 2.018-2.097 2.648-3.82 2.648-2.955 0-4.79-1.832-4.791-6.327.001-4.495 1.836-6.326 4.792-6.326z" fill="#000"/><path d="M.5 0v46.483h75.002v-.66H1.152V.66h148.696v45.165h-5.981v.659h6.633V0H.5z" fill="#000"/><path d="M79.722 47.158a.788.788 0 01-.376-.08.427.427 0 01-.206-.256 1.479 1.479 0 01-.057-.425c0-.442.105-.973.315-1.591.21-.62.442-1.246.697-1.878.317-.784.552-1.46.705-2.027-.019-.006-.035-.03-.048-.069-.012-.039-.173-.174-.09-.436.061-.188.173-.194.28-.186.08.005.11.045.173.138a.439.439 0 01.038.188.962.962 0 01-.005.104.458.458 0 01-.014.083c-.172.647-.458 1.444-.858 2.392-.274.666-.52 1.307-.74 1.923-.22.615-.329 1.108-.329 1.477a.93.93 0 00.038.278c.063.124.197.187.4.187.16 0 .352-.026.578-.079.225-.053.472-.115.74-.188.317-.092.645-.177.982-.252.337-.075.651-.114.944-.114.343 0 .633.08.868.237.025.02.038.037.038.05 0 .014-.01.02-.029.02a.134.134 0 01-.056-.02 1.228 1.228 0 00-.678-.178c-.267 0-.556.038-.868.114-.312.075-.627.163-.944.262-.286.085-.56.161-.82.226-.262.066-.487.1-.678.1zm18.778-.332c-.151 0-.234-.117-.247-.354 0-.135.06-.484.172-.77.154-.383.315-.489.363-.688.023-.098-.087-.013-.236-.095a.81.81 0 01-.232-.18 1.365 1.365 0 01-.134-.177.39.39 0 01-.057-.21c0-.035.006-.085.02-.15a.618.618 0 01.061-.177.138.138 0 01.13-.08.2.2 0 01.118.038.109.109 0 01.052.091l-.01.043c-.088.164-.132.29-.132.375a.4.4 0 00.018.134c.014.031.12.112.172.138.286.135.709-.108.323.482-.427.653-.418 1.08-.418 1.194 0 .158.05.233.152.225.153 0 .377-.14.673-.423.296-.282.575-.582.839-.9.264-.317.437-.558.52-.722.026-.042.048-.064.067-.064.025 0 .041.018.047.053l-.019.065c-.115.235-.311.519-.591.851-.28.332-.58.632-.897.9-.318.267-.569.401-.754.401zM85.29 48l-.066-.011.01-.067-.02.056c-.165-.125-.248-.395-.248-.808 0-.347.048-.766.143-1.26a1.054 1.054 0 00-.133-.133.974.974 0 01-.11-.105.176.176 0 01-.043-.117c0-.036.018-.06.053-.071a1.21 1.21 0 01.167-.039c.05-.015.11-.03.18-.045.153-.649.345-1.285.578-1.908.232-.623.49-1.14.739-1.57.812-1.403 1.634-1.944 1.234-.302-.038.156-.321.874-.404 1.036a5.84 5.84 0 01-.835 1.212c-.346.395-.66.688-.94.88-.063.206-.12.408-.171.608a8.34 8.34 0 001.206-.371c.436-.165.755-.373.96-.625.005-.007.015-.01.028-.01a.06.06 0 01.038.016c.013.011.02.023.02.039a.12.12 0 01-.01.044c-.23.273-.575.495-1.036.664-.46.17-.875.295-1.244.375l-.057.277-.039.156c.109.19.202.41.282.658.08.246.12.485.12.713 0 .163-.031.32-.092.475-.06.155-.163.233-.31.233zm-.142-2.279l.037-.177-.162.044c.045.03.086.075.125.133zm.152 2.146c.108 0 .183-.066.224-.198.041-.134.062-.262.062-.388 0-.376-.11-.764-.333-1.161-.103.486-.153.884-.153 1.194 0 .288.05.468.153.542l.047.011zm.344-3.308c.33-.25.668-.593 1.016-1.028.346-.435.513-.764.699-1.16.273-.599 1.02-3.086-.876-.007-.37.6-.586 1.37-.84 2.195zm44.131 1.218c-.061-.029-.048-.087-.048-.087l.32-1.264a.103.103 0 01.041-.064.122.122 0 01.073-.021.12.12 0 01.072.021c.02.014.031.039.031.075l-.269.974c.131-.3.272-.573.439-.814.362-.522.585-.308.609-.24a.806.806 0 01.036.262c0 .221-.031.46-.093.717.014-.028.038-.079.071-.138.062-.122.101-.232.196-.385.406-.65.619-.33.605-.18-.012.128-.109.406-.174.588-.047.132-.16.43.004.415.089-.008.25-.082.48-.246a8.24 8.24 0 00.646-.509c.199-.175.323-.294.371-.358.014-.022.031-.033.052-.033.014 0 .024.006.031.017.007.01.01.022.01.038l-.01.03a2.6 2.6 0 01-.227.226 8.71 8.71 0 01-.47.401c-.183.147-.374.266-.547.391-.347.251-.591.117-.619.002-.017-.071.009-.14.041-.222a9.14 9.14 0 01.098-.25c.065-.178.145-.445.157-.53.01-.068-.123-.155-.386.284-.094.157-.152.288-.231.438-.078.15-.12.251-.139.3-.019.046-.037.071-.069.09-.069.04-.152.022-.174-.004-.017-.022-.039-.055.006-.247.04-.143.085-.303.133-.482.048-.178.074-.325.074-.439 0-.086-.081-.336-.409.129-.13.184-.244.383-.351.594-.107.21-.181.365-.222.465-.044.085-.112.078-.158.056z" fill="#000"/><path d="M83.97 45.91c-.13 0-.224-.051-.283-.156a.697.697 0 01-.088-.344c0-.188.035-.386.104-.595.068-.208.127-.375.175-.5.02-.05.055-.074.103-.074.034 0 .067.011.098.032.031.02.047.045.047.073v.02a5.54 5.54 0 00-.207.549 2.04 2.04 0 00-.124.63c0 .098.014.162.042.194.027.031.075.05.144.057.152 0 .332-.084.542-.25a5.91 5.91 0 00.589-.538 46 46 0 00.408-.433.117.117 0 01.02-.031c.014-.014.028-.021.042-.021a.06.06 0 01.04.016c.014.01.022.022.022.036l-.021.042c-.069.084-.2.228-.392.433-.194.205-.407.4-.64.584-.235.185-.441.277-.62.277zm.187-2.013c-.028 0-.041-.021-.041-.063a.518.518 0 01.109-.266c.03-.038.056-.057.076-.057.028 0 .048.01.062.032.014.02.02.048.02.083a.284.284 0 01-.077.177c-.051.063-.101.094-.15.094zm3.288 2.055a.603.603 0 01-.377-.114.396.396 0 01-.15-.335c0-.125.04-.274.118-.448.08-.174.188-.337.326-.49.255-.244.468-.366.64-.366.138 0 .213.07.227.21 0 .131-.11.29-.33.474-.22.185-.489.297-.806.339a.945.945 0 00-.04.25c0 .23.11.338.33.324.192 0 .435-.075.728-.225.292-.149.562-.32.81-.51.248-.192.42-.36.516-.507.014-.02.028-.031.042-.031.014 0 .027.008.041.026.014.017.02.033.02.047l-.01.021a4.916 4.916 0 01-.594.579c-.278.24-.576.444-.893.61a1.49 1.49 0 01-.599.146zm-.3-.845c.124-.041.26-.104.408-.188.148-.083.277-.175.387-.276.11-.1.166-.183.166-.245 0-.049-.035-.077-.104-.084-.11 0-.251.072-.423.214a1.646 1.646 0 00-.424.548c-.006.007-.01.012-.01.016v.015zm7.048 2.003c-.53 0-.912-.147-1.146-.443-.234-.296-.351-.677-.351-1.142 0-.425.072-.846.216-1.263.22-.64.533-1.262.935-1.867a6.778 6.778 0 011.353-1.518c.499-.407.99-.61 1.472-.61.502.007.754.344.754 1.011 0 .314-.075.654-.223 1.023a3.13 3.13 0 01-.666 1.012.403.403 0 01-.18.161.53.53 0 01-.212.048.273.273 0 01-.124-.026c-.035-.018-.052-.047-.052-.09 0-.075.114-.194.341-.354.268-.18.49-.455.666-.824.176-.368.263-.717.263-1.043 0-.23-.05-.413-.15-.548-.1-.136-.26-.207-.48-.214-.378 0-.797.197-1.254.59a7.64 7.64 0 00-1.296 1.47 8.807 8.807 0 00-.971 1.81 3.5 3.5 0 00-.279 1.336c0 .41.1.723.3.939.2.215.547.337 1.043.365.489 0 .988-.125 1.497-.376.51-.25.974-.563 1.394-.939.42-.375.754-.761 1.002-1.158.04-.055.075-.083.103-.083.02 0 .034.017.042.053 0 .02-.011.044-.031.072-.256.41-.596.814-1.023 1.21a6.34 6.34 0 01-1.42.997c-.52.267-1.027.401-1.523.401zm6.599-1.169a.6.6 0 01-.377-.114c-.1-.076-.15-.188-.15-.334 0-.125.04-.275.118-.449a1.94 1.94 0 01.326-.49c.255-.243.468-.365.64-.365.138 0 .213.07.227.209 0 .132-.11.29-.33.474-.22.185-.489.298-.806.34a.966.966 0 00-.041.25c0 .23.11.338.331.323.192 0 .435-.074.728-.224.292-.15.562-.32.81-.511s.42-.36.517-.506c.013-.021.027-.032.041-.032.014 0 .027.01.041.027.014.017.021.033.021.046l-.011.022a4.929 4.929 0 01-.593.578 4.77 4.77 0 01-.893.61 1.5 1.5 0 01-.599.146zm-.3-.844c.124-.042.26-.105.408-.188a2.03 2.03 0 00.387-.277c.11-.1.166-.182.166-.245 0-.048-.035-.076-.104-.083-.11 0-.251.071-.423.214a1.648 1.648 0 00-.424.547c-.006.008-.01.013-.01.016v.016z" fill="#000"/><path d="M102.496 45.92c-.118 0-.19-.096-.217-.291 0-.23.096-.501.289-.814.192-.313.403-.49.63-.532.123 0 .241.073.351.219a.513.513 0 00.093-.125.28.28 0 01.041-.078.076.076 0 01.062-.027c.027 0 .057.014.087.042.032.028.047.06.047.094l-.01.042a3.54 3.54 0 00-.155.417 1.604 1.604 0 00-.083.48.49.49 0 00.052.24.175.175 0 00.165.094c.131 0 .301-.073.511-.22.21-.145.415-.305.615-.48a8.332 8.332 0 00.485-.448l.041-.02c.014 0 .026.006.037.02.01.014.015.028.015.042 0 .014-.007.028-.021.042l-.041.041c-.11.112-.267.257-.47.433-.203.178-.418.34-.645.486-.227.145-.424.219-.589.219-.124 0-.215-.045-.274-.136a.604.604 0 01-.087-.334c0-.097.01-.194.031-.292.02-.097.041-.18.062-.25-.145.25-.314.502-.506.756-.193.254-.365.38-.516.38zm-.021-.083c.103 0 .248-.123.434-.37.185-.246.35-.488.495-.725-.055-.111-.124-.167-.206-.167-.111 0-.227.077-.351.23a2.59 2.59 0 00-.32.505c-.09.185-.135.325-.135.423 0 .077.028.111.083.104z" fill="#000"/><path d="M105.371 47.145h-.021a.35.35 0 01-.144-.032.478.478 0 01-.186-.192c-.034-.074-.052-.2-.052-.382v-.072c.021-.39.12-.861.295-1.414a31 31 0 01.573-1.643c.055-.153.107-.299.155-.438a9.28 9.28 0 01-1.167.083h-.114a1.423 1.423 0 01-.521-.099c-.134-.059-.202-.151-.202-.276v-.011l.021-.042a.402.402 0 00.016-.036c.003-.011.012-.016.025-.016.015 0 .028.007.042.021.014.014.02.038.02.073l-.01.042c0 .132.148.202.444.208h.145c.317 0 .695-.03 1.135-.093l.228-.021c.199-.543.309-.929.33-1.158v-.084c0-.028.007-.048.021-.062.014-.014.027-.021.041-.021.014 0 .024.003.031.01a.467.467 0 01.052.22v.072c-.014.257-.086.588-.217.992a9.977 9.977 0 011.033-.063h.134c.247.007.427.049.537.125a.208.208 0 01.051.042.274.274 0 01.052.073c.021.02.031.038.031.052-.007.02-.021.031-.041.031a.738.738 0 01-.119-.036.49.49 0 01-.124-.068c-.038-.028-.057-.048-.057-.063 0-.014.024-.02.072-.02a.35.35 0 01-.092-.021.164.164 0 01-.042-.006.198.198 0 00-.051-.005h-.083c-.337 0-.785.042-1.343.125-.117.355-.247.727-.392 1.117-.193.508-.361.99-.506 1.444-.145.456-.227.826-.248 1.111 0 .154.025.269.073.345.02.02.041.035.062.041a.212.212 0 00.113.032h.011c.199 0 .45-.116.754-.35.302-.233.586-.485.851-.756s.446-.487.543-.647c.02-.02.041-.031.062-.031.013 0 .025.007.036.02.01.015.015.029.015.043l-.01.03c-.103.175-.289.401-.558.68a7.048 7.048 0 01-.883.771c-.32.237-.593.355-.821.355z" fill="#000"/><path d="M107.886 45.91c-.131 0-.225-.051-.284-.156a.697.697 0 01-.088-.344c0-.188.035-.386.104-.595.068-.208.127-.375.175-.5.021-.05.055-.074.103-.074.034 0 .067.011.098.032.031.02.047.045.047.073v.02a5.564 5.564 0 00-.206.549 2.042 2.042 0 00-.125.63c0 .098.014.162.042.194.027.031.075.05.144.057.152 0 .332-.084.542-.25a5.91 5.91 0 00.589-.538 46 46 0 00.408-.433.128.128 0 01.02-.031c.014-.014.028-.021.042-.021.014 0 .027.005.041.016.014.01.021.022.021.036l-.021.042c-.069.084-.2.228-.392.433a6.02 6.02 0 01-.64.584c-.235.185-.441.277-.62.277zm.186-2.013c-.028 0-.041-.021-.041-.063 0-.034.01-.077.03-.13a.536.536 0 01.078-.136c.031-.038.057-.057.077-.057.028 0 .048.01.062.032.014.02.021.048.021.083a.282.282 0 01-.078.177c-.051.063-.101.094-.149.094zm15.551 1.909a.386.386 0 01-.263-.094.313.313 0 01-.109-.25.926.926 0 01.114-.391c.068-.129.144-.245.227-.35-.049-.027-.072-.066-.072-.114 0-.056.018-.101.056-.136a.635.635 0 01.222-.105l.042-.062a.083.083 0 01.031-.047c.013-.01.041-.016.082-.016a.25.25 0 01.104.026c.034.018.051.037.051.058 0 .007-.004.014-.01.02v.011l-.011.01-.01.01a.277.277 0 01.15.136.81.81 0 01.067.199c.179 0 .382-.014.609-.042a1.77 1.77 0 00.537-.136l.031-.01a.07.07 0 01.052.02c.013.015.02.029.02.042 0 .022-.014.04-.041.053a1.97 1.97 0 01-.558.14c-.233.032-.45.05-.65.058v.052c0 .271-.074.492-.222.663-.148.17-.298.255-.449.255zm0-.104c.082 0 .177-.05.284-.151a.958.958 0 00.242-.433 1.45 1.45 0 00.031-.282.853.853 0 01-.108-.005.377.377 0 00-.057-.005h-.046a.261.261 0 01-.057-.011 1.285 1.285 0 00-.114-.02 3.114 3.114 0 00-.222.401.885.885 0 00-.098.339c0 .111.049.167.145.167zm.547-.991c-.021-.118-.076-.199-.165-.24l-.145.219c.089.014.193.02.31.02z" fill="#000"/><path d="M125.575 46.182h-.031c-.118 0-.198-.047-.244-.14a.85.85 0 01-.066-.36c0-.202.029-.423.087-.663a16.308 16.308 0 01.192-.725.3.3 0 01.087-.152.185.185 0 01.119-.047c.027 0 .055.013.082.037a.125.125 0 01.042.1.364.364 0 01-.062.166c-.097.153-.183.37-.258.652a2.856 2.856 0 00-.114.725c0 .167.042.26.124.282h.021c.13-.035.283-.193.459-.475.176-.282.343-.59.501-.923a.28.28 0 01-.072-.188l.01-.073a1 1 0 01.119-.35c.065-.121.134-.226.206-.313.073-.086.13-.13.171-.13.027 0 .044.028.051.084 0 .09-.058.285-.175.584l-.165.355c.041.02.099.038.175.052h.093c.227 0 .589-.066 1.084-.199h.011c.014 0 .024.008.03.021a.092.092 0 01.011.042c0 .02-.011.038-.031.052-.489.14-.854.209-1.095.209l-.124-.01a.882.882 0 01-.206-.064 7.085 7.085 0 01-.527.945c-.192.289-.361.457-.505.506zm1.001-1.649c.048-.103.093-.208.134-.313.083-.201.124-.316.124-.344l-.01-.01c-.007 0-.025.02-.052.062a1.522 1.522 0 00-.165.34 1.055 1.055 0 00-.041.14l-.011.063.021.062z" fill="#000"/><path d="M128.032 45.941a.603.603 0 01-.377-.114c-.1-.076-.15-.188-.15-.334 0-.125.04-.275.119-.449a1.95 1.95 0 01.325-.49c.255-.243.468-.365.64-.365.138 0 .214.07.228.209 0 .132-.111.29-.331.474-.22.185-.489.298-.805.34a.93.93 0 00-.042.25c0 .23.111.338.331.323.193 0 .435-.074.728-.224.293-.15.563-.32.811-.511.248-.191.419-.36.516-.506.013-.021.027-.032.041-.032.014 0 .027.01.041.027.014.017.021.033.021.046l-.01.022a4.878 4.878 0 01-.594.578c-.279.24-.576.444-.893.61a1.49 1.49 0 01-.599.146zm-.3-.844c.124-.042.26-.105.408-.188a2.03 2.03 0 00.387-.277c.11-.1.166-.182.166-.245 0-.048-.035-.076-.104-.083-.11 0-.251.071-.423.214a1.646 1.646 0 00-.423.547c-.007.008-.011.013-.011.016v.016zm5.514.844a.6.6 0 01-.376-.114c-.1-.076-.15-.188-.15-.334 0-.125.04-.275.118-.449a1.94 1.94 0 01.326-.49c.254-.243.468-.365.64-.365.138 0 .213.07.227.209 0 .132-.11.29-.33.474a1.54 1.54 0 01-.806.34.966.966 0 00-.041.25c0 .23.11.338.33.323.193 0 .436-.074.728-.224.293-.15.563-.32.811-.511.248-.191.42-.36.516-.506.014-.021.028-.032.042-.032.014 0 .027.01.041.027.014.017.021.033.021.046l-.011.022a4.853 4.853 0 01-.593.578c-.279.24-.577.444-.894.61-.22.098-.419.146-.599.146zm-.299-.844c.124-.042.26-.105.408-.188a2.03 2.03 0 00.387-.277c.11-.1.165-.182.165-.245 0-.048-.034-.076-.103-.083-.11 0-.251.071-.423.214a1.648 1.648 0 00-.424.547c-.007.008-.01.013-.01.016v.016z" fill="#000"/><path d="M135.033 45.764a.109.109 0 01-.062-.02c-.021-.014-.031-.032-.031-.053v-.02l.32-1.231a.106.106 0 01.041-.063.13.13 0 01.073-.02.11.11 0 01.072.025c.021.018.031.04.031.068v.031l-.248.845c.165-.285.331-.53.496-.735.165-.205.313-.308.444-.308h.041c.124.035.186.122.186.26 0 .175-.048.38-.144.616-.069.175-.104.303-.104.386 0 .035.011.06.031.073l.041.01c.104 0 .273-.08.506-.244.235-.163.453-.333.656-.507.203-.173.322-.288.357-.344.013-.02.027-.03.04-.03.014 0 .027.004.037.015a.05.05 0 01.016.036l-.011.031c-.069.09-.211.227-.428.407a7.68 7.68 0 01-.698.517c-.248.163-.443.245-.588.245l-.083-.02c-.055-.029-.082-.084-.082-.168 0-.153.048-.344.144-.574.083-.201.124-.358.124-.469 0-.056-.021-.09-.062-.105h-.01c-.096 0-.215.09-.356.267a4.7 4.7 0 00-.388.568 8.573 8.573 0 00-.247.449.079.079 0 01-.042.047.162.162 0 01-.072.015z" fill="#000"/><path d="M137.596 47.145h-.021a.355.355 0 01-.145-.032.468.468 0 01-.185-.192c-.035-.074-.052-.2-.052-.382v-.072c.021-.39.119-.861.294-1.414.176-.553.367-1.1.574-1.643l.154-.438a9.254 9.254 0 01-1.167.083h-.113a1.43 1.43 0 01-.522-.099c-.134-.059-.201-.151-.201-.276v-.011a.669.669 0 00.036-.078c.004-.011.012-.016.026-.016.014 0 .027.007.041.021.014.014.021.038.021.073l-.01.042c0 .132.148.202.443.208h.145c.317 0 .696-.03 1.136-.093l.227-.021c.2-.543.31-.929.331-1.158v-.084c0-.028.006-.048.02-.062.014-.014.028-.021.041-.021.014 0 .025.003.032.01a.449.449 0 01.051.22v.072c-.014.257-.086.588-.216.992a9.975 9.975 0 011.032-.063h.134c.248.007.427.049.537.125a.296.296 0 01.103.115c.021.02.031.038.031.052-.006.02-.02.031-.041.031a.73.73 0 01-.242-.104c-.039-.028-.057-.048-.057-.063 0-.014.024-.02.072-.02a.373.373 0 01-.093-.021.156.156 0 01-.041-.006.207.207 0 00-.052-.005h-.082c-.338 0-.785.042-1.343.125-.117.355-.248.727-.392 1.117-.193.508-.361.99-.506 1.444-.145.456-.228.826-.248 1.111 0 .154.024.269.072.345.021.02.042.035.062.041a.213.213 0 00.114.032h.01c.2 0 .451-.116.754-.35.303-.233.587-.485.852-.756s.446-.487.542-.647c.021-.02.041-.031.062-.031.014 0 .026.007.036.02.01.015.015.029.015.043l-.01.03c-.103.175-.289.401-.557.68a7.12 7.12 0 01-.883.771c-.321.237-.594.355-.821.355zm-14.667-5.548c-.083-.15-.227-.224-.434-.224-.234.014-.466.167-.697.458a5.858 5.858 0 00-.635 1.018c-.192.386-.348.735-.464 1.048.11-.334.235-.777.377-1.33.14-.553.211-1.035.211-1.445 0-.264-.029-.444-.088-.542-.058-.098-.157-.15-.294-.157-.268 0-.54.197-.816.59-.275.392-.547.88-.816 1.46a55.05 55.05 0 00-.774 1.758 29.22 29.22 0 01-.718 1.617c-.217.445-.394.668-.532.668-.144.014-.216-.191-.216-.616 0-.128.01-.273.025-.425.053-.517.158-.895.387-1.13l.116-.09a.3.3 0 01.285-.018c.054.025.099.028.135.008a.201.201 0 00.089-.128c.017-.062.016-.111-.005-.148-.026-.048-.085-.057-.174-.026-.09.03-.173.068-.252.112-.366.207-.606.557-.693 1.055-.036.202-.048.395-.048.395-.003.066-.008.133-.008.195 0 .627.129.948.328.962.179 0 .398-.256.657-.767.257-.511.538-1.115.841-1.81.241-.57.487-1.12.738-1.648.251-.529.501-.97.749-1.325.247-.355.478-.532.692-.532.055.007.101.02.139.041a.186.186 0 01.083.11c.017.052.026.14.026.266 0 .334-.074.777-.223 1.33a19.21 19.21 0 01-.459 1.492c-.158.442-.258.693-.299.756-.028.028-.042.056-.042.084 0 .042.024.078.072.11.049.03.1.046.155.046a.169.169 0 00.156-.094c.048-.146.139-.387.273-.724.134-.338.294-.693.48-1.065s.384-.695.594-.97c.21-.275.414-.412.614-.412.275.02.413.22.413.595 0 .194-.029.423-.087.688-.059.265-.129.55-.212.856-.097.375-.186.761-.269 1.158a5.616 5.616 0 00-.123 1.137c0 .243.027.472.082.688.055.216.148.411.279.585.034.034.065.052.093.052.021 0 .031-.01.031-.032 0-.028-.021-.073-.062-.135-.138-.216-.207-.501-.207-.856 0-.306.034-.647.104-1.022.068-.376.147-.758.237-1.147.083-.362.155-.71.217-1.044a4.93 4.93 0 00.093-.887c0-.243-.041-.44-.124-.59zm-13.438 4.298a.392.392 0 01-.264-.095.315.315 0 01-.109-.252.935.935 0 01.114-.393c.069-.13.145-.246.228-.352-.048-.027-.072-.066-.072-.115 0-.056.019-.102.057-.136a.632.632 0 01.223-.105l.042-.063a.088.088 0 01.031-.047c.013-.01.041-.016.082-.016.035 0 .07.009.104.026.035.018.052.037.052.058a.026.026 0 01-.01.02v.012l-.01.01-.011.01c.07.029.12.074.151.136.031.064.053.13.067.2.18 0 .385-.014.613-.042a1.76 1.76 0 00.54-.136l.031-.01a.07.07 0 01.052.02c.013.014.021.028.021.042 0 .021-.014.039-.042.052-.139.064-.325.11-.561.142a6.555 6.555 0 01-.654.058v.052c0 .273-.074.495-.223.666-.149.172-.299.258-.452.258zm0-.105c.084 0 .178-.051.286-.153a.963.963 0 00.244-.435c.021-.105.031-.2.031-.283a.8.8 0 01-.109-.005.424.424 0 00-.057-.005h-.047a.267.267 0 01-.057-.011 1.227 1.227 0 00-.114-.02c-.083.125-.157.26-.223.403a.884.884 0 00-.099.34c0 .112.049.169.145.169zm.551-.997c-.021-.119-.077-.2-.166-.241l-.146.22c.09.014.194.021.312.021z" fill="#000"/><path d="M111.111 45.852a.11.11 0 01-.062-.021c-.021-.014-.031-.031-.031-.053v-.02l.321-1.238a.107.107 0 01.042-.063.127.127 0 01.073-.02c.027 0 .052.008.072.026.021.017.031.04.031.068v.03l-.249.85c.166-.286.332-.532.499-.739.166-.206.314-.31.446-.31h.042c.124.036.186.123.186.263 0 .175-.048.381-.145.618-.069.176-.104.305-.104.389 0 .035.011.06.031.073l.042.01c.104 0 .273-.081.509-.246a8.6 8.6 0 00.659-.508c.204-.175.323-.29.358-.347.014-.02.027-.03.041-.03a.05.05 0 01.037.015.05.05 0 01.015.037l-.01.03c-.069.092-.213.228-.431.41a7.748 7.748 0 01-.701.519c-.249.164-.446.247-.592.247l-.082-.021c-.056-.028-.083-.084-.083-.168 0-.154.048-.346.145-.577.083-.203.125-.36.125-.472 0-.056-.021-.09-.063-.105h-.01c-.097 0-.216.09-.358.268a4.757 4.757 0 00-.39.571c-.117.203-.2.353-.249.451a.078.078 0 01-.041.047.162.162 0 01-.073.016zm-19.981.268c0 .173-.14.314-.311.314a.312.312 0 01-.31-.314c0-.173.139-.314.31-.314.171 0 .31.14.31.314zm24.421 0a.312.312 0 01-.31.313.311.311 0 01-.31-.313c0-.173.138-.314.31-.314.171 0 .31.14.31.314z" fill="#000"/></svg>