<svg width="193" height="53" fill="none" xmlns="http://www.w3.org/2000/svg"><path d="M10.134 27.49a.239.239 0 01-.239.238H.24A.239.239 0 010 27.49v-.374c0-.102.083-.154.25-.154 1.756-.076 2.942-1.007 3.558-2.793l7.845-22.6a.216.216 0 00.02-.096L11.46.842c0-.064.026-.096.077-.096h3.846a.52.52 0 00.106.038c.045.013.08.052.106.115l8.132 22.71.005.01c.178.342.321.653.43.933.108.28.233.535.375.765.308.523.814.925 1.52 1.206.589.293 1.127.44 1.615.44.102 0 .154.057.154.172v.355a.239.239 0 01-.24.238H15.99a.239.239 0 01-.24-.238v-.374c0-.102.238-.166.712-.191.474-.026.866-.051 1.173-.077 1.782-.191 2.673-.79 2.673-1.799a1.16 1.16 0 00-.038-.268l-2.903-8.147c0-.003-.002-.005-.003-.008a4.7 4.7 0 01-.075-.169c-.154-.434-.423-.65-.808-.65H9.654c-.385 0-.687.21-.904.63a.87.87 0 00-.058.154l-2.885 8.4v.173c0 .332.174.631.52.9.782.599 1.833.899 3.154.899h.414c.132 0 .24.106.24.238v.289zm5.692-13.808c.231 0 .347-.096.347-.287a.94.94 0 00-.077-.345L13.23 5.205c-.128-.345-.224-.517-.288-.517-.065 0-.167.179-.308.536L9.942 13.05a1.087 1.087 0 00-.077.412c0 .146.096.22.288.22h5.673zm13.096 14.046c-.103 0-.154-.128-.154-.383v-.23c0-.101.051-.153.154-.153.077 0 .198-.012.365-.038l.52-.076a7.94 7.94 0 00.5-.086l.327-.068c1.308-.293 1.961-1.033 1.961-2.22V4.268c0-1.097-.442-1.875-1.327-2.334a3.543 3.543 0 00-1.692-.421h-.646a.239.239 0 01-.239-.238V.899c0-.101.077-.153.231-.153L39.48.46h1.939a.05.05 0 01.007 0c2.268.154 4.167.974 5.698 2.46 1.532 1.485 2.298 3.316 2.298 5.491s-.91 3.869-2.73 5.08a13.07 13.07 0 01-1.74.956.084.084 0 00-.038.12l5.778 9.392c1.012 1.658 2.371 2.826 4.076 3.502.141.038.212.128.212.268 0 .318-.212.478-.635.478-2.885 0-5.18-1.09-6.884-3.272a19.735 19.735 0 01-1.116-1.627l-4.956-7.732a.086.086 0 00-.068-.04l-4.533-.208h-.154c-.192 0-.288.09-.288.268v8.822c0 .702.199 1.224.596 1.569.398.345 1.084.58 2.058.708.256.039.57.093.942.163s.625.105.76.105c.134 0 .202.051.202.153v.375a.239.239 0 01-.24.238H28.923zm8.98-26.264a70.547 70.547 0 01-1.154.038c-.269.006-.403.111-.403.315v11.6l.038.57c.038.269.16.41.365.422l1.959.114h.006c3.6 0 5.772-1.276 6.516-3.827.243-.803.365-1.722.365-2.755 0-2.016-.631-3.604-1.894-4.765-1.263-1.16-2.875-1.741-4.836-1.741-.18 0-.346.003-.5.01l-.462.019zm24.98 25.652c0-.102.058-.154.173-.154h.539c1.256 0 2.266-.268 3.028-.803.763-.536 1.144-1.161 1.144-1.876V3.1c0-.268-.054-.418-.163-.45a3.565 3.565 0 00-.401-.086h-7.367c-.007 0-.014 0-.02.002-1.187.259-1.966 1.17-2.336 2.734-.206.843-.327 1.381-.366 1.618-.038.236-.109.353-.211.353h-.346c-.077 0-.116-.025-.116-.076V6.57l.001-.01.711-5.966c.077-.395.205-.593.384-.593.18 0 .372.124.577.373.205.25.596.374 1.173.374h20.73c.55 0 .885-.064 1-.192.106-.117.206-.231.302-.343a.564.564 0 01.42-.212c.16 0 .261.065.306.192.045.126.08.26.106.398v.007l.711 5.962v.637c0 .05-.038.076-.115.076H82.4c-.102 0-.173-.096-.211-.287-.205-1.276-.5-2.287-.885-3.033-.383-.743-.988-1.205-1.816-1.385a.093.093 0 00-.021-.003h-7.385c-.005 0-.01 0-.016.002a3.4 3.4 0 00-.386.084c-.11.033-.163.182-.163.45v21.183c0 .715.381 1.34 1.144 1.876.763.535 1.772.803 3.028.803h.473a.24.24 0 01.24.238v.29a.239.239 0 01-.24.238h-13.04a.239.239 0 01-.24-.238v-.374zm33.576.374a.239.239 0 01-.24.238H84.997c-.09 0-.134-.051-.134-.153v-.364c0-.102.273-.16.817-.172.545-.013 1.212-.213 2-.603.789-.389 1.183-.979 1.183-1.77V3.808c0-1.442-1.282-2.239-3.846-2.392-.103 0-.154-.05-.154-.153V.899c0-.101.044-.153.134-.153h11.222a.24.24 0 01.24.238v.279c0 .077-.267.115-.799.115s-1.119.153-1.76.459c-.858.408-1.288 1.078-1.288 2.01v8.439c0 1.123.11 1.684.327 1.684.551 0 1.25-.348 2.096-1.043a19.578 19.578 0 002.25-2.153 22.58 22.58 0 001.971-2.631c.66-1.014 1.119-1.706 1.375-2.077.962-1.352 1.442-2.369 1.442-3.052 0-.682-.295-1.138-.884-1.368-.385-.153-.936-.23-1.654-.23h-.107a.239.239 0 01-.24-.238V.984a.24.24 0 01.24-.238h10.944c.133 0 .24.107.24.238v.279c0 .153-.077.23-.231.23-1.642.051-2.84.265-3.596.641-.757.376-1.362.788-1.817 1.234-.456.447-.952 1.123-1.49 2.029-1.642 2.768-3.276 4.982-4.904 6.64-.647.656-1.003 1.078-1.068 1.265-.008.025-.001.05.014.072.125.172.642.67 1.554 1.495 2.462 2.245 5.044 5.288 7.75 9.128 1.012 1.467 2.339 2.373 3.98 2.717 1.09.255 1.779.383 2.067.383.289 0 .433.051.433.153v.24a.239.239 0 01-.239.238h-12.406a.239.239 0 01-.239-.238v-.279c0-.102.218-.172.654-.21 1.442-.127 2.166-.545 2.173-1.253l-.002-.02c-.099-.72-1.387-2.484-3.863-5.291a35.298 35.298 0 01-1.404-1.665c-1.949-2.386-3.552-3.578-4.808-3.578h-.365c-.129 0-.192.089-.192.267v8.956c0 1.765 1.201 2.658 3.605 2.679a.24.24 0 01.24.238v.156zm17.076 0v-.366c0-.131.107-.238.239-.238h.34c.538-.038 1.088-.06 1.652-.067a6.016 6.016 0 001.538-.2c1.051-.307 1.577-1.072 1.577-2.297V4.152c0-1.263-.75-2.066-2.25-2.41a21.214 21.214 0 00-1.295-.23h-.312a.238.238 0 01-.239-.239V.984c0-.131.107-.238.239-.238h18.203c.231 0 .397.042.5.125.102.083.166.264.192.545l.346 5.55c0 .127-.096.19-.289.19-.186 0-.325-.054-.415-.162a.136.136 0 01-.013-.019c-.076-.14-.174-.602-.292-1.387-.122-.804-.344-1.474-.664-2.01-.32-.534-.881-.87-1.684-1.012a.078.078 0 00-.017-.002h-7.925a.334.334 0 00-.335.334v9.723c0 .152.124.277.278.277h6.568c1.692 0 2.551-.966 2.576-2.899a.241.241 0 01.24-.24h.291c.132 0 .239.107.239.238v7.446a.239.239 0 01-.239.238h-.291a.238.238 0 01-.239-.235c-.016-1.821-.568-2.326-1.654-2.616a4.041 4.041 0 00-.981-.115h-6.51a.277.277 0 00-.278.277v9.234c0 .957.442 1.499 1.327 1.627.256.038.525.057.808.057h6.403c1.32 0 2.378-1.217 3.108-2.378.963-.766-.63 3.928-.63 3.928-.077.179-.166.268-.269.268h-19.604a.239.239 0 01-.239-.238zm25.172.238c-.102 0-.154-.128-.154-.383v-.23c0-.101.052-.153.154-.153.077 0 .199-.012.366-.038l.519-.076c.179-.026.346-.054.5-.086l.327-.068c1.308-.293 1.961-1.033 1.961-2.22V4.268c0-1.097-.442-1.875-1.326-2.334a3.545 3.545 0 00-1.693-.421h-.645a.238.238 0 01-.239-.238V.899c0-.101.077-.153.231-.153L149.264.46h1.946c2.267.154 4.166.974 5.698 2.46 1.532 1.485 2.298 3.316 2.298 5.491s-.911 3.869-2.731 5.08c-.539.354-1.119.673-1.739.956a.084.084 0 00-.038.12l5.777 9.392c1.013 1.658 2.372 2.826 4.077 3.502.14.038.211.128.211.268 0 .318-.211.478-.634.478-2.885 0-5.18-1.09-6.885-3.272a19.835 19.835 0 01-1.115-1.627l-4.957-7.732a.086.086 0 00-.068-.04l-4.533-.208h-.154c-.192 0-.288.09-.288.268v8.822c0 .702.198 1.224.596 1.569.397.345 1.083.58 2.058.708.256.039.57.093.942.163s.625.105.76.105c.134 0 .202.051.202.153v.375a.24.24 0 01-.24.238h-11.741zm8.98-26.264a71.62 71.62 0 01-1.154.038c-.269.006-.403.111-.403.315v11.599l.038.571c.039.268.16.409.365.421l1.959.115h.006c3.601 0 5.772-1.276 6.516-3.827.243-.804.365-1.722.365-2.755 0-2.016-.631-3.604-1.894-4.765-1.263-1.16-2.874-1.742-4.836-1.742-.18 0-.346.004-.5.01l-.462.02zm27.538 26.026a.239.239 0 01-.239.238h-9.656a.24.24 0 01-.24-.238v-.374c0-.102.084-.154.25-.154 1.757-.076 2.943-1.007 3.558-2.793l7.846-22.6a.224.224 0 00.019-.096l-.212-.631c0-.064.025-.096.077-.096h3.846a.615.615 0 00.106.038c.045.013.08.052.106.115l8.132 22.71.004.01c.178.342.322.653.43.933.109.28.234.535.376.765.307.523.814.925 1.519 1.206.59.293 1.128.44 1.615.44.103 0 .154.057.154.172v.355a.239.239 0 01-.239.238h-11.598a.239.239 0 01-.239-.238v-.374c0-.102.237-.166.711-.191a41.38 41.38 0 001.173-.077c1.782-.191 2.674-.79 2.674-1.799 0-.076-.013-.165-.039-.268l-2.902-8.147-.003-.008a3.296 3.296 0 01-.076-.169c-.153-.434-.423-.65-.807-.65h-6.827c-.384 0-.686.21-.904.63a.907.907 0 00-.058.154l-2.884 8.4v.173c0 .332.173.631.519.9.782.599 1.833.899 3.154.899h.415c.132 0 .239.106.239.238v.289zm5.692-13.808c.231 0 .346-.096.346-.287a.944.944 0 00-.077-.345l-2.865-7.845c-.129-.345-.225-.517-.289-.517-.064 0-.167.179-.307.536l-2.693 7.826a1.099 1.099 0 00-.077.412c0 .146.097.22.289.22h5.673z" fill="#000"/><path d="M174.304 39.56a40.59 40.59 0 011.602-2.196 124.17 124.17 0 011.563-1.957c.417-.51.75-.932.993-1.255a.086.086 0 00-.016-.117 2.618 2.618 0 00-.892-.501 3.256 3.256 0 00-.913-.159c-.44.023-.867.256-1.268.692-.222.24-.428.47-.611.685a29.84 29.84 0 00-.759.937 39.12 39.12 0 01-1.49 1.833c-.567.66-1.143 1.29-1.715 1.871l-.465.453c-.213.208-.458.434-.73.674-.398.34-.79.623-1.166.843-.392.228-.688.34-.906.34-.253 0-.398-.142-.398-.388 0-.162.077-.39.233-.695.151-.293.391-.675.715-1.137.422-.556.862-1.129 1.32-1.721a8.92 8.92 0 001.086-1.775c.24-.493.362-.966.362-1.407 0-.57-.188-1.02-.56-1.338-.376-.32-.854-.483-1.421-.483-.333 0-.697.065-1.082.193-.385.13-.762.338-1.123.619a18.075 18.075 0 00-2.107 1.926c-.719.761-1.635 1.61-2.72 2.523-.261.228-.3.347-.3.398 0 .12.045.12.085.12.047 0 .098-.027.16-.087.388-.307.874-.738 1.442-1.28.564-.537 1.177-1.11 1.823-1.703a20.191 20.191 0 011.83-1.51c.568-.402 1.001-.598 1.323-.598.328 0 .509.163.509.46 0 .219-.142.488-.434.825a81.96 81.96 0 00-1.392 1.573 24.51 24.51 0 00-1.462 1.857c-.44.62-.748 1.183-.917 1.677a4.308 4.308 0 00-.255 1.382c0 .57.169.995.503 1.264.338.274.773.412 1.292.412.621 0 1.309-.244 2.044-.726.746-.488 1.503-1.123 2.251-1.887a33.654 33.654 0 002.093-2.346l.569-.703-.4.806c-.342.69-.628 1.398-.849 2.104a6.78 6.78 0 00-.33 2.017c0 .743.147 1.268.436 1.562.298.301.605.513.92.632a.214.214 0 00.088.013h.022l-.002-.002c-.217-.21-.327-.503-.327-.866 0-.495.166-1.082.493-1.744a18.61 18.61 0 011.253-2.11zm18.054-7.009c-.425-.436-1.001-.657-1.712-.657-.796 0-1.668.252-2.59.748-.927.5-1.68 1.076-2.239 1.716l-.157-.12c.385-.517.81-1.078 1.264-1.668.398-.516.718-.916.972-1.217a.084.084 0 00-.007-.117 2.55 2.55 0 00-.864-.561c-.348-.128-.655-.193-.912-.193-.227 0-.446.067-.651.2a4.918 4.918 0 00-.728.604c-.243.237-.578.63-.995 1.166-.43.555-.931 1.183-1.488 1.867a35.96 35.96 0 01-2.161 2.45c-.694.713-1.297 1.282-1.792 1.691a1.112 1.112 0 00-.291.331c-.076.15-.082.199-.082.21 0 .035.006.048.01.048h.001s.043-.001.163-.09c.49-.357.974-.769 1.439-1.222l.666-.648-.511.77a78.377 78.377 0 00-2.283 3.67 68.917 68.917 0 00-2.041 3.743 38.485 38.485 0 00-1.464 3.232c-.365.938-.551 1.663-.551 2.156 0 .61.091 1.095.268 1.441.182.355.361.655.52.88.009.008.017.012.021.012h.001c.003 0 .01.001.017.007 0 0-.002-.021-.032-.063-.072-.07-.103-.203-.103-.43 0-.404.173-.985.528-1.777.346-.77.816-1.674 1.398-2.688a71.52 71.52 0 011.954-3.191 90.318 90.318 0 012.213-3.262 55.177 55.177 0 012.141-2.83l.401-.492-.228.588c-.341.877-.514 1.706-.514 2.463 0 .719.19 1.268.565 1.633.375.365.901.55 1.565.55.942 0 2.006-.348 3.162-1.035a13.196 13.196 0 003.191-2.696 12.926 12.926 0 001.881-2.82c.463-.96.697-1.854.697-2.656-.001-.718-.217-1.305-.642-1.743zm-2.956 5.944a10.251 10.251 0 01-1.389 2.34 7.767 7.767 0 01-1.939 1.778c-.718.455-1.456.686-2.191.686-.497 0-.909-.162-1.225-.483-.314-.319-.474-.848-.474-1.57 0-.562.108-1.21.32-1.928.212-.719.573-1.44 1.071-2.144.673-1.02 1.433-1.815 2.258-2.364.831-.551 1.588-.831 2.249-.831.574 0 1.031.194 1.359.578.324.378.488.912.488 1.583 0 .735-.177 1.527-.527 2.355zm-54.176-4.463c-.406.071-1.605.391-1.605.391s-7.023 1.564-8.226 2.15c-.875.427-1.114 1.06-1.179 1.374a.084.084 0 00.127.088c1.084-.657 4.251-1.364 5.968-1.364 1.805 0 .601 1.369-.201 2.15l-.303.297.002-.003c-1.204.977-2.072 1.585-3.21 2.15-2.125 1.056-4.18 1.428-6.331 1.813-.739.12-1.46.211-2.145.272a23.05 23.05 0 01-1.997.091c-2.485 0-4.49-.437-5.961-1.299-1.487-.871-2.241-2.1-2.241-3.65 0-1.027.385-2.207 1.147-3.507.757-1.293 1.97-2.696 3.605-4.169.99-.892 2.189-1.779 3.563-2.635a41.09 41.09 0 014.416-2.378 53.626 53.626 0 014.71-1.922 39.024 39.024 0 014.49-1.307c1.415-.314 2.66-.473 3.702-.473.928 0 1.676.143 2.221.428.565.294 1.082.91 1.223 1.535.357 1.576-.866 3.642-.729 3.61.508-.118 1.484-1.578 1.741-2.047.308-.561.5-1.52.424-2.345-.1-1.092-.729-2.083-1.272-2.623a5.546 5.546 0 00-2.571-1.482c-.874-.238-2.181-.357-3.23-.357-.612 0-1.258.043-1.92.127-.666.084-1.325.2-1.96.342-1.155.263-2.795.796-4.181 1.37-1.39.575-2.473 1.178-3.911 2.004a44.268 44.268 0 00-4.246 2.782 28.16 28.16 0 00-3.741 3.301c-1.496 1.578-2.616 3.152-3.326 4.68-.71 1.525-1.069 2.973-1.069 4.305 0 1.35.363 2.575 1.079 3.64.717 1.065 1.772 1.918 3.136 2.536 1.368.619 3.054.932 5.012.932.663 0 1.372-.042 2.107-.126a24.335 24.335 0 002.295-.378 31.84 31.84 0 004.76-1.426 36.94 36.94 0 001.411-.58.084.084 0 01.103.126 13.649 13.649 0 00-1.217 2.036c-1.204 2.541.702 4.398.702 4.398l.015-.071c.085-.396.558-2.392 1.991-5.011 1.606-2.932 7.023-8.405 7.825-9.187.803-.783-.716-.638-1.003-.588zm26.583.612c.962-.191 1.347-.383 1.54-.766.05-.1 0-.191-.381-.002a.06.06 0 01-.008.003c-.685.262-1.625.35-2.33.156a3.014 3.014 0 01-.271-.088.083.083 0 01-.037-.027 2.248 2.248 0 00-.36-.372c-.598-.49-1.439-.738-2.5-.738-1.022 0-2.059.217-3.082.644a11.252 11.252 0 00-2.91 1.795c-.54.454-1.062.957-1.552 1.493-.496.545-1.188 1.176-2.051 1.872-.027.024-.048.047-.072.07-.247.2-.499.396-.755.59-1.001.76-1.949 1.39-2.818 1.873-.878.489-1.595.737-2.131.737-.636 0-.769-.368-.769-.677 0-.279.097-.622.288-1.02.188-.39.448-.821.768-1.277.322-.507.68-1.022 1.064-1.527.384-.507.742-.948 1.064-1.309.327-.369.52-.592.592-.685.281-.343.424-.663.424-.953 0-.418-.21-.702-.642-.869-.458-.176-.846-.264-1.153-.264-.536 0-1.215.03-2.018.09-.538.04-1.289.1-1.715.135-.084.007-.126-.1-.058-.15a4.4 4.4 0 00.758-.758c.351-.438.591-.801.714-1.088.288-.563.435-1.035.435-1.404 0-.552-.216-.808-.68-.808-.25 0-.549.122-.889.361-.346.244-.667.617-.956 1.109-.411.73-.619 1.42-.619 2.053 0 .398.097.662.289.788l.084.054-.055.08A20.334 20.334 0 01137 36.259c-.742.783-.569.902.234.12.83-.81 1.413-1.548 2.102-2.435l.111-.145.054-.102.082.08c.008.003.057.02.279.02.098 0 .184-.006.264-.018.092-.012.203-.02.331-.02.446 0 .763.072.969.219.213.152.32.318.32.495 0 .11-.021.213-.064.31-.039.09-.146.257-.323.502-.125.195-.351.525-.671.981-.322.46-.669.948-1.041 1.468-.372.519-.707.984-1.003 1.393-.482.68-.726 1.331-.726 1.936 0 .456.179.878.532 1.256.35.375 1.05.565 2.081.565 1.043 0 2.134-.3 3.241-.893a19.233 19.233 0 003.253-2.215c.315-.264.619-.526.918-.787a7.798 7.798 0 00.715-.624l.18-.175.181-.166-.198.45a9.115 9.115 0 00-.404 1.145 4.77 4.77 0 00-.182 1.314c0 .718.234 1.31.695 1.76.461.449 1.169.676 2.104.676.728 0 1.512-.132 2.328-.393a15.625 15.625 0 002.529-1.079l.023-.012.507-.262.436-.232a6.26 6.26 0 00.95-.66c.365-.296.7-.603.993-.914.708-.761 1.234-1.508 1.562-2.219.328-.708.493-1.34.493-1.88 0-.328-.037-.629-.108-.904a.083.083 0 01.083-.105c.29.007.616.009.979-.064zm-1.422.93c0 .465-.083.974-.246 1.512a3.941 3.941 0 01-.895 1.521l-.153.168s-.994 1.122-1.796 1.708c-1.204.978-2.243 1.405-2.243 1.405a8.177 8.177 0 01-1.204.477 3.948 3.948 0 01-1.145.185c-1.127 0-1.698-.557-1.698-1.654 0-.786.235-1.617.699-2.472a10.782 10.782 0 011.763-2.375 10.41 10.41 0 012.289-1.791c.817-.466 1.578-.702 2.262-.702.174 0 .338.013.495.034.028.004.052.02.065.046.112.23.502.831 1.575 1.015a.088.088 0 01.066.05c.109.252.166.543.166.872z" fill="#A9A9A9"/></svg>