<svg width="268" height="28" fill="none" xmlns="http://www.w3.org/2000/svg"><g clip-path="url(#clip0_1_1485)" fill="#A9A9A9"><path d="M1.103 11.635c.304 0 .563.108.779.323.215.215.323.474.323.778 0 .303-.108.562-.323.777a1.063 1.063 0 01-.78.323c-.303 0-.563-.108-.779-.323A1.059 1.059 0 010 12.736c0-.304.108-.563.323-.778.216-.215.476-.323.78-.323zm265.474 0c.304 0 .564.108.78.323.215.215.323.474.323.778 0 .303-.108.562-.323.777a1.065 1.065 0 01-.78.323c-.304 0-.564-.108-.779-.323a1.057 1.057 0 01-.323-.777c0-.304.107-.563.323-.778.215-.215.475-.323.779-.323zM21.524 26.874c-.97 0-1.867-.143-2.688-.428a4.682 4.682 0 01-2.05-1.374c-.544-.63-.896-1.457-1.053-2.48v-.088c0-.1.03-.148.089-.148.099 0 .168.069.208.207.217 1.122.761 2.037 1.633 2.746a4.619 4.619 0 003 1.063c.791 0 1.554-.163 2.287-.487a9.826 9.826 0 002.079-1.256 18.24 18.24 0 001.826-1.639c.564-.58 1.084-1.117 1.56-1.609a35.232 35.232 0 003.014-3.81c.9-1.318 1.608-2.53 2.124-3.632-.674.69-1.5 1.388-2.48 2.096a32.197 32.197 0 01-3.223 2.038 30.556 30.556 0 01-3.667 1.728c-1.277.502-2.55.89-3.817 1.166-.634.138-1.247.241-1.841.31a14.49 14.49 0 01-1.693.104c-1.584 0-2.93-.256-4.04-.768-1.109-.512-1.955-1.21-2.539-2.096-.584-.886-.876-1.89-.876-3.013 0-1.102.287-2.283.862-3.544.574-1.26 1.465-2.54 2.673-3.839a22.596 22.596 0 013-2.702 35.238 35.238 0 013.4-2.274 29.32 29.32 0 013.415-1.727C23.846.945 24.871.6 25.801.384a16.47 16.47 0 011.574-.28A12.135 12.135 0 0128.92 0c.851 0 1.628.108 2.331.325.703.217 1.272.56 1.708 1.033.435.473.653 1.093.653 1.86 0 .434-.074.857-.222 1.27-.149.414-.273.73-.372.946-.059.118-.118.177-.178.177-.04 0-.07-.04-.089-.118a.33.33 0 01.03-.236c.178-.394.267-.729.267-1.004 0-.492-.213-.852-.638-1.079-.426-.225-1.005-.339-1.737-.339-.832 0-1.812.128-2.94.384-1.13.256-2.323.61-3.58 1.063a42.24 42.24 0 00-3.757 1.565 32.447 32.447 0 00-3.52 1.935c-1.098.699-2.044 1.413-2.835 2.14-1.307 1.202-2.263 2.329-2.866 3.382-.605 1.053-.906 1.993-.906 2.82 0 1.24.584 2.21 1.752 2.91 1.168.698 2.742 1.048 4.722 1.048.515 0 1.044-.025 1.59-.074.543-.05 1.113-.123 1.707-.222a29.779 29.779 0 005.257-1.491 27.41 27.41 0 004.99-2.495c1.544-.985 2.82-2.058 3.83-3.22.08-.216.15-.427.209-.634.059-.207.089-.409.089-.606 0-.255-.12-.384-.357-.384-.317 0-.663.159-1.04.473-.158.138-.306.207-.445.207-.099 0-.148-.049-.148-.148 0-.157.099-.324.297-.502.653-.472 1.287-.709 1.9-.709.515 0 .931.178 1.248.532.198.217.297.552.297 1.005 0 .57-.163 1.26-.49 2.066a22.186 22.186 0 01-1.248 2.555 31.93 31.93 0 01-1.633 2.599 61.352 61.352 0 01-1.649 2.259c-.515.669-.93 1.171-1.247 1.506a15.289 15.289 0 01-3.816 2.894c-1.456.787-2.975 1.18-4.56 1.18zm18.978-6.822c-.872 0-1.6-.212-2.184-.635-.584-.424-.876-1.038-.876-1.846a4.9 4.9 0 01.624-2.421 6.702 6.702 0 011.663-1.964 8.327 8.327 0 012.272-1.314 6.815 6.815 0 012.45-.473c.812 0 1.416.143 1.812.428.396.286.594.635.594 1.048 0 .395-.184.813-.55 1.256-.366.443-.896.831-1.588 1.166a9.45 9.45 0 01-1.5.517c-.564.147-1.054.221-1.47.221-.317 0-.475-.049-.475-.147 0-.079.138-.119.415-.119.257 0 .658-.073 1.203-.22a8.632 8.632 0 001.59-.606c.573-.315.98-.63 1.217-.945.238-.315.356-.6.356-.857a.74.74 0 00-.282-.59c-.188-.158-.45-.236-.787-.236-.316 0-.673.088-1.069.265-.574.256-1.163.675-1.767 1.255a8.546 8.546 0 00-1.5 1.905c-.396.69-.593 1.35-.593 1.979 0 .433.123.797.37 1.092.248.296.62.444 1.115.444.514 0 1.108-.163 1.782-.488a15.017 15.017 0 002.049-1.21c.693-.483 1.336-.97 1.93-1.463.594-.491 1.07-.905 1.426-1.24.119-.118.208-.177.267-.177.06 0 .09.05.09.147 0 .138-.06.257-.179.355-.752.69-1.57 1.408-2.45 2.156a15.24 15.24 0 01-2.822 1.904c-1 .522-2.045.793-3.133.813zm10.542.207c-.633 0-1.118-.188-1.455-.562-.337-.373-.505-.895-.505-1.565 0-.63.168-1.368.505-2.215l.06-.147-.535.502a.37.37 0 01-.267.118c-.1 0-.149-.04-.149-.118 0-.099.07-.217.208-.355.515-.452 1.044-.93 1.589-1.432.544-.502 1.005-.98 1.381-1.432a1.126 1.126 0 01-.445.088c-.16 0-.278-.039-.357-.118-.139-.098-.208-.275-.208-.531 0-.217.104-.443.312-.68.208-.235.639-.442 1.292-.62.139-.039.282-.068.43-.088l.432-.059a49.098 49.098 0 001.663-2.466c.475-.757.85-1.265 1.129-1.52.118-.138.331-.256.638-.355.307-.098.634-.177.98-.236.347-.06.62-.089.817-.089.653 0 .98.06.98.177 0 .08-.149.266-.446.561a51.702 51.702 0 00-1.737 1.757c-.663.7-1.342 1.453-2.034 2.26a5.825 5.825 0 011.588.443c.485.216.837.492 1.055.826a.55.55 0 01.118.355c0 .158-.05.236-.148.236-.08 0-.169-.049-.267-.148-.416-.413-1.11-.62-2.08-.62-.197 0-.4.01-.608.03a7.82 7.82 0 00-.639.088 34.93 34.93 0 00-1.841 2.6c-.555.866-.95 1.673-1.188 2.42a3.09 3.09 0 00-.178.975c0 .296.069.537.208.724.138.187.346.28.623.28.178 0 .396-.048.654-.147.376-.138.811-.37 1.306-.694a17.86 17.86 0 001.5-1.107c.505-.414.98-.818 1.426-1.212a62.126 62.126 0 001.618-1.476c.06-.06.109-.089.149-.089.078 0 .118.06.118.178a.533.533 0 01-.178.383c-.198.197-.5.493-.905.886-.406.394-.872.832-1.396 1.314a19.12 19.12 0 01-1.678 1.374c-.594.433-1.193.793-1.797 1.078-.604.284-1.183.428-1.737.428zm19.038-.473c-.812 0-1.361-.172-1.648-.517a1.773 1.773 0 01-.43-1.166c0-.355.059-.694.177-1.019.12-.325.218-.556.297-.694.12-.197.283-.423.49-.679.209-.256.441-.532.699-.827-.396.335-.768.66-1.114.974-.347.315-.628.552-.847.71-.06.058-.118.088-.178.088-.079 0-.119-.049-.119-.148 0-.157.11-.314.327-.473a18.279 18.279 0 001.5-1.417c.485-.511.945-.99 1.38-1.432.436-.443.822-.753 1.16-.93.356-.197.642-.325.86-.384.218-.06.396-.089.535-.089.218 0 .376.035.475.104.1.069.12.143.06.221a7.19 7.19 0 00-.995 1.285 17.359 17.359 0 00-.906 1.639c-.278.571-.5 1.112-.669 1.624-.168.512-.252.945-.252 1.3 0 .492.198.738.594.738.376 0 .866-.172 1.47-.517a14.802 14.802 0 001.901-1.314 46.437 46.437 0 001.856-1.565c.08-.079.149-.118.208-.118.1 0 .153.05.163.147.01.099-.014.168-.074.207a39.086 39.086 0 01-2.212 1.905 17.254 17.254 0 01-2.466 1.668c-.821.453-1.569.679-2.242.679zm4.544-9.066c-.277 0-.485-.089-.624-.266a.894.894 0 01-.207-.561c0-.394.188-.782.564-1.166.376-.385.772-.576 1.188-.576.277 0 .484.088.623.265a.899.899 0 01.208.562c0 .413-.183.807-.549 1.18-.366.375-.767.562-1.203.562zm2.762 9.184c-.198 0-.435-.044-.713-.133a2.45 2.45 0 01-.831-.487c.218-.296.53-.694.935-1.196a55.3 55.3 0 001.292-1.669c.456-.61.88-1.22 1.277-1.83-.317.314-.663.65-1.04 1.004a16.75 16.75 0 01-1.128.974.368.368 0 01-.267.118c-.079 0-.119-.039-.119-.118 0-.098.08-.217.238-.355a93.716 93.716 0 001.856-1.697c.683-.64 1.183-1.295 1.5-1.964.099-.236.148-.453.148-.65 0-.256-.05-.413-.148-.473a.279.279 0 01-.119-.236c0-.177.09-.265.267-.265.1 0 .178.02.238.058.217.099.425.286.624.562.197.276.297.689.297 1.24 0 .315-.04.674-.12 1.078a8.297 8.297 0 01-.415 1.373c.297-.393.599-.778.906-1.152.306-.373.588-.708.846-1.004.535-.61 1.074-1.048 1.619-1.314.544-.265 1.034-.398 1.47-.398.515 0 .93.147 1.247.443.317.295.476.678.476 1.151 0 .374-.1.758-.297 1.152-.06.158-.199.399-.416.723-.218.325-.456.675-.713 1.049-.258.374-.495.708-.713 1.004-.257.315-.435.586-.534.812-.1.226-.149.409-.149.546 0 .197.108.295.327.295.277 0 .663-.147 1.158-.443a9.778 9.778 0 001.025-.723 48.8 48.8 0 001.158-.945c.386-.325.698-.595.936-.812.079-.079.148-.118.207-.118.08 0 .12.05.12.147 0 .118-.05.227-.15.325a50.605 50.605 0 01-2.063 1.802c-.783.65-1.55 1.151-2.302 1.506-.614.295-1.178.442-1.693.442-.436 0-.782-.113-1.04-.34-.257-.225-.385-.555-.385-.988 0-.315.078-.69.237-1.123.198-.531.48-1.063.847-1.594.366-.532.752-1.039 1.158-1.521.405-.482.757-.89 1.054-1.226.257-.275.386-.511.386-.708 0-.178-.119-.266-.356-.266-.238 0-.59.133-1.054.399-.466.265-.986.694-1.56 1.284a16.797 16.797 0 00-2.138 2.747 19.054 19.054 0 01-2.109 2.776c-.436.492-.861.738-1.277.738zm14.998.178c-.792 0-1.49-.153-2.093-.458-.604-.305-1.045-.871-1.322-1.698-.02-.079.005-.128.074-.148.07-.019.115.02.134.118.198.433.456.739.772.916.317.177.664.266 1.04.266a2.67 2.67 0 001.678-.561 6.06 6.06 0 001.306-1.418 16.72 16.72 0 001.04-1.757c.307-.6.599-1.117.876-1.55a9.735 9.735 0 011.56-1.979c.603-.59 1.153-.955 1.648-1.093a1 1 0 00-.446-.088c-.495 0-1.04.147-1.633.443a10.58 10.58 0 00-1.797 1.151c-.604.473-1.188.97-1.752 1.491-.565.522-1.08 1.005-1.545 1.447-.465.444-.836.793-1.113 1.049-.159.138-.277.207-.357.207-.079 0-.118-.04-.118-.119a.45.45 0 01.148-.324 31.946 31.946 0 001.841-1.728c.634-.64 1.278-1.26 1.93-1.86.654-.6 1.317-1.098 1.99-1.492.673-.393 1.357-.59 2.05-.59h.223c.07 0 .143.01.223.03.218.02.42.079.609.177.188.098.242.167.163.207-.456.197-.812.59-1.07 1.181-.257.59-.494 1.28-.712 2.067a26.9 26.9 0 01-.787 2.392 6.712 6.712 0 01-1.321 2.156c.277-.099.712-.325 1.306-.68a25.383 25.383 0 001.96-1.313 15.699 15.699 0 001.99-1.728c.079-.078.159-.118.238-.118.099 0 .149.049.149.147 0 .08-.04.158-.119.237a65.293 65.293 0 01-1.782 1.638 19.827 19.827 0 01-2.124 1.64c-.762.512-1.55.93-2.361 1.255a6.675 6.675 0 01-2.496.487zm5.257 7.884a5.975 5.975 0 01-.431-.738c-.149-.295-.223-.7-.223-1.21 0-.414.149-1.01.446-1.788a31.57 31.57 0 011.173-2.643 55.26 55.26 0 011.634-3.056 63.386 63.386 0 011.826-2.998 10.79 10.79 0 01-1.158 1.004c-.079.06-.138.089-.178.089-.06 0-.089-.04-.089-.118 0-.04.025-.108.074-.207a.981.981 0 01.252-.296c.396-.334.871-.792 1.426-1.373a29.002 29.002 0 001.723-1.993c.455-.571.851-1.078 1.188-1.521.336-.443.603-.763.801-.96.218-.216.416-.384.594-.502a1.01 1.01 0 01.565-.177c.217 0 .47.055.757.163.287.108.56.3.817.575-.218.257-.505.62-.862 1.093-.356.473-.693.926-1.009 1.359.455-.532 1.058-1.004 1.811-1.418.753-.413 1.456-.62 2.109-.62.594 0 1.069.188 1.426.561.356.375.534.867.534 1.477 0 .67-.188 1.402-.564 2.2-.376.797-.881 1.57-1.515 2.318a10.612 10.612 0 01-2.569 2.215c-.941.57-1.797.857-2.569.857-.555 0-.99-.159-1.307-.473-.317-.315-.475-.778-.475-1.388 0-.63.138-1.31.416-2.038a44.462 44.462 0 00-1.708 2.303 72.984 72.984 0 00-1.767 2.658 58.065 58.065 0 00-1.56 2.599 25.595 25.595 0 00-1.113 2.185c-.277.63-.416 1.102-.416 1.418 0 .157.02.255.06.295.059.078.064.133.014.162-.049.03-.093.026-.133-.014zm7.84-8.032c.574 0 1.144-.182 1.708-.547a6.144 6.144 0 001.53-1.432 8.31 8.31 0 001.099-1.89c.277-.669.416-1.3.416-1.89 0-.531-.124-.945-.371-1.24-.248-.295-.59-.443-1.025-.443-.515 0-1.099.222-1.753.665-.653.443-1.247 1.077-1.781 1.905a5.918 5.918 0 00-.847 1.727c-.169.58-.252 1.098-.252 1.55 0 .572.118.98.356 1.226s.544.369.92.369zm11.048-.148c-.812 0-1.361-.172-1.648-.517a1.774 1.774 0 01-.431-1.166c0-.355.06-.694.179-1.019.118-.325.217-.556.297-.694.118-.197.282-.423.49-.679.208-.256.44-.532.698-.827-.396.335-.768.66-1.114.974-.347.315-.628.552-.847.71-.059.058-.118.088-.178.088-.079 0-.119-.049-.119-.148 0-.157.109-.314.327-.473a18.331 18.331 0 001.5-1.417c.485-.511.945-.99 1.381-1.432.435-.443.821-.753 1.158-.93.357-.197.644-.325.862-.384.217-.06.395-.089.534-.089.218 0 .376.035.475.104.099.069.119.143.06.221a7.162 7.162 0 00-.995 1.285 17.338 17.338 0 00-.906 1.639 13.15 13.15 0 00-.668 1.624c-.169.512-.253.945-.253 1.3 0 .492.198.738.594.738.376 0 .866-.172 1.47-.517a14.755 14.755 0 001.901-1.314 45.996 45.996 0 001.856-1.565c.079-.079.149-.118.208-.118.099 0 .153.05.163.147.01.099-.014.168-.074.207a39.129 39.129 0 01-2.212 1.905 17.293 17.293 0 01-2.465 1.668c-.822.453-1.57.679-2.243.679zm4.544-9.066c-.277 0-.485-.089-.623-.266a.894.894 0 01-.208-.561c0-.394.188-.782.564-1.166.376-.385.772-.576 1.188-.576.277 0 .485.088.624.265a.901.901 0 01.208.562c0 .413-.184.807-.55 1.18-.366.375-.768.562-1.203.562zm7.366 9.066c-.852 0-1.426-.162-1.723-.487-.297-.325-.445-.684-.445-1.078 0-.512.197-1.053.594-1.624l.801-1.137c.297-.424.575-.822.832-1.196s.435-.64.535-.798a2.97 2.97 0 00.252-.398.549.549 0 00.045-.222c0-.118-.075-.232-.223-.34-.149-.107-.392-.162-.728-.162-.099 0-.183.005-.252.015a1.56 1.56 0 01-.223.015c-.159 0-.248-.01-.267-.03l-.089.118a32.719 32.719 0 01-1.782 2.141 16.889 16.889 0 01-2.079 1.935c-.079.059-.139.088-.179.088-.079 0-.118-.04-.118-.118 0-.158.118-.335.356-.531a19.702 19.702 0 001.812-1.728 16.412 16.412 0 001.604-2.023c-.179-.118-.268-.355-.268-.71 0-.53.168-1.101.505-1.712.238-.413.5-.723.787-.93.287-.207.54-.31.758-.31.416 0 .624.246.624.738 0 .315-.119.709-.357 1.181-.099.236-.292.537-.579.9-.287.365-.569.626-.846.783.415-.137.945-.23 1.588-.28a21.969 21.969 0 011.619-.074c.257 0 .574.074.95.222.376.147.564.409.564.782 0 .256-.118.532-.356.827-.059.079-.218.266-.475.561-.258.296-.54.65-.846 1.063-.307.414-.59.827-.847 1.24-.257.375-.46.72-.609 1.034-.148.315-.223.581-.223.798 0 .315.179.472.535.472.416 0 .97-.197 1.663-.59.693-.394 1.44-.901 2.242-1.521a23.56 23.56 0 002.213-1.935c.079-.078.148-.118.208-.118.079 0 .119.05.119.148 0 .118-.05.226-.148.325a41.678 41.678 0 01-2.302 2.111 15.393 15.393 0 01-2.614 1.816c-.901.493-1.777.739-2.628.739zm10.513.266c-.872 0-1.599-.212-2.183-.635-.584-.424-.876-1.038-.876-1.846a4.9 4.9 0 01.624-2.421 6.696 6.696 0 011.663-1.964 8.326 8.326 0 012.272-1.314 6.812 6.812 0 012.45-.473c.812 0 1.416.143 1.812.428.396.286.594.635.594 1.048 0 .395-.184.813-.55 1.256-.366.443-.896.831-1.589 1.166-.435.197-.935.37-1.499.517-.565.147-1.054.221-1.47.221-.317 0-.476-.049-.476-.147 0-.079.139-.119.416-.119.257 0 .658-.073 1.203-.22a8.634 8.634 0 001.589-.606c.574-.315.98-.63 1.217-.945.238-.315.357-.6.357-.857a.74.74 0 00-.282-.59c-.189-.158-.451-.236-.787-.236-.317 0-.674.088-1.069.265-.575.256-1.164.675-1.767 1.255a8.524 8.524 0 00-1.5 1.905c-.396.69-.594 1.35-.594 1.979 0 .433.124.797.371 1.092.248.296.619.444 1.114.444.515 0 1.109-.163 1.782-.488a15.002 15.002 0 002.049-1.21c.693-.483 1.337-.97 1.931-1.463a30.936 30.936 0 001.425-1.24c.119-.118.208-.177.268-.177.059 0 .089.05.089.147 0 .138-.06.257-.178.355a87.22 87.22 0 01-2.451 2.156 15.253 15.253 0 01-2.821 1.904 6.979 6.979 0 01-3.134.813zm16.959 2.304a2.421 2.421 0 01-.698-1.049 4.325 4.325 0 01-.223-1.432c0-.492.054-1.014.163-1.565.109-.551.253-1.132.431-1.743-.376.473-.797.956-1.263 1.447a17.07 17.07 0 01-1.321 1.27c-.832.67-1.733 1.004-2.702 1.004-.733 0-1.357-.231-1.872-.694-.515-.462-.772-1.186-.772-2.17 0-.256.025-.502.075-.738.049-.237.113-.473.193-.71-.119.1-.233.197-.342.296a5.575 5.575 0 01-.312.266.395.395 0 01-.237.088c-.099 0-.149-.049-.149-.147 0-.118.1-.256.297-.413.258-.217.55-.512.876-.886a71.91 71.91 0 011.085-1.211 7.934 7.934 0 012.539-1.86c.999-.473 1.984-.71 2.955-.71.832 0 1.44.148 1.826.444.387.295.58.65.58 1.063a44.35 44.35 0 011.559-2.998 43.124 43.124 0 011.544-2.525c.485-.728.887-1.27 1.203-1.624.218-.256.49-.443.817-.561.327-.118.658-.177.995-.177.337 0 .663.049.98.147.317.099.594.256.832.473-.198.118-.51.399-.936.842a32.36 32.36 0 00-1.455 1.639 76.912 76.912 0 00-1.693 2.097 46.65 46.65 0 00-1.649 2.244 28.905 28.905 0 00-1.737 2.864 21.723 21.723 0 00-1.322 2.968c-.336.955-.504 1.796-.504 2.525 0 .59.128 1.044.386 1.359.059.078.059.133 0 .162-.06.03-.11.034-.149.015zm-4.693-3.072c.357 0 .832-.182 1.426-.546.594-.364 1.326-.99 2.198-1.875.276-.276.499-.517.668-.724.168-.207.312-.408.431-.605a27.3 27.3 0 01.297-.798c.098-.255.207-.511.326-.767-.119.079-.208.118-.267.118-.159 0-.238-.088-.238-.266a.7.7 0 01.089-.295c.198-.335.297-.63.297-.886 0-.413-.237-.62-.712-.62-.258 0-.604.079-1.04.236-.495.197-1.005.497-1.529.9a8.982 8.982 0 00-1.456 1.418 7.965 7.965 0 00-1.069 1.669c-.267.57-.401 1.112-.401 1.624 0 .374.074.704.223.989.148.285.401.428.757.428zm21.056.502c-.792 0-1.326-.172-1.603-.517a1.807 1.807 0 01-.416-1.166c0-.67.153-1.23.461-1.683.306-.453.707-.965 1.202-1.536-.396.335-.767.655-1.113.96-.347.305-.629.537-.847.694-.059.059-.119.088-.178.088-.079 0-.119-.04-.119-.118 0-.158.119-.335.356-.531a15.447 15.447 0 001.56-1.374c.544-.54 1.054-1.053 1.529-1.535.475-.483.871-.802 1.188-.96.218-.119.426-.202.624-.251.197-.049.366-.074.505-.074.217 0 .376.035.475.104.099.069.119.143.059.221a8.983 8.983 0 00-1.01 1.314 15.274 15.274 0 00-.92 1.64 12.584 12.584 0 00-.669 1.638c-.168.522-.252.95-.252 1.285 0 .413.138.62.415.62.218 0 .47-.098.758-.295.287-.197.559-.414.817-.65a8.547 8.547 0 001.01-1.078c.356-.443.722-.905 1.099-1.388.376-.482.742-.91 1.098-1.285.297-.334.609-.615.936-.841.327-.227.678-.34 1.054-.34.277 0 .485.059.624.177.138.118.168.217.089.296a7.549 7.549 0 00-1.084 1.476 9.232 9.232 0 00-.772 1.728c-.188.58-.282 1.097-.282 1.55 0 .434.138.65.416.65.217 0 .47-.098.757-.295.287-.197.569-.414.846-.65.298-.276.58-.556.847-.842.267-.285.529-.585.787-.9.039-1.024.173-1.866.401-2.525.227-.66.5-1.157.817-1.492.119-.157.371-.295.757-.413a3.647 3.647 0 011.054-.177c.376 0 .565.098.565.295 0 .08-.06.197-.178.354-.218.257-.481.596-.787 1.02-.307.423-.59.856-.847 1.299-.257.443-.436.832-.535 1.166a3.553 3.553 0 00-.118.857c0 .374.128.561.386.561.237 0 .544-.147.92-.443.06-.059.179-.157.357-.295.178-.138.356-.286.534-.443.179-.158.307-.276.387-.354.098-.099.178-.148.237-.148.06 0 .089.05.089.148 0 .118-.029.206-.089.266-.178.176-.416.403-.713.678a9.332 9.332 0 01-.682.591 4.108 4.108 0 01-.684.413 1.85 1.85 0 01-.831.207.967.967 0 01-.639-.236c-.188-.157-.302-.423-.341-.797a19.075 19.075 0 01-2.316 2.318c-.812.679-1.565 1.019-2.258 1.019-.792 0-1.321-.172-1.588-.517a1.81 1.81 0 01-.402-1.137c0-.295.049-.61.149-.945a14.937 14.937 0 01-2.005 1.831c-.684.511-1.313.767-1.887.767zm16.9 0c-.812 0-1.362-.172-1.649-.517a1.773 1.773 0 01-.43-1.166c0-.355.059-.694.178-1.019a4.99 4.99 0 01.297-.694c.119-.197.282-.423.49-.679.208-.256.441-.532.698-.827-.396.335-.768.66-1.114.974-.346.315-.628.552-.846.71-.06.058-.119.088-.178.088-.079 0-.119-.049-.119-.148 0-.157.109-.314.326-.473a18.17 18.17 0 001.5-1.417c.485-.511.945-.99 1.381-1.432.436-.443.822-.753 1.158-.93.357-.197.644-.325.862-.384.217-.06.396-.089.534-.089.218 0 .376.035.475.104.099.069.12.143.06.221a7.162 7.162 0 00-.995 1.285 17.338 17.338 0 00-.906 1.639 13.15 13.15 0 00-.668 1.624c-.169.512-.253.945-.253 1.3 0 .492.198.738.594.738.376 0 .866-.172 1.47-.517a14.755 14.755 0 001.901-1.314 46.754 46.754 0 001.857-1.565c.079-.079.148-.118.207-.118.099 0 .154.05.164.147.009.099-.015.168-.074.207a39.524 39.524 0 01-2.213 1.905 17.293 17.293 0 01-2.465 1.668c-.822.453-1.569.679-2.242.679zm4.544-9.066c-.278 0-.486-.089-.624-.266a.894.894 0 01-.208-.561c0-.394.188-.782.564-1.166.376-.385.772-.576 1.188-.576.277 0 .485.088.624.265a.901.901 0 01.208.562c0 .413-.184.807-.549 1.18-.367.375-.768.562-1.203.562zm4.871 9.539c-.634 0-1.119-.188-1.456-.562-.337-.373-.505-.895-.505-1.565 0-.63.169-1.368.505-2.215l.059-.147-.534.502a.37.37 0 01-.267.118c-.099 0-.149-.04-.149-.118 0-.099.07-.217.208-.355.515-.452 1.044-.93 1.589-1.432.544-.502 1.005-.98 1.381-1.432a1.122 1.122 0 01-.445.088c-.159 0-.278-.039-.357-.118-.138-.098-.208-.275-.208-.531 0-.217.104-.443.312-.68.208-.235.639-.442 1.292-.62.139-.039.283-.068.431-.088l.431-.059a49.29 49.29 0 001.663-2.466c.475-.757.851-1.265 1.129-1.52.118-.138.331-.256.638-.355a7.13 7.13 0 01.98-.236 5.17 5.17 0 01.817-.089c.653 0 .98.06.98.177 0 .08-.148.266-.445.561a50.91 50.91 0 00-1.738 1.757 61.13 61.13 0 00-2.035 2.26 5.824 5.824 0 011.589.443c.485.216.836.492 1.054.826a.55.55 0 01.119.355c0 .158-.049.236-.148.236-.08 0-.169-.049-.267-.148-.416-.413-1.109-.62-2.079-.62-.198 0-.401.01-.609.03-.208.02-.421.05-.639.088a34.952 34.952 0 00-1.841 2.6c-.555.866-.95 1.673-1.188 2.42a3.09 3.09 0 00-.178.975c0 .296.069.537.208.724.138.187.346.28.623.28.178 0 .396-.048.654-.147.376-.138.811-.37 1.306-.694a17.7 17.7 0 001.5-1.107c.505-.414.98-.818 1.426-1.212a64.13 64.13 0 001.619-1.476c.059-.06.108-.089.148-.089.079 0 .119.06.119.178 0 .137-.06.265-.178.383-.198.197-.501.493-.906.886a73.98 73.98 0 01-1.396 1.314c-.525.483-1.084.94-1.678 1.374a11.08 11.08 0 01-1.797 1.078c-.604.284-1.183.428-1.737.428zm14.077-.473c-.495 0-.886-.137-1.173-.413-.288-.276-.431-.65-.431-1.123 0-.295.069-.63.208-1.004.138-.373.356-.757.654-1.151.455-.61.89-1.147 1.307-1.61.415-.462.722-.88.92-1.255.198-.354.298-.63.298-.827 0-.295-.179-.443-.535-.443-.317 0-.768.173-1.352.517-.584.345-1.192.9-1.826 1.668-.356.434-.762.94-1.218 1.521a12.93 12.93 0 00-1.099 1.61c-.119.217-.233.438-.341.664a22.76 22.76 0 00-.49 1.137c-.06.138-.223.285-.491.443-.267.158-.48.236-.638.236-.119 0-.178-.049-.178-.148a.7.7 0 01.089-.295c.099-.177.321-.738.668-1.683.346-.945.787-2.057 1.321-3.337a77.46 77.46 0 01-.98 1.019c-.356.364-.752.714-1.188 1.048a.366.366 0 01-.267.118c-.119 0-.178-.049-.178-.147 0-.079.089-.187.267-.325.456-.394.911-.812 1.366-1.255.456-.443.951-.999 1.486-1.668.178-.433.494-1.059.95-1.876.455-.817 1-1.727 1.634-2.732a39.313 39.313 0 012.109-3.012 24.544 24.544 0 012.376-2.687c.732-.709 1.499-1.25 2.301-1.624.802-.374 1.53-.561 2.183-.561.574 0 1.04.138 1.396.413.357.276.535.719.535 1.329s-.169 1.26-.505 1.949c-.337.69-.693 1.24-1.069 1.654a16.62 16.62 0 01-3.014 2.598 22.256 22.256 0 01-3.639 2.008.57.57 0 01-.238.06c-.138 0-.208-.049-.208-.148 0-.118.109-.216.327-.295a18.37 18.37 0 002.302-1.24 19.07 19.07 0 002.183-1.595 12.51 12.51 0 001.693-1.713c.534-.669.88-1.215 1.039-1.639.159-.423.238-.782.238-1.078 0-.393-.219-.59-.654-.59-.198 0-.485.094-.861.28-.376.188-.822.488-1.337.901a22.675 22.675 0 00-2.45 2.303 37.771 37.771 0 00-2.465 2.953 55 55 0 00-4.202 6.468c.237-.335.485-.674.742-1.02.257-.343.515-.653.772-.93.594-.65 1.178-1.122 1.753-1.417.574-.295 1.088-.443 1.544-.443.515 0 .931.153 1.247.458.317.305.476.714.476 1.225 0 .276-.045.547-.134.812a4.402 4.402 0 01-.312.724c-.159.335-.367.729-.624 1.181-.257.453-.504.877-.742 1.27-.456.729-.683 1.25-.683 1.565 0 .177.079.266.237.266.198 0 .525-.137.98-.413.357-.216.758-.497 1.203-.842.446-.344.891-.704 1.336-1.078.446-.374.832-.704 1.159-.99.326-.284.539-.476.638-.575.119-.118.208-.177.268-.177.059 0 .089.03.089.088 0 .099-.07.237-.208.414a30.774 30.774 0 01-1.931 1.801c-.772.67-1.643 1.32-2.613 1.949a4.154 4.154 0 01-1.084.546 3.166 3.166 0 01-.936.163zm25.096 1.123c-.257-.1-.51-.276-.757-.532-.248-.256-.371-.699-.371-1.329 0-.531.089-1.087.267-1.668.178-.58.405-1.157.683-1.728a27.56 27.56 0 01-1.678 1.92 11.022 11.022 0 01-1.812 1.55c-.604.404-1.163.605-1.678.605-.435 0-.797-.118-1.084-.354-.287-.236-.43-.6-.43-1.093 0-.354.069-.738.208-1.151.138-.414.386-.876.742-1.389.357-.511.747-1.018 1.173-1.52.426-.502.797-.93 1.114-1.285.218-.256.327-.462.327-.62 0-.197-.109-.295-.327-.295-.237 0-.574.158-1.01.472-.455.335-.94.743-1.455 1.225-.515.483-1 .945-1.455 1.389-.456.443-.842.793-1.159 1.048-.059.059-.118.089-.178.089-.099 0-.148-.06-.148-.178 0-.098.089-.226.267-.384a26.524 26.524 0 002.168-2.052 14.489 14.489 0 011.693-1.58 3.09 3.09 0 01.921-.516c.316-.108.613-.163.891-.163.475 0 .871.138 1.188.413.316.276.475.66.475 1.152 0 .374-.099.768-.297 1.181a7.32 7.32 0 01-.876 1.462c-.367.483-.718.95-1.054 1.403a8.254 8.254 0 00-.565.915c-.119.237-.178.414-.178.532 0 .158.079.236.238.236.158 0 .386-.088.683-.266.297-.177.603-.403.92-.679.218-.197.411-.379.58-.546l.371-.37c.455-.472.91-.978 1.366-1.52a32.25 32.25 0 001.188-1.492c.257-.334.46-.59.609-.767.148-.177.312-.364.49-.561.337-.374.693-.571 1.069-.59.218 0 .47.044.757.132.288.089.569.261.847.517-.198.276-.49.655-.876 1.137a99.4 99.4 0 00-1.247 1.594 32.03 32.03 0 00-1.277 1.787c-.406.61-.738 1.181-.995 1.713-.258.532-.387.994-.387 1.388 0 .276.079.492.238.65.079.078.079.122 0 .133a.337.337 0 01-.179-.015zm7.811-.827c-.792 0-1.49-.153-2.094-.458-.604-.305-1.044-.871-1.321-1.698-.02-.079.005-.128.074-.148.07-.019.114.02.134.118.198.433.455.739.772.916.317.177.663.266 1.039.266.634 0 1.193-.187 1.678-.561a6.03 6.03 0 001.307-1.418c.386-.57.733-1.156 1.04-1.757.307-.6.598-1.117.876-1.55a9.735 9.735 0 011.559-1.979c.604-.59 1.154-.955 1.649-1.093a1.004 1.004 0 00-.446-.088c-.495 0-1.04.147-1.633.443a10.58 10.58 0 00-1.797 1.151c-.604.473-1.188.97-1.753 1.491-.564.522-1.079 1.005-1.544 1.447-.466.444-.837.793-1.114 1.049-.158.138-.277.207-.356.207-.079 0-.119-.04-.119-.119 0-.118.05-.226.148-.324a32.014 32.014 0 001.842-1.728c.633-.64 1.277-1.26 1.93-1.86a11.69 11.69 0 011.99-1.492c.673-.393 1.356-.59 2.049-.59h.223c.069 0 .144.01.223.03.218.02.421.079.609.177.188.098.242.167.163.207-.456.197-.812.59-1.069 1.181a15.58 15.58 0 00-.713 2.067c-.218.788-.48 1.585-.786 2.392a6.73 6.73 0 01-1.322 2.156c.277-.099.713-.325 1.307-.68a25.421 25.421 0 001.96-1.313 15.83 15.83 0 001.99-1.728c.079-.078.158-.118.237-.118.099 0 .149.049.149.147 0 .08-.04.158-.119.237a65.566 65.566 0 01-1.782 1.638 19.801 19.801 0 01-2.124 1.64 12.67 12.67 0 01-2.361 1.255 6.667 6.667 0 01-2.495.487z"/></g><defs><clipPath id="clip0_1_1485"><path fill="#fff" d="M0 0h267.68v28H0z"/></clipPath></defs></svg>